if (_typeface_js && _typeface_js.loadFace) _typeface_js.loadFace({"glyphs":{"0":{"ha":585,"x_min":26,"x_max":549,"o":"m 234 0 q 143 23 182 0 q 78 84 104 45 q 39 173 52 122 q 26 279 26 223 q 36 381 26 329 q 62 481 45 433 q 106 573 80 530 q 166 648 132 616 q 242 699 200 680 q 332 718 283 718 q 430 696 389 718 q 497 638 471 675 q 536 553 524 602 q 549 450 549 505 q 539 347 549 400 q 510 244 529 294 q 464 150 491 194 q 401 72 436 105 q 324 19 366 39 q 234 0 282 0 m 245 123 q 281 140 263 123 q 314 184 298 157 q 343 248 330 212 q 366 322 356 284 q 380 399 375 361 q 386 469 386 437 q 382 518 386 495 q 372 558 379 541 q 355 585 366 575 q 330 595 345 595 q 291 578 309 595 q 258 534 273 562 q 231 472 243 507 q 211 399 219 437 q 198 325 202 361 q 193 256 193 288 q 196 204 193 228 q 206 162 199 180 q 222 134 212 144 q 245 123 232 123 z "},"1":{"ha":456,"x_min":5,"x_max":387,"o":"m 217 576 q 195 554 207 566 q 172 534 183 543 q 151 519 161 525 q 137 513 142 513 q 39 525 73 513 q 5 547 5 536 q 20 559 5 555 q 64 564 34 564 q 86 575 71 564 q 122 604 101 587 q 168 640 142 621 q 219 677 193 660 q 273 705 245 694 q 326 716 300 716 q 374 711 362 716 q 387 696 387 706 q 384 671 387 686 q 381 636 381 656 q 377 612 381 636 q 368 548 374 587 q 354 459 361 509 q 338 358 346 409 q 324 258 331 307 q 313 174 317 210 q 308 149 311 165 q 299 114 304 133 q 286 74 294 94 q 267 38 278 54 q 242 11 256 21 q 209 0 227 0 q 167 3 186 0 q 133 11 147 5 q 111 26 119 17 q 102 48 102 35 q 103 59 102 54 q 109 73 104 64 q 130 154 119 112 q 150 239 140 197 q 169 324 160 282 q 185 403 178 366 q 217 576 203 490 z "},"2":{"ha":629,"x_min":7,"x_max":615,"o":"m 511 1 q 471 6 491 1 q 431 22 451 12 q 391 44 411 32 q 351 71 371 57 q 268 23 312 41 q 174 1 224 4 q 109 13 139 1 q 55 46 78 26 q 20 94 33 67 q 7 150 7 121 q 14 196 7 172 q 38 238 22 219 q 78 270 54 258 q 138 282 103 282 q 233 267 192 282 q 309 229 274 251 q 347 282 329 254 q 378 340 365 310 q 400 400 392 370 q 408 459 408 430 q 398 540 408 509 q 373 589 389 572 q 340 613 358 607 q 304 620 321 620 q 263 612 282 620 q 228 592 243 605 q 204 560 213 578 q 195 519 195 542 q 215 494 195 507 q 277 468 234 481 q 278 461 278 464 q 262 444 278 453 q 223 427 247 435 q 172 414 200 419 q 120 409 144 409 q 110 415 115 414 q 100 416 104 416 q 59 466 72 439 q 46 521 46 492 q 67 596 46 559 q 126 664 89 634 q 213 712 163 694 q 319 730 262 730 q 358 727 334 730 q 412 715 383 724 q 470 689 441 705 q 524 645 500 672 q 563 578 548 618 q 578 486 578 539 q 569 415 578 456 q 540 330 559 375 q 494 238 522 285 q 432 150 467 191 q 480 131 455 138 q 534 124 505 124 q 551 135 542 124 q 568 158 560 145 q 584 181 576 171 q 594 192 591 192 q 609 184 604 192 q 615 158 615 177 q 604 85 615 133 q 595 57 601 72 q 578 30 589 42 q 550 9 567 17 q 511 1 534 1 m 165 130 q 234 158 194 130 q 203 174 218 168 q 177 180 189 180 q 134 175 146 180 q 121 161 121 170 q 125 150 121 155 q 135 140 129 144 q 149 132 141 135 q 165 130 157 130 z "},"3":{"ha":564,"x_min":31,"x_max":515,"o":"m 162 169 q 167 130 162 146 q 180 103 172 113 q 200 88 189 93 q 223 83 211 83 q 259 92 241 83 q 292 115 277 100 q 316 151 307 130 q 326 195 326 172 q 316 260 326 234 q 287 303 307 286 q 238 328 268 319 q 170 341 209 337 q 138 350 148 342 q 129 370 129 358 q 131 390 129 379 q 139 411 134 401 q 153 428 144 421 q 174 434 161 434 q 222 444 201 434 q 259 470 244 454 q 282 504 275 485 q 290 540 290 522 q 276 579 290 563 q 230 595 261 595 q 189 584 205 595 q 172 557 172 572 q 178 540 172 549 q 197 524 184 531 q 205 515 205 519 q 195 504 205 509 q 172 495 185 499 q 148 489 159 492 q 132 487 136 487 q 116 491 124 487 q 102 503 109 494 q 91 527 95 512 q 87 564 87 542 q 102 625 87 600 q 144 668 118 651 q 203 693 170 685 q 272 701 237 701 q 347 692 310 701 q 413 666 384 683 q 459 623 441 648 q 477 564 477 597 q 473 523 477 545 q 456 477 469 500 q 420 435 444 455 q 359 401 397 415 q 430 369 401 391 q 478 319 460 348 q 506 257 497 290 q 515 188 515 223 q 496 116 515 152 q 445 53 478 81 q 367 7 412 24 q 269 -11 322 -11 q 160 3 205 -11 q 86 41 115 16 q 44 101 58 66 q 31 178 31 136 q 39 221 31 204 q 60 249 47 239 q 90 264 73 260 q 125 269 106 269 q 160 265 140 269 q 197 255 180 261 q 225 241 214 249 q 237 227 237 234 q 225 218 237 222 q 199 209 214 215 q 174 194 185 203 q 162 169 162 185 z "},"4":{"ha":629,"x_min":58,"x_max":638,"o":"m 522 -26 q 463 -28 493 -26 q 405 -31 433 -31 q 367 -27 383 -31 q 339 -16 351 -24 q 322 8 328 -7 q 316 48 316 24 q 323 111 316 75 q 340 185 330 146 q 262 177 298 185 q 196 158 227 168 q 137 139 165 147 q 81 130 109 130 q 64 139 69 130 q 58 161 58 148 q 69 202 58 178 q 98 252 80 226 q 124 322 112 290 q 145 384 136 354 q 163 445 155 414 q 179 510 171 475 q 195 584 186 544 q 212 673 203 623 q 229 691 216 684 q 259 704 241 699 q 297 711 277 709 q 338 713 318 713 q 371 712 355 713 q 397 707 386 710 q 415 700 408 705 q 422 691 422 696 q 400 587 414 639 q 368 484 387 536 q 327 377 349 431 q 279 267 304 323 q 322 266 304 266 q 354 265 340 265 l 363 265 q 390 351 376 309 q 415 429 404 393 q 430 459 419 447 q 456 480 441 472 q 485 491 470 488 q 513 495 500 495 q 556 485 545 495 q 567 457 567 475 q 563 428 567 446 q 551 387 558 410 q 534 336 543 363 q 515 281 524 309 q 576 291 549 286 q 622 296 603 296 q 634 289 631 296 q 638 269 638 281 q 633 222 638 240 q 621 195 628 205 q 608 182 614 185 q 597 179 601 179 q 544 180 572 179 q 485 182 515 181 q 475 140 479 161 q 470 101 471 119 l 470 88 q 480 60 470 76 q 501 30 490 45 q 523 1 513 14 q 532 -19 532 -12 q 531 -24 532 -22 q 522 -26 529 -26 z "},"5":{"ha":564,"x_min":31,"x_max":542,"o":"m 324 527 q 276 533 296 530 q 243 540 257 537 q 218 545 229 543 q 195 547 207 547 q 186 547 191 547 q 176 546 181 547 q 181 511 178 530 q 187 475 184 496 q 195 433 190 455 q 271 437 235 437 q 381 426 336 437 q 457 394 427 414 q 504 350 487 375 q 529 299 521 325 q 540 247 538 273 q 542 201 542 222 q 522 125 542 163 q 465 57 501 87 q 378 8 429 26 q 269 -11 328 -11 q 160 3 205 -11 q 86 41 115 16 q 44 101 58 66 q 31 178 31 136 q 39 221 31 204 q 60 249 47 239 q 90 264 73 260 q 125 269 106 269 q 160 265 140 269 q 197 255 180 261 q 225 241 214 249 q 237 227 237 234 q 225 218 237 222 q 199 209 214 215 q 174 194 185 203 q 162 169 162 185 q 167 130 162 146 q 180 103 172 113 q 200 88 189 93 q 223 83 211 83 q 269 93 245 83 q 310 119 292 102 q 341 159 329 136 q 353 209 353 182 q 343 265 353 242 q 314 302 334 288 q 266 323 295 316 q 197 334 236 331 q 163 339 177 338 q 141 345 150 341 q 126 358 132 349 q 117 384 120 367 q 113 429 114 401 q 111 499 111 457 q 108 537 109 519 q 107 570 107 554 q 115 648 107 622 q 132 684 122 674 q 152 694 142 694 l 169 694 q 209 691 189 694 q 249 683 229 687 q 291 674 269 678 q 334 671 312 671 q 347 671 340 671 q 360 673 353 671 q 404 684 391 680 q 421 692 416 689 q 427 697 426 695 q 435 699 428 699 q 472 674 460 699 q 483 611 483 650 l 483 608 q 479 598 483 604 q 466 583 475 591 q 439 565 457 574 q 394 545 422 555 q 324 527 366 536 z "},"6":{"ha":629,"x_min":24,"x_max":593,"o":"m 424 293 q 409 360 424 337 q 371 384 394 384 q 342 375 354 384 q 323 354 331 367 q 309 327 315 342 q 296 299 302 312 q 283 278 290 287 q 267 270 277 270 q 259 286 264 270 q 255 326 255 302 q 270 393 255 363 q 310 443 286 422 q 366 475 334 464 q 429 486 397 486 q 490 475 460 486 q 542 442 519 465 q 579 384 565 419 q 593 300 593 349 q 572 192 593 245 q 511 96 551 138 q 416 26 472 53 q 288 0 359 0 q 191 15 239 0 q 106 62 144 29 q 46 146 69 94 q 24 271 24 197 q 56 435 24 355 q 144 586 88 515 q 275 714 199 656 q 435 812 350 772 q 461 822 449 818 q 485 825 473 825 q 532 810 515 825 q 549 773 549 795 q 539 741 549 758 q 509 710 530 725 q 391 623 448 674 q 289 511 334 572 q 218 381 245 450 q 191 245 191 313 q 196 195 191 218 q 213 153 201 171 q 243 124 224 134 q 291 113 262 113 q 345 130 320 113 q 387 173 370 146 q 414 231 404 199 q 424 293 424 262 z "},"7":{"ha":412,"x_min":50,"x_max":602,"o":"m 184 -38 q 165 -36 178 -38 q 137 -25 151 -33 q 111 -4 122 -18 q 100 33 100 10 q 100 38 100 36 q 100 44 100 41 q 136 170 111 106 q 196 298 161 233 q 275 429 231 362 q 369 564 319 495 q 316 580 336 572 q 281 593 296 587 q 254 602 267 598 q 225 605 241 605 q 189 604 203 605 q 165 600 175 604 q 148 587 155 595 q 130 564 140 579 q 95 516 109 532 q 69 501 81 501 q 54 511 58 501 q 50 537 50 521 q 50 552 50 544 q 52 568 51 559 q 81 663 62 627 q 124 720 100 700 q 173 747 147 740 q 220 754 198 754 q 269 746 245 754 q 319 729 294 739 q 371 712 345 720 q 426 703 397 704 q 451 703 439 703 q 471 703 462 703 q 514 704 498 703 q 539 706 530 705 q 551 708 547 707 q 557 709 555 709 q 591 693 581 709 q 602 648 602 676 q 597 608 602 629 q 587 596 597 604 q 563 578 576 587 q 536 559 550 568 q 515 545 523 550 q 440 424 471 484 q 386 300 410 364 q 342 167 363 237 q 298 18 322 98 q 279 -13 293 -1 q 249 -29 266 -24 q 215 -36 233 -35 q 184 -38 197 -38 z "},"8":{"ha":543,"x_min":22,"x_max":565,"o":"m 100 561 q 124 648 100 610 q 186 710 149 685 q 272 747 224 734 q 367 759 320 759 q 442 751 406 759 q 505 726 478 743 q 549 686 532 710 q 565 629 565 661 q 548 526 565 570 q 503 450 531 483 q 438 394 475 418 q 362 350 401 370 q 420 303 392 328 q 469 252 448 279 q 504 194 491 225 q 517 126 517 163 q 497 40 517 79 q 444 -27 478 1 q 363 -71 410 -56 q 260 -87 316 -87 q 179 -79 221 -87 q 102 -49 137 -71 q 44 11 67 -27 q 22 110 22 50 q 38 201 22 161 q 79 272 54 241 q 138 328 105 304 q 206 374 172 353 q 126 459 151 410 q 100 561 100 509 m 338 675 q 301 669 319 675 q 270 650 283 663 q 249 621 256 638 q 241 582 241 604 q 244 545 241 564 q 256 505 248 525 q 274 467 263 486 q 298 433 284 448 q 343 470 321 448 q 381 516 364 492 q 408 565 398 541 q 418 609 418 589 q 412 638 418 626 q 394 659 405 651 q 368 671 382 667 q 338 675 353 675 m 343 161 q 327 221 343 195 q 286 271 310 247 q 237 244 260 258 q 198 212 214 230 q 172 173 181 195 q 163 123 163 151 q 169 85 163 101 q 186 57 176 68 q 208 40 196 46 q 232 35 220 35 q 272 42 252 35 q 308 66 292 50 q 334 105 324 82 q 343 161 343 129 z "},"9":{"ha":629,"x_min":36,"x_max":588,"o":"m 315 347 q 333 361 328 361 q 339 357 338 361 q 340 347 340 353 q 330 301 340 325 q 303 256 320 277 q 261 223 286 236 q 209 210 237 210 q 131 229 164 210 q 77 280 98 249 q 46 350 56 311 q 36 427 36 389 q 45 499 36 463 q 71 570 54 536 q 113 635 87 605 q 171 689 138 666 q 245 725 204 711 q 334 738 286 738 q 420 722 375 738 q 503 673 465 707 q 564 587 540 640 q 588 461 588 535 q 556 264 588 352 q 470 106 525 176 q 343 -15 416 37 q 187 -104 270 -67 q 161 -114 174 -110 q 138 -118 149 -118 q 90 -105 107 -118 q 73 -73 73 -92 q 83 -40 73 -57 q 114 -9 92 -24 q 238 67 182 25 q 334 164 294 110 q 395 287 374 219 q 417 439 417 355 q 413 503 417 473 q 397 557 408 534 q 369 594 387 581 q 323 608 351 608 q 273 591 296 608 q 233 547 250 574 q 207 487 216 520 q 198 422 198 454 q 204 378 198 397 q 220 346 210 359 q 243 326 231 333 q 270 319 256 319 q 293 326 281 319 q 315 347 305 333 z "}," ":{"ha":370,"x_min":0,"x_max":0,"o":""},"!":{"ha":803,"x_min":167,"x_max":680,"o":"m 282 347 q 302 491 289 417 q 334 640 316 566 q 371 787 351 714 q 411 926 391 859 q 449 1050 431 992 q 480 1156 467 1109 q 506 1208 489 1188 q 543 1239 522 1228 q 586 1255 563 1251 q 629 1259 608 1259 q 650 1256 640 1259 q 666 1246 659 1253 q 676 1226 673 1239 q 680 1194 680 1214 q 679 1165 680 1181 q 673 1128 677 1149 q 629 969 656 1049 q 564 798 602 890 q 477 597 526 707 q 369 347 429 488 q 362 333 368 340 q 348 322 356 327 q 330 316 340 318 q 312 313 321 313 q 290 319 299 313 q 281 337 281 324 q 282 347 281 340 m 400 125 q 398 113 399 123 q 393 88 397 102 q 382 58 389 74 q 362 30 376 43 q 329 7 349 16 q 278 -1 309 -1 q 233 5 253 -1 q 198 25 212 12 q 175 60 183 39 q 167 110 167 81 q 174 158 167 134 q 196 199 181 181 q 235 229 211 218 q 291 239 258 239 q 372 211 344 239 q 401 130 401 182 q 400 125 401 127 z "},"\"":{"ha":803,"x_min":109,"x_max":591,"o":"m 109 870 q 110 902 109 882 q 112 944 111 921 q 115 994 113 968 q 119 1045 117 1020 q 130 1172 124 1104 q 140 1208 130 1192 q 167 1235 151 1224 q 203 1253 183 1246 q 244 1259 224 1259 q 277 1254 261 1259 q 304 1241 292 1250 q 324 1218 317 1232 q 331 1185 331 1204 q 330 1168 331 1177 q 326 1150 328 1160 q 305 1079 316 1118 q 282 1001 294 1040 q 259 927 270 962 q 239 868 248 892 q 206 820 227 836 q 163 804 184 804 q 125 820 141 804 q 109 870 109 837 m 369 870 q 370 902 369 882 q 372 944 371 921 q 376 994 374 968 q 380 1045 378 1020 q 391 1172 385 1104 q 401 1208 391 1192 q 427 1235 411 1224 q 464 1253 444 1246 q 505 1259 484 1259 q 537 1254 522 1259 q 565 1241 553 1250 q 584 1218 577 1232 q 591 1185 591 1204 q 590 1168 591 1177 q 586 1150 589 1160 q 565 1079 576 1118 q 542 1001 554 1040 q 519 927 530 962 q 499 868 508 892 q 466 820 488 836 q 423 804 445 804 q 385 820 401 804 q 369 870 369 837 z "},"#":{"ha":846,"x_min":108,"x_max":1099,"o":"m 328 651 q 295 655 311 651 q 266 668 279 659 q 245 691 253 677 q 237 724 237 705 q 250 766 237 750 q 286 789 263 781 q 338 800 309 798 q 401 803 368 803 l 437 803 l 530 1010 q 550 1044 537 1027 q 581 1075 563 1061 q 621 1097 599 1088 q 669 1106 644 1106 q 692 1100 684 1106 q 703 1086 700 1095 q 707 1067 707 1078 q 708 1048 708 1057 q 705 1034 708 1044 q 696 1011 701 1023 q 686 987 691 999 q 677 966 681 975 q 644 891 661 932 q 606 803 626 850 q 696 803 650 803 q 789 804 742 804 q 831 921 811 867 q 865 1013 850 975 q 882 1047 871 1029 q 910 1078 893 1064 q 948 1100 926 1091 q 996 1109 970 1109 q 1018 1103 1010 1109 q 1031 1089 1027 1097 q 1037 1070 1036 1080 q 1040 1051 1038 1060 q 1037 1036 1040 1046 q 1030 1014 1034 1025 q 1023 990 1027 1002 q 1015 969 1019 978 q 988 893 1002 935 q 958 804 974 852 l 1044 804 q 1072 800 1061 804 q 1088 791 1082 797 q 1097 777 1095 785 q 1099 762 1099 770 q 1092 718 1099 738 q 1064 683 1084 698 q 1013 660 1045 668 q 932 651 981 651 l 908 651 q 877 556 893 605 q 842 456 860 508 l 901 456 q 928 451 918 455 q 945 441 939 447 q 954 428 951 435 q 956 413 956 420 q 948 370 956 390 q 921 335 940 350 q 869 312 901 321 q 789 304 837 304 l 787 304 q 738 173 764 239 q 683 37 711 106 q 665 6 675 18 q 644 -12 654 -5 q 622 -19 633 -18 q 600 -21 610 -21 q 574 -19 587 -21 q 551 -10 561 -16 q 534 9 541 -3 q 528 41 528 21 q 545 117 528 70 l 610 303 q 505 302 560 302 q 391 302 450 302 q 329 171 361 237 q 262 35 297 104 q 241 3 252 15 q 218 -14 230 -8 q 196 -22 207 -20 q 174 -24 184 -24 q 151 -22 163 -24 q 130 -15 139 -20 q 114 1 120 -9 q 108 29 108 12 q 113 65 108 44 q 131 114 119 87 l 215 303 q 209 303 212 303 q 203 304 206 304 q 171 308 187 304 q 142 321 155 312 q 121 343 129 330 q 113 377 113 357 q 119 408 113 395 q 137 428 126 420 q 160 442 147 437 q 186 452 173 448 q 216 455 195 455 q 256 456 237 456 l 282 456 l 370 651 l 328 651 m 543 651 q 502 555 523 604 q 458 454 481 507 l 459 454 q 561 454 510 454 q 665 454 612 454 q 699 552 682 503 q 734 651 717 602 l 543 651 z "},"$":{"ha":1177,"x_min":174,"x_max":1151,"o":"m 750 1270 q 759 1296 752 1282 q 778 1320 766 1310 q 808 1338 790 1331 q 848 1345 825 1345 q 868 1340 860 1345 q 882 1326 877 1334 q 890 1309 888 1318 q 893 1293 893 1299 q 892 1280 893 1287 q 891 1264 892 1272 q 889 1248 890 1256 q 887 1234 888 1240 l 877 1172 q 981 1140 932 1161 q 1068 1088 1031 1119 q 1128 1019 1106 1058 q 1151 932 1151 979 q 1144 887 1151 906 q 1127 857 1138 869 q 1102 838 1116 844 q 1074 832 1088 832 q 1043 839 1059 832 q 1015 858 1027 845 q 996 889 1003 871 q 988 932 988 908 q 953 993 988 966 q 854 1033 918 1021 l 789 655 q 882 596 837 627 q 963 528 928 565 q 1021 445 999 490 q 1042 344 1042 399 q 1016 209 1042 269 q 940 105 989 149 q 824 36 892 62 q 673 3 755 10 l 652 -107 q 640 -132 648 -123 q 624 -145 633 -140 q 604 -151 614 -150 q 585 -153 594 -153 q 572 -152 578 -153 q 561 -152 566 -152 q 541 -146 550 -152 q 525 -130 532 -140 q 515 -106 519 -120 q 511 -77 511 -93 q 512 -62 511 -70 q 514 -44 513 -54 q 517 -26 515 -39 q 522 3 519 -14 q 386 28 450 9 q 276 82 323 48 q 201 166 229 116 q 174 283 174 216 q 179 335 174 307 q 196 389 184 362 q 225 441 207 416 q 271 486 244 467 q 335 516 298 505 q 418 528 371 528 q 453 522 439 528 q 478 507 468 516 q 492 485 488 497 q 497 461 497 473 q 483 422 497 439 q 439 406 468 406 q 405 401 423 406 q 372 384 387 397 q 347 347 357 370 q 336 285 336 323 q 393 185 336 220 q 547 142 449 150 l 626 578 q 521 636 573 606 q 428 702 469 666 q 362 780 387 737 q 336 878 336 823 q 362 982 336 930 q 437 1078 387 1035 q 562 1149 488 1121 q 735 1182 637 1178 l 750 1270 m 880 344 q 871 390 880 368 q 846 431 862 412 q 809 468 831 450 q 762 503 788 486 l 701 152 q 774 180 741 162 q 830 222 807 197 q 867 277 854 246 q 880 344 880 308 m 520 898 q 530 851 520 873 q 558 808 541 829 q 601 770 576 788 q 654 733 625 751 q 684 893 669 816 q 709 1038 698 970 q 623 1019 659 1033 q 564 986 587 1006 q 531 944 541 967 q 520 898 520 921 z "},"%":{"ha":1497,"x_min":64,"x_max":1455,"o":"m 309 456 q 203 480 248 456 q 126 547 157 505 q 79 644 95 589 q 64 760 64 699 q 73 859 64 809 q 101 954 83 908 q 148 1039 120 1000 q 214 1108 176 1079 q 299 1155 252 1138 q 403 1172 346 1172 q 512 1149 467 1172 q 587 1088 557 1127 q 630 999 616 1050 q 644 890 644 947 q 633 789 644 840 q 602 690 623 738 q 552 599 582 642 q 486 524 523 556 q 404 474 448 492 q 309 456 359 456 m 321 586 q 380 614 352 586 q 431 688 409 643 q 466 786 453 732 q 479 891 479 840 q 474 949 479 922 q 457 997 469 977 q 428 1030 446 1018 q 385 1042 410 1042 q 321 1018 349 1042 q 275 956 294 994 q 247 870 256 918 q 237 774 237 822 q 242 703 237 736 q 258 643 248 669 q 284 601 269 616 q 321 586 300 586 m 930 1150 q 948 1174 937 1162 q 975 1195 959 1185 q 1013 1210 991 1204 q 1063 1215 1035 1215 q 1087 1203 1081 1215 q 1094 1173 1094 1191 q 1092 1147 1094 1161 q 1086 1121 1089 1134 q 1078 1097 1082 1108 q 1072 1080 1074 1086 q 1010 952 1046 1028 q 934 788 975 877 q 847 601 892 699 q 757 408 802 503 q 668 224 711 312 q 586 65 624 136 q 558 32 575 45 q 523 13 541 20 q 487 3 505 5 q 456 0 469 0 q 426 5 438 0 q 407 19 414 10 q 396 40 399 28 q 393 65 393 52 q 400 115 393 89 q 417 161 408 140 q 450 225 428 182 q 503 329 473 269 q 571 459 534 388 q 647 607 608 531 q 727 761 687 684 q 804 910 767 839 q 874 1044 842 982 q 930 1150 907 1105 m 1132 43 q 1026 66 1072 43 q 951 129 981 90 q 905 219 920 168 q 890 327 890 271 q 899 431 890 378 q 927 531 908 483 q 973 621 945 579 q 1038 693 1001 663 q 1122 742 1076 724 q 1226 760 1169 760 q 1329 735 1286 760 q 1401 669 1373 711 q 1442 573 1429 628 q 1455 457 1455 518 q 1445 361 1455 410 q 1415 267 1434 313 q 1367 180 1395 220 q 1302 109 1338 140 q 1223 61 1266 79 q 1132 43 1181 43 m 1144 174 q 1199 199 1173 174 q 1245 263 1225 224 q 1277 351 1265 303 q 1289 445 1289 399 q 1284 515 1289 482 q 1270 574 1280 549 q 1245 614 1261 600 q 1208 629 1230 629 q 1145 604 1173 629 q 1100 537 1118 578 q 1073 442 1082 495 q 1063 335 1063 389 q 1068 275 1063 304 q 1083 223 1073 245 q 1108 187 1093 201 q 1144 174 1123 174 z "},"&":{"ha":998,"x_min":43,"x_max":876,"o":"m 319 581 q 293 637 307 605 q 267 704 279 669 q 247 775 255 739 q 239 842 239 810 q 263 947 239 897 q 327 1036 287 998 q 419 1098 367 1075 q 530 1120 472 1120 q 622 1105 580 1120 q 693 1063 663 1090 q 740 999 723 1036 q 756 919 756 962 q 743 839 756 881 q 701 754 730 798 q 626 669 672 711 q 514 586 580 626 q 542 539 522 570 q 585 470 561 508 q 635 390 609 432 q 684 310 661 349 q 706 331 698 320 q 719 353 715 342 q 724 375 723 363 q 725 397 725 386 q 719 441 725 423 q 702 477 713 460 q 675 515 690 495 q 641 564 659 535 q 644 568 641 565 q 652 576 648 572 q 661 583 656 580 q 666 586 665 586 q 695 577 676 586 q 736 554 714 569 q 783 517 759 538 q 825 469 806 496 q 857 412 844 443 q 869 348 869 381 q 846 262 869 307 q 769 174 823 218 q 783 164 771 174 q 811 143 795 155 q 842 119 827 131 q 865 100 857 106 q 876 72 876 90 q 866 38 876 56 q 843 5 857 20 q 811 -20 829 -10 q 778 -31 794 -31 q 750 -20 762 -31 q 725 4 741 -13 q 692 40 708 22 q 663 72 675 58 q 651 87 651 86 q 578 43 619 62 q 492 14 542 27 q 378 0 442 0 q 233 18 296 0 q 128 68 170 37 q 65 143 86 100 q 43 234 43 185 q 61 322 43 277 q 113 413 78 368 q 199 501 147 458 q 319 581 250 544 m 384 137 q 470 152 428 137 q 549 191 512 168 q 497 255 519 226 q 453 315 475 283 q 409 385 432 347 q 356 477 386 423 q 298 426 323 453 q 254 370 272 398 q 228 313 237 341 q 218 258 218 285 q 228 211 218 233 q 258 172 238 189 q 310 146 279 156 q 384 137 341 137 m 538 977 q 507 967 524 977 q 474 942 489 958 q 448 904 458 926 q 438 856 438 882 q 445 802 438 833 q 459 742 451 771 q 474 693 467 713 q 482 673 481 673 q 543 732 515 704 q 589 788 570 760 q 619 844 608 816 q 629 903 629 873 q 625 934 629 920 q 610 957 621 947 q 583 971 600 966 q 538 977 565 977 z "},"'":{"ha":413,"x_min":109,"x_max":331,"o":"m 109 870 q 110 902 109 882 q 112 944 111 921 q 115 994 113 968 q 119 1045 117 1020 q 130 1172 124 1104 q 140 1208 130 1192 q 167 1235 151 1224 q 203 1253 183 1246 q 244 1259 224 1259 q 277 1254 261 1259 q 304 1241 292 1250 q 324 1218 317 1232 q 331 1185 331 1204 q 330 1168 331 1177 q 326 1150 328 1160 q 305 1079 316 1118 q 282 1001 294 1040 q 259 927 270 962 q 239 868 248 892 q 206 820 227 836 q 163 804 184 804 q 125 820 141 804 q 109 870 109 837 z "},"(":{"ha":934,"x_min":260,"x_max":1129,"o":"m 477 -260 q 380 -233 421 -260 q 313 -156 339 -205 q 273 -39 286 -107 q 260 109 260 28 q 273 275 260 187 q 308 452 285 363 q 362 630 330 542 q 434 798 394 718 q 522 946 475 878 q 621 1065 568 1015 q 730 1143 673 1115 q 846 1172 787 1172 q 937 1157 890 1172 q 1023 1118 983 1142 q 1092 1062 1063 1093 q 1128 998 1120 1031 q 1129 996 1128 997 q 1129 993 1129 994 q 1119 966 1129 981 q 1095 938 1109 951 q 1064 916 1080 925 q 1034 907 1047 907 q 1020 911 1025 907 q 987 942 1004 924 q 949 978 970 960 q 904 1007 929 995 q 846 1020 879 1020 q 765 994 805 1020 q 689 923 726 968 q 618 817 652 878 q 557 685 585 755 q 506 538 529 614 q 468 387 484 463 q 443 240 452 311 q 434 109 434 169 q 438 21 434 61 q 453 -48 443 -19 q 480 -93 463 -77 q 521 -109 496 -109 q 559 -105 538 -109 q 605 -90 579 -102 q 664 -51 631 -77 q 738 22 696 -24 q 756 35 747 31 q 775 39 766 39 q 800 31 788 39 q 820 11 812 23 q 834 -18 829 -2 q 839 -48 839 -33 q 836 -70 839 -60 q 825 -87 833 -80 q 647 -220 735 -180 q 477 -260 559 -260 z "},")":{"ha":867,"x_min":41,"x_max":780,"o":"m 519 1172 q 637 1134 587 1172 q 718 1029 686 1095 q 765 875 749 963 q 780 688 780 787 q 765 481 780 587 q 723 275 751 376 q 655 85 695 175 q 565 -71 615 -4 q 453 -177 514 -138 q 324 -216 393 -216 q 234 -205 280 -216 q 148 -177 187 -195 q 79 -135 108 -159 q 42 -87 50 -112 q 42 -84 42 -85 q 41 -81 41 -83 q 51 -55 41 -70 q 76 -27 61 -40 q 107 -5 90 -14 q 136 4 123 4 q 151 0 146 4 q 184 -19 167 -7 q 221 -40 201 -30 q 267 -57 241 -50 q 324 -64 292 -64 q 402 -28 365 -64 q 470 68 439 7 q 527 208 502 128 q 571 374 553 287 q 598 551 589 461 q 608 720 608 640 q 602 839 608 784 q 582 933 595 893 q 546 997 568 974 q 494 1020 524 1020 q 453 1017 477 1020 q 401 1001 430 1014 q 336 962 372 988 q 259 890 300 936 q 240 876 250 880 q 222 872 231 872 q 197 880 208 872 q 177 901 185 888 q 163 929 168 913 q 158 960 158 945 q 172 999 158 985 q 350 1132 262 1092 q 519 1172 438 1172 z "},"*":{"ha":694,"x_min":22,"x_max":673,"o":"m 467 1158 q 451 1112 460 1137 q 433 1061 442 1086 q 414 1011 423 1036 q 397 969 405 987 q 448 997 419 981 q 503 1027 477 1013 q 566 1062 534 1044 q 578 1067 572 1066 q 592 1069 585 1069 q 622 1061 607 1069 q 648 1042 637 1054 q 666 1015 659 1029 q 673 985 673 1000 q 662 954 673 968 q 623 932 650 940 q 578 924 602 928 q 529 915 553 919 q 480 906 504 910 q 435 899 456 902 q 476 881 454 891 q 522 860 498 871 q 567 839 545 849 q 608 819 589 828 q 636 795 628 808 q 645 768 645 782 q 637 741 645 754 q 617 716 629 727 q 589 700 604 706 q 558 693 573 693 q 519 709 534 693 q 463 761 490 735 q 416 806 440 783 q 375 846 391 829 q 374 789 374 823 q 373 724 374 755 q 372 649 372 688 q 364 623 372 634 q 345 603 357 611 q 317 590 332 595 q 288 586 302 586 q 264 589 275 586 q 244 599 253 592 q 230 615 235 606 q 224 640 224 625 q 225 651 224 645 q 228 665 226 658 q 244 710 235 686 q 262 760 253 735 q 280 809 271 785 q 297 851 290 833 q 247 823 275 839 q 192 793 218 808 q 130 760 161 777 q 104 753 118 753 q 74 761 88 753 q 47 781 59 768 q 29 808 36 793 q 22 838 22 823 q 33 869 22 855 q 73 890 45 882 q 117 898 93 894 q 165 907 140 903 q 214 915 191 911 q 258 922 238 919 q 218 941 240 930 q 173 961 195 951 q 127 982 150 972 q 87 1002 105 993 q 50 1052 50 1023 q 58 1080 50 1066 q 78 1104 66 1093 q 106 1121 91 1115 q 138 1128 122 1128 q 176 1112 161 1128 q 232 1060 205 1086 q 279 1015 255 1038 q 321 975 304 991 q 321 1032 321 998 q 323 1097 322 1065 q 324 1174 323 1135 q 332 1201 324 1189 q 351 1221 339 1213 q 377 1233 362 1229 q 408 1237 392 1237 q 451 1224 432 1237 q 471 1183 471 1211 q 470 1172 471 1178 q 467 1158 469 1166 z "},"+":{"ha":1019,"x_min":217,"x_max":824,"o":"m 456 282 l 304 282 q 266 288 283 282 q 239 302 250 293 q 222 323 228 311 q 217 347 217 334 q 223 371 217 359 q 240 392 229 382 q 268 407 251 401 q 307 412 285 412 l 456 412 l 456 567 q 463 601 456 586 q 480 626 469 616 q 504 642 491 637 q 530 648 517 648 q 569 631 552 648 q 587 580 587 615 l 587 412 l 756 412 q 808 395 791 412 q 824 356 824 378 q 819 330 824 342 q 803 306 813 317 q 777 289 792 295 q 743 282 762 282 l 587 282 l 587 131 q 581 92 587 109 q 566 63 575 75 q 545 46 557 52 q 521 41 533 41 q 497 46 509 41 q 476 62 486 52 q 462 90 467 73 q 456 128 456 106 l 456 282 z "},",":{"ha":413,"x_min":195,"x_max":455,"o":"m 199 -49 q 204 -26 201 -40 q 212 4 208 -12 q 221 38 216 20 q 231 74 227 56 q 256 161 243 115 q 269 186 260 175 q 291 204 278 197 q 318 214 303 211 q 349 218 333 218 q 387 213 368 218 q 421 197 406 208 q 446 173 436 187 q 455 139 455 158 q 450 113 455 125 q 437 85 446 100 q 409 41 425 64 q 379 -6 394 18 q 349 -51 363 -29 q 323 -87 334 -72 q 288 -120 307 -110 q 250 -130 268 -130 q 211 -115 227 -130 q 195 -74 195 -100 q 199 -49 195 -63 z "},"-":{"ha":521,"x_min":43,"x_max":477,"o":"m 412 477 q 433 475 421 477 q 454 468 444 473 q 470 452 463 462 q 477 426 477 442 q 474 398 477 412 q 461 373 471 385 q 435 355 452 362 q 390 347 418 347 l 109 347 q 74 355 87 347 q 54 374 61 363 q 45 398 47 385 q 43 421 43 411 q 45 440 43 430 q 54 458 47 450 q 74 472 60 467 q 109 477 87 477 l 412 477 z "},".":{"ha":477,"x_min":217,"x_max":456,"o":"m 456 130 q 455 116 456 127 q 451 91 454 105 q 439 61 447 77 q 417 31 431 45 q 381 9 403 18 q 328 0 359 0 q 283 6 303 0 q 248 26 262 13 q 225 60 233 39 q 217 110 217 81 q 224 158 217 134 q 246 199 231 181 q 285 229 261 218 q 341 239 309 239 q 427 211 397 239 q 456 130 456 182 z "},"/":{"ha":846,"x_min":151,"x_max":846,"o":"m 629 1150 q 654 1188 638 1169 q 692 1223 670 1208 q 743 1249 715 1239 q 803 1259 770 1259 q 828 1252 819 1259 q 841 1236 837 1246 q 846 1215 845 1226 q 846 1194 846 1204 q 843 1176 846 1188 q 833 1151 839 1164 q 821 1123 827 1137 q 811 1100 815 1109 q 730 910 775 1021 q 627 662 684 798 q 501 369 570 526 q 349 43 432 212 q 320 8 335 21 q 291 -12 306 -5 q 260 -20 275 -18 q 231 -22 245 -22 q 203 -21 217 -22 q 177 -14 189 -20 q 158 4 165 -8 q 151 37 151 16 q 157 79 151 55 q 177 134 163 102 q 207 200 186 155 q 254 307 227 245 q 314 442 281 368 q 381 595 347 516 q 452 753 416 673 q 520 907 488 833 q 581 1043 553 980 q 629 1150 609 1105 z "},":":{"ha":477,"x_min":217,"x_max":496,"o":"m 496 585 q 496 572 496 583 q 491 547 495 561 q 480 516 488 532 q 458 487 472 500 q 422 465 444 473 q 369 456 400 456 q 323 462 344 456 q 289 482 303 469 q 266 516 274 495 q 258 566 258 536 q 265 613 258 590 q 287 655 272 637 q 326 684 302 673 q 382 695 349 695 q 467 667 438 695 q 496 585 496 638 m 456 130 q 455 116 456 127 q 451 91 454 105 q 439 61 447 77 q 417 31 431 45 q 381 9 403 18 q 328 0 359 0 q 283 6 303 0 q 248 26 262 13 q 225 60 233 39 q 217 110 217 81 q 224 158 217 134 q 246 199 231 181 q 285 229 261 218 q 341 239 309 239 q 427 211 397 239 q 456 130 456 182 z "},";":{"ha":521,"x_min":195,"x_max":496,"o":"m 199 -49 q 204 -26 201 -40 q 212 4 208 -12 q 221 38 216 20 q 231 74 227 56 q 256 161 243 115 q 269 186 260 175 q 291 204 278 197 q 318 214 303 211 q 349 218 333 218 q 387 213 368 218 q 421 197 406 208 q 446 173 436 187 q 455 139 455 158 q 450 113 455 125 q 437 85 446 100 q 409 41 425 64 q 379 -6 394 18 q 349 -51 363 -29 q 323 -87 334 -72 q 288 -120 307 -110 q 250 -130 268 -130 q 211 -115 227 -130 q 195 -74 195 -100 q 199 -49 195 -63 m 496 585 q 496 572 496 583 q 491 547 495 561 q 480 516 488 532 q 458 487 472 500 q 422 465 444 473 q 369 456 400 456 q 323 462 344 456 q 289 482 303 469 q 266 516 274 495 q 258 566 258 536 q 265 613 258 590 q 287 655 272 637 q 326 684 302 673 q 382 695 349 695 q 467 667 438 695 q 496 585 496 638 z "},"<":{"ha":803,"x_min":39,"x_max":769,"o":"m 334 186 q 189 242 246 216 q 98 295 132 268 q 52 353 65 322 q 39 425 39 384 q 57 487 39 464 q 102 527 74 511 q 167 555 131 543 q 241 585 203 568 q 268 597 243 586 q 331 624 292 608 q 417 661 370 641 q 512 700 465 681 q 599 734 558 719 q 665 758 640 750 q 694 763 680 763 q 725 755 713 763 q 746 735 738 747 q 759 709 755 723 q 766 683 764 695 q 769 662 768 670 q 769 652 769 653 q 755 612 769 626 q 716 591 741 599 l 172 416 l 616 253 q 643 239 627 249 q 671 214 658 229 q 695 180 685 199 q 705 139 705 161 q 686 100 705 115 q 635 85 667 85 q 570 96 606 85 q 495 123 534 107 q 415 156 456 138 q 334 186 374 173 z "},"=":{"ha":1158,"x_min":237,"x_max":1099,"o":"m 328 259 q 295 263 311 259 q 266 276 279 267 q 245 299 253 285 q 237 332 237 313 q 250 374 237 358 q 286 397 263 389 q 338 408 309 406 q 401 411 368 411 q 476 411 430 411 q 577 411 522 411 q 695 411 633 411 q 819 412 758 412 q 939 412 881 412 q 1044 412 997 412 q 1072 408 1061 412 q 1088 399 1082 405 q 1097 385 1095 393 q 1099 370 1099 378 q 1092 326 1099 346 q 1064 291 1084 306 q 1013 268 1045 276 q 932 259 981 259 l 328 259 z "},">":{"ha":803,"x_min":94,"x_max":769,"o":"m 481 173 q 400 142 441 159 q 320 109 359 125 q 245 83 281 94 q 180 72 210 72 q 129 87 148 72 q 111 125 111 102 q 117 167 111 148 q 133 200 123 186 q 153 225 142 215 q 172 239 163 235 l 636 416 l 146 564 q 108 585 122 572 q 94 625 94 599 q 94 634 94 626 q 97 655 94 643 q 103 682 99 668 q 116 708 108 696 q 137 728 125 720 q 168 736 150 736 q 198 731 183 736 q 256 711 220 724 q 332 682 292 699 q 414 649 373 666 q 489 618 455 632 q 544 595 522 604 q 567 585 566 586 q 641 555 605 568 q 706 527 677 543 q 752 487 734 511 q 769 425 769 464 q 756 349 769 382 q 711 288 744 316 q 623 232 679 259 q 481 173 567 204 z "},"?":{"ha":876,"x_min":267,"x_max":787,"o":"m 482 396 q 453 347 472 363 q 412 330 435 330 q 371 340 389 330 q 353 373 353 350 q 373 479 353 434 q 422 560 393 524 q 487 625 452 595 q 552 687 522 655 q 602 756 582 719 q 622 844 622 794 q 611 892 622 873 q 584 925 601 912 q 547 943 568 937 q 507 949 527 949 q 474 939 491 949 q 442 917 457 930 q 416 890 427 904 q 403 868 406 876 q 377 847 391 854 q 347 841 362 841 q 321 848 334 841 q 299 866 309 854 q 283 894 290 878 q 277 929 277 910 q 288 960 277 944 q 336 1015 308 991 q 396 1054 363 1038 q 463 1078 428 1070 q 531 1086 497 1086 q 618 1073 572 1086 q 701 1032 663 1060 q 763 960 739 1004 q 787 857 787 917 q 770 734 787 785 q 726 646 753 684 q 665 579 699 608 q 597 523 631 550 q 532 465 563 495 q 482 396 502 435 m 506 130 q 505 116 506 127 q 501 91 505 105 q 489 61 497 77 q 467 31 481 45 q 431 9 453 18 q 378 0 410 0 q 333 6 353 0 q 298 26 313 13 q 275 60 283 39 q 267 110 267 81 q 274 158 267 134 q 296 199 281 181 q 335 229 311 218 q 391 239 359 239 q 477 211 448 239 q 506 130 506 182 z "},"@":{"ha":1520,"x_min":76,"x_max":1450,"o":"m 1008 698 q 975 704 992 702 q 942 707 958 707 q 857 684 899 707 q 779 626 816 662 q 710 542 741 589 q 656 445 679 495 q 621 347 633 395 q 608 260 608 299 q 630 181 608 209 q 696 154 651 154 q 754 166 727 154 q 805 200 782 179 q 848 246 829 220 q 882 298 867 272 q 906 350 897 325 q 919 392 916 374 l 1008 698 m 76 146 q 92 304 76 223 q 139 464 109 385 q 215 618 170 543 q 315 760 259 693 q 438 882 371 826 q 580 978 505 938 q 739 1041 656 1019 q 911 1063 822 1063 q 1043 1052 977 1063 q 1168 1016 1108 1040 q 1279 955 1228 992 q 1369 864 1331 917 q 1428 744 1407 812 q 1450 590 1450 675 q 1449 554 1450 572 q 1446 517 1449 536 q 1421 417 1440 471 q 1373 310 1402 363 q 1304 207 1343 256 q 1217 120 1265 157 q 1115 59 1170 82 q 1000 37 1060 37 q 970 42 985 37 q 943 60 955 47 q 923 98 930 74 q 916 159 916 121 q 918 194 916 176 q 924 234 920 212 q 866 142 899 182 q 798 76 834 103 q 722 35 761 49 q 644 22 683 22 q 559 37 600 22 q 488 81 519 52 q 439 154 457 111 q 420 256 420 198 q 439 382 420 315 q 492 513 458 448 q 575 638 526 578 q 684 743 623 697 q 815 815 744 788 q 964 842 886 842 q 989 839 979 842 q 1003 833 998 837 q 1009 825 1008 829 q 1010 819 1010 821 q 1010 814 1010 816 q 1010 811 1010 812 l 1010 808 q 1043 800 1025 802 q 1076 798 1060 799 q 1107 793 1093 796 q 1133 779 1122 789 q 1151 747 1144 768 q 1157 690 1157 726 q 1151 629 1157 663 q 1136 557 1145 595 q 1116 482 1127 520 q 1093 407 1104 444 q 1073 339 1082 371 q 1059 283 1064 307 q 1050 231 1050 252 q 1055 205 1050 215 q 1072 196 1060 196 q 1122 211 1097 196 q 1170 253 1147 227 q 1214 315 1194 279 q 1249 392 1234 351 q 1272 477 1263 433 q 1280 564 1280 521 q 1252 736 1280 666 q 1173 851 1223 807 q 1055 914 1122 895 q 911 933 988 933 q 731 898 816 933 q 575 803 646 863 q 448 667 504 744 q 352 506 391 590 q 292 337 313 422 q 271 177 271 252 q 292 68 271 117 q 361 -15 313 20 q 485 -68 408 -50 q 673 -87 562 -87 q 959 -62 835 -87 q 1175 5 1084 -37 q 1204 12 1191 12 q 1223 6 1215 12 q 1237 -8 1232 1 q 1245 -28 1242 -17 q 1247 -51 1247 -39 q 1242 -84 1247 -68 q 1227 -106 1236 -100 q 1083 -174 1162 -144 q 923 -222 1005 -203 q 760 -251 841 -241 q 608 -260 678 -260 q 376 -230 475 -260 q 210 -145 276 -199 q 110 -17 143 -92 q 76 146 76 58 z "},"A":{"ha":1107,"x_min":87,"x_max":1270,"o":"m 1270 152 q 1233 118 1255 137 q 1184 80 1211 99 q 1124 42 1156 60 q 1059 9 1093 24 q 992 -13 1026 -5 q 928 -22 959 -22 q 884 -14 906 -22 q 844 13 862 -7 q 814 68 826 33 q 803 160 803 104 q 806 211 803 184 q 815 271 810 239 q 729 135 777 194 q 628 37 682 77 q 516 -23 574 -3 q 401 -43 458 -43 q 281 -21 338 -43 q 181 44 224 1 q 112 153 138 88 q 87 305 87 218 q 102 443 87 371 q 146 588 117 515 q 217 733 176 661 q 311 870 258 805 q 427 990 364 935 q 561 1085 490 1045 q 711 1149 632 1126 q 874 1172 789 1172 q 911 1168 897 1172 q 932 1159 925 1164 q 941 1147 939 1153 q 943 1136 943 1141 q 943 1130 943 1133 q 943 1126 943 1127 l 943 1122 q 980 1109 961 1112 q 1017 1105 999 1107 q 1052 1098 1036 1103 q 1080 1077 1068 1093 q 1100 1030 1093 1061 q 1107 947 1107 1000 q 1099 856 1107 907 q 1078 749 1091 805 q 1049 637 1065 694 q 1018 526 1034 580 q 987 425 1002 473 q 962 342 972 378 q 958 287 960 313 q 957 233 957 261 q 958 198 957 212 q 962 176 959 184 q 969 164 964 168 q 981 161 974 161 q 1016 169 995 161 q 1060 187 1036 176 q 1108 212 1083 198 q 1157 240 1134 226 q 1201 265 1181 254 q 1235 284 1221 277 l 1270 152 m 949 1029 q 900 1039 925 1036 q 850 1042 874 1042 q 742 1021 795 1042 q 638 963 688 1000 q 542 878 587 927 q 456 772 496 829 q 385 654 416 715 q 330 533 353 593 q 294 415 307 472 q 282 309 282 357 q 320 161 282 214 q 439 109 359 109 q 535 130 490 109 q 618 185 580 151 q 689 262 657 219 q 746 349 722 305 q 785 434 770 393 q 808 505 801 475 l 949 1029 z "},"B":{"ha":876,"x_min":-124,"x_max":1020,"o":"m 41 902 q -38 782 -3 822 q -94 742 -73 742 q -124 810 -124 742 q -105 930 -124 877 q -52 1024 -86 983 q 30 1094 -18 1065 q 133 1141 77 1122 q 251 1168 189 1160 q 379 1177 313 1177 q 533 1166 456 1177 q 682 1135 610 1155 q 814 1085 753 1114 q 922 1022 876 1057 q 994 946 968 987 q 1020 861 1020 905 q 997 758 1020 809 q 926 666 975 707 q 802 599 878 625 q 621 570 726 572 q 738 549 688 570 q 822 491 788 528 q 873 408 856 455 q 890 308 890 360 q 878 221 890 265 q 844 136 867 177 q 786 60 821 96 q 705 -2 751 24 q 600 -44 659 -28 q 472 -59 542 -59 q 379 -53 428 -59 q 280 -38 330 -47 q 182 -14 231 -28 q 92 15 134 -1 q 58 29 73 20 q 43 63 43 39 q 49 294 43 176 q 73 524 55 412 q 123 739 90 637 q 212 922 157 841 q 299 955 260 955 q 382 899 349 955 q 329 806 351 857 q 292 697 307 754 q 268 582 277 641 q 253 467 258 523 q 247 399 250 435 q 243 326 245 363 q 240 251 241 288 q 239 180 239 214 q 239 165 239 175 q 241 146 239 156 q 245 127 242 136 q 253 115 248 119 q 342 92 294 101 q 437 82 389 82 q 549 96 494 82 q 645 140 603 110 q 712 217 687 170 q 738 332 738 264 q 723 397 738 371 q 684 441 708 423 q 629 469 660 458 q 566 488 598 479 q 503 505 534 496 q 448 525 472 513 q 409 556 424 538 q 394 605 394 575 q 396 630 394 619 q 404 647 397 640 q 423 657 410 654 q 457 661 435 661 q 510 658 486 661 q 562 656 534 656 q 680 672 627 656 q 769 715 732 688 q 826 778 806 742 q 846 856 846 814 q 831 906 846 883 q 787 946 815 928 q 721 978 759 964 q 638 1001 683 991 q 544 1014 593 1010 q 444 1019 494 1019 q 316 1011 379 1019 q 200 990 254 1004 q 104 953 146 975 q 41 902 62 931 z "},"C":{"ha":977,"x_min":65,"x_max":1198,"o":"m 1198 229 q 1133 192 1164 215 q 1070 140 1102 168 q 1004 82 1038 113 q 930 21 970 51 q 844 -37 890 -9 q 740 -85 797 -64 q 615 -118 684 -106 q 465 -130 547 -130 q 299 -93 373 -130 q 174 6 226 -56 q 93 152 121 69 q 65 327 65 235 q 79 461 65 389 q 118 607 92 532 q 180 755 143 681 q 263 897 216 829 q 365 1022 309 964 q 484 1123 420 1080 q 616 1191 547 1166 q 762 1215 686 1215 q 861 1198 810 1215 q 951 1145 911 1181 q 1016 1054 991 1109 q 1042 924 1042 999 q 1026 823 1042 874 q 982 725 1010 772 q 917 636 954 677 q 836 565 879 595 q 745 517 792 534 q 652 499 699 499 q 559 516 590 499 q 529 564 529 532 q 529 576 529 569 q 528 592 528 584 q 530 617 528 604 q 535 642 531 631 q 547 659 539 652 q 568 666 555 666 q 583 664 576 666 q 596 659 589 661 q 614 653 604 656 q 641 651 625 651 q 729 670 684 651 q 809 724 773 689 q 867 806 844 758 q 890 911 890 854 q 882 969 890 942 q 855 1018 873 997 q 808 1051 837 1038 q 738 1063 779 1063 q 643 1042 689 1063 q 553 984 596 1021 q 472 897 511 947 q 401 790 434 847 q 343 670 369 732 q 298 547 317 608 q 270 427 280 485 q 260 320 260 369 q 278 198 260 250 q 327 112 295 146 q 405 60 359 77 q 509 43 451 43 q 643 61 581 43 q 761 109 705 79 q 870 174 817 138 q 975 248 922 211 q 1082 318 1027 285 q 1198 375 1137 352 l 1198 229 z "},"D":{"ha":863,"x_min":-83,"x_max":955,"o":"m 372 1177 q 569 1159 483 1177 q 720 1108 655 1141 q 829 1030 785 1076 q 902 932 874 985 q 942 819 930 879 q 955 697 955 760 q 936 524 955 612 q 881 354 917 436 q 792 200 845 272 q 672 75 740 128 q 523 -10 604 21 q 347 -41 441 -41 q 282 -36 315 -41 q 218 -23 249 -31 q 159 -5 186 -15 q 110 16 131 5 q 96 23 101 19 q 88 32 91 26 q 85 44 85 37 q 84 63 84 52 q 90 294 84 176 q 113 524 96 412 q 164 739 131 637 q 252 922 197 841 q 340 955 300 955 q 422 899 389 955 q 370 806 391 857 q 335 697 349 754 q 311 582 321 641 q 294 467 302 523 q 278 360 284 404 q 268 282 271 315 q 262 224 264 249 q 260 175 260 199 q 262 133 260 150 q 270 106 264 116 q 290 91 277 96 q 326 87 303 87 q 454 114 393 87 q 567 185 515 140 q 660 290 618 231 q 729 416 701 350 q 774 552 758 483 q 789 684 789 621 q 764 825 789 763 q 691 930 738 887 q 580 996 645 973 q 437 1019 515 1019 q 324 1012 380 1019 q 220 991 268 1005 q 136 955 172 977 q 81 902 100 932 q 0 784 32 825 q -54 742 -32 742 q -83 810 -83 742 q -66 930 -83 877 q -18 1024 -49 983 q 55 1094 13 1065 q 148 1141 98 1122 q 256 1168 199 1160 q 372 1177 313 1177 z "},"E":{"ha":846,"x_min":43,"x_max":1040,"o":"m 1002 170 q 878 67 947 111 q 734 -6 809 24 q 582 -50 659 -35 q 432 -65 505 -65 q 281 -46 352 -65 q 158 11 211 -28 q 74 107 105 49 q 43 247 43 166 q 68 378 43 315 q 145 490 93 441 q 278 569 197 539 q 472 602 359 599 q 342 623 397 602 q 250 681 286 644 q 195 765 213 717 q 176 868 176 814 q 194 961 176 919 q 242 1037 212 1003 q 315 1095 273 1070 q 407 1137 357 1120 q 510 1162 456 1154 q 618 1171 564 1171 q 774 1153 698 1171 q 909 1101 850 1136 q 1004 1015 968 1067 q 1040 894 1040 963 q 1023 846 1040 869 q 983 803 1006 822 q 935 773 960 785 q 892 762 909 762 q 878 787 878 762 q 885 845 878 810 q 909 933 892 880 q 856 963 891 948 q 776 990 821 978 q 682 1010 732 1002 q 583 1018 631 1018 q 496 1010 537 1018 q 423 983 454 1002 q 373 934 391 964 q 354 859 354 903 q 367 797 354 822 q 402 754 380 772 q 453 725 425 736 q 512 705 481 714 q 572 688 543 696 q 626 670 602 680 q 668 644 651 659 q 690 607 685 629 q 693 578 692 593 q 694 550 694 564 q 680 495 694 512 q 625 477 666 477 q 581 479 607 477 q 531 481 555 481 q 425 468 477 481 q 331 426 372 454 q 264 358 290 399 q 239 264 239 318 q 253 180 239 214 q 293 125 268 146 q 353 96 319 104 q 428 87 388 87 q 529 96 476 87 q 634 122 582 106 q 737 162 687 139 q 829 211 787 184 q 905 266 872 237 q 955 323 937 294 l 1002 170 z "},"F":{"ha":933,"x_min":87,"x_max":1468,"o":"m 444 822 q 443 812 444 821 q 435 795 442 804 q 413 778 429 785 q 369 770 398 770 q 308 775 330 770 q 275 787 286 779 q 262 805 264 795 q 260 825 260 814 q 311 998 260 926 q 453 1116 361 1070 q 674 1184 545 1162 q 958 1206 802 1206 q 1174 1199 1061 1206 q 1407 1175 1286 1192 q 1454 1148 1441 1166 q 1468 1111 1468 1131 q 1464 1084 1468 1098 q 1453 1057 1460 1069 q 1433 1037 1445 1045 q 1403 1029 1420 1029 q 1397 1030 1400 1029 q 1391 1031 1394 1030 q 1295 1044 1347 1038 q 1187 1054 1244 1050 q 1071 1059 1131 1057 q 949 1061 1011 1061 q 906 1059 931 1061 q 857 1054 880 1057 q 800 1047 829 1051 q 799 1030 800 1040 q 795 1004 798 1021 q 788 960 792 987 q 779 892 785 934 q 767 791 774 850 q 752 651 760 732 l 1128 651 q 1154 645 1145 651 q 1166 628 1162 638 q 1171 607 1171 618 q 1172 586 1172 596 q 1158 537 1172 553 q 1128 521 1143 521 q 1097 520 1124 521 q 1033 517 1071 519 q 949 514 995 516 q 862 511 904 513 q 784 509 819 510 q 732 508 749 508 q 704 350 720 426 q 665 208 688 274 q 610 87 642 142 q 534 -5 578 33 q 432 -65 490 -44 q 300 -87 374 -87 q 262 -85 284 -87 q 217 -78 241 -83 q 170 -65 193 -73 q 128 -46 146 -58 q 98 -19 110 -35 q 87 16 87 -4 q 91 42 87 26 q 105 75 96 59 q 128 102 114 90 q 161 113 142 113 q 209 106 184 113 q 260 89 233 98 q 314 73 286 80 q 370 65 342 65 q 414 83 393 65 q 453 133 435 101 q 489 207 472 164 q 521 298 506 249 q 549 401 536 347 q 572 508 562 454 l 489 508 q 460 511 477 508 q 428 520 444 513 q 401 537 412 526 q 391 564 391 548 q 397 586 391 576 q 417 601 403 596 q 484 615 455 609 q 534 626 512 621 q 573 633 556 630 q 604 639 590 637 q 630 765 621 711 q 646 862 640 819 q 659 945 653 906 q 673 1027 665 983 q 571 986 614 1010 q 499 935 528 962 q 457 879 471 908 q 444 822 444 850 z "},"G":{"ha":1042,"x_min":65,"x_max":1042,"o":"m 1042 231 q 1033 68 1042 153 q 1003 -98 1023 -17 q 949 -252 983 -180 q 867 -380 916 -325 q 752 -467 818 -435 q 603 -499 687 -499 q 566 -497 587 -499 q 520 -490 544 -495 q 473 -478 496 -486 q 431 -458 450 -470 q 401 -432 413 -447 q 390 -397 390 -416 q 394 -370 390 -387 q 408 -338 399 -353 q 431 -311 417 -322 q 465 -299 445 -299 q 508 -307 487 -299 q 551 -323 529 -314 q 598 -340 574 -332 q 651 -347 623 -347 q 714 -315 683 -347 q 772 -230 745 -282 q 822 -113 800 -178 q 861 17 845 -48 q 792 -40 828 -13 q 709 -86 755 -66 q 603 -118 663 -106 q 465 -130 543 -130 q 299 -93 373 -130 q 174 6 226 -56 q 93 152 121 69 q 65 327 65 235 q 94 556 65 447 q 174 760 123 666 q 294 930 224 854 q 443 1060 363 1006 q 611 1144 523 1114 q 787 1173 699 1173 q 887 1157 841 1173 q 968 1106 934 1141 q 1022 1019 1002 1072 q 1041 892 1041 966 q 1034 836 1041 864 q 1012 779 1027 808 q 970 734 990 747 q 931 721 949 721 q 905 728 917 721 q 884 748 892 736 q 870 775 875 760 q 865 807 865 791 q 869 832 865 820 q 877 857 873 844 q 886 882 882 869 q 890 909 890 895 q 860 1011 890 977 q 785 1045 830 1045 q 670 1022 730 1045 q 551 957 609 1000 q 440 851 492 913 q 347 707 387 788 q 284 529 307 627 q 260 320 260 432 q 278 198 260 250 q 327 112 295 146 q 405 60 359 77 q 509 43 451 43 q 706 72 616 43 q 876 153 796 101 q 885 192 881 174 q 889 227 889 211 q 884 259 889 247 q 869 276 878 271 q 847 283 860 282 q 821 285 835 285 q 775 292 795 285 q 743 309 756 298 q 722 334 729 320 q 715 363 715 349 q 722 390 715 377 q 742 414 728 404 q 776 430 755 424 q 825 437 797 437 q 933 423 890 437 q 999 383 975 410 q 1033 318 1023 357 q 1042 231 1042 280 z "},"H":{"ha":1432,"x_min":240,"x_max":1548,"o":"m 1219 509 q 1181 353 1196 425 q 1167 228 1167 281 q 1186 156 1167 182 q 1251 130 1206 130 q 1291 139 1267 130 q 1345 170 1315 149 q 1414 224 1376 191 q 1497 304 1451 258 q 1506 285 1499 300 q 1521 246 1511 272 q 1548 174 1531 220 q 1446 80 1497 121 q 1347 12 1395 39 q 1254 -30 1298 -16 q 1172 -43 1209 -43 q 1093 -27 1129 -43 q 1029 19 1056 -12 q 987 94 1002 50 q 971 195 971 138 q 975 245 971 215 q 987 313 979 275 q 1006 396 995 351 q 1031 491 1017 441 q 857 473 940 481 q 690 458 773 465 q 653 346 671 401 q 617 244 634 292 q 585 156 600 196 q 560 89 570 117 q 495 -13 527 17 q 439 -43 464 -43 q 407 -37 422 -43 q 379 -22 391 -32 q 360 3 367 -12 q 353 35 353 17 q 355 56 353 45 q 417 256 384 159 q 486 444 451 353 q 414 450 448 444 q 351 470 380 456 q 299 509 321 484 q 261 573 276 534 q 257 595 258 585 q 255 614 255 604 q 276 644 255 644 q 304 630 289 644 q 345 585 320 616 q 408 587 376 587 q 477 588 440 588 l 542 588 q 588 710 566 651 q 629 825 610 768 q 648 897 641 861 q 654 965 654 932 q 650 1014 654 991 q 634 1052 645 1036 q 606 1076 623 1067 q 564 1085 589 1085 q 517 1078 544 1085 q 458 1056 490 1072 q 387 1016 425 1041 q 304 955 349 991 q 275 937 288 942 q 251 931 262 931 q 243 949 245 931 q 240 994 240 967 q 257 1061 240 1029 q 301 1119 273 1093 q 365 1168 329 1146 q 440 1205 401 1190 q 516 1229 478 1221 q 586 1237 554 1237 q 677 1224 633 1237 q 753 1183 720 1211 q 805 1109 786 1154 q 825 998 825 1063 q 818 924 825 968 q 798 827 810 880 q 769 715 786 774 q 734 594 753 656 q 891 604 804 599 q 1067 613 979 608 q 1143 847 1101 726 q 1232 1085 1185 968 q 1273 1147 1247 1124 q 1333 1170 1298 1170 q 1360 1166 1347 1170 q 1383 1153 1373 1162 q 1399 1132 1394 1145 q 1405 1101 1405 1118 q 1403 1064 1405 1085 q 1392 1020 1401 1044 q 1359 930 1377 978 q 1323 832 1341 882 q 1288 728 1305 781 q 1253 623 1270 675 q 1328 628 1296 626 q 1376 632 1360 631 q 1390 633 1383 633 q 1402 633 1396 633 q 1435 629 1422 633 q 1454 618 1447 625 q 1464 600 1461 610 q 1467 577 1467 590 q 1461 553 1467 563 q 1446 538 1455 544 q 1426 530 1436 532 q 1407 527 1416 528 q 1380 524 1388 525 q 1369 523 1372 523 q 1364 522 1365 522 q 1359 521 1363 522 q 1345 520 1355 521 q 1314 517 1335 519 q 1266 513 1289 515 q 1219 509 1242 511 z "},"I":{"ha":585,"x_min":-68,"x_max":783,"o":"m 210 952 q 207 951 207 951 q 203 975 205 951 q 201 1040 201 999 q 209 1061 201 1048 q 234 1089 216 1074 q 280 1119 252 1104 q 353 1146 309 1134 q 456 1166 397 1158 q 593 1173 515 1173 q 698 1167 661 1173 q 755 1150 736 1160 q 778 1125 774 1139 q 783 1097 783 1112 q 779 1068 783 1082 q 762 1043 776 1054 q 719 1025 747 1031 q 641 1018 690 1018 q 596 1020 618 1018 q 563 888 577 946 q 537 780 549 829 q 516 688 526 731 q 497 600 507 644 q 476 508 487 556 q 451 401 465 460 q 419 271 437 343 q 376 106 400 199 q 394 105 380 106 q 428 100 409 104 q 468 92 447 97 q 507 78 490 86 q 536 59 525 70 q 548 34 548 48 q 499 -22 548 5 q 453 -22 485 -22 q 379 -22 422 -22 q 287 -22 336 -22 q 188 -22 237 -22 q 92 -22 138 -22 q 10 -21 45 -22 q -46 -20 -25 -21 q -68 -18 -68 -20 q -61 -12 -68 -16 q -47 0 -55 -7 q -31 20 -39 8 q -22 48 -24 31 q 1 70 -20 60 q 54 89 23 81 q 118 103 84 98 q 179 111 153 109 q 221 288 200 199 q 263 462 243 377 q 304 627 284 547 q 343 777 324 707 q 380 905 362 846 q 413 1006 397 963 q 369 1001 388 1004 q 335 995 350 998 q 307 987 320 991 q 279 978 294 983 q 249 967 265 973 q 210 952 232 960 z "},"J":{"ha":1324,"x_min":391,"x_max":1519,"o":"m 391 -174 q 426 13 391 -82 q 525 194 460 109 q 680 346 589 279 q 883 447 771 412 q 775 545 825 494 q 688 651 725 597 q 629 759 650 705 q 608 868 608 814 q 623 1000 608 937 q 665 1115 638 1062 q 728 1212 692 1168 q 807 1285 765 1255 q 895 1331 849 1315 q 987 1348 941 1348 q 1104 1316 1048 1348 q 1205 1217 1161 1285 q 1276 1042 1249 1149 q 1302 781 1302 934 q 1294 571 1302 671 q 1272 381 1286 472 q 1355 331 1313 355 q 1441 282 1398 307 q 1463 269 1450 277 q 1489 253 1476 262 q 1510 236 1501 245 q 1519 221 1519 228 q 1513 208 1519 214 q 1500 196 1508 201 q 1484 186 1492 190 q 1472 180 1476 182 q 1442 174 1461 174 q 1353 189 1404 174 q 1242 229 1302 203 q 1170 -1 1212 103 q 1079 -188 1128 -105 q 974 -332 1029 -271 q 862 -434 919 -393 q 750 -495 806 -475 q 642 -515 694 -515 q 543 -494 589 -515 q 463 -429 497 -472 q 410 -322 429 -386 q 391 -174 391 -258 m 564 -217 q 591 -322 564 -286 q 662 -357 618 -357 q 763 -318 707 -357 q 877 -196 820 -279 q 986 13 934 -114 q 1074 315 1038 140 l 1048 330 q 917 283 979 317 q 800 203 854 250 q 703 102 746 157 q 628 -9 659 47 q 581 -120 597 -66 q 564 -217 564 -174 m 781 911 q 805 804 781 857 q 871 697 829 750 q 973 593 914 645 q 1103 492 1032 542 q 1122 690 1115 586 q 1128 911 1128 794 q 1118 1047 1128 991 q 1091 1137 1108 1102 q 1050 1186 1074 1171 q 1001 1202 1027 1202 q 950 1190 976 1202 q 900 1156 924 1177 q 854 1106 876 1135 q 816 1045 832 1078 q 791 979 800 1013 q 781 911 781 945 z "},"K":{"ha":1302,"x_min":84,"x_max":1516,"o":"m 832 1015 q 820 896 825 956 q 811 785 815 835 q 803 673 806 727 q 933 677 873 673 q 1040 694 992 681 q 1125 732 1088 707 q 1187 798 1162 757 q 1224 899 1212 839 q 1237 1042 1237 958 q 1237 1096 1237 1076 q 1245 1126 1238 1116 q 1270 1142 1252 1137 q 1324 1150 1288 1147 q 1367 1143 1350 1150 q 1393 1126 1383 1136 q 1405 1105 1402 1116 q 1409 1088 1408 1095 q 1410 1047 1410 1072 q 1411 1000 1409 1021 q 1401 860 1411 923 q 1368 745 1391 796 q 1308 656 1345 694 q 1215 593 1270 618 q 1084 555 1159 568 q 911 543 1009 543 q 986 356 952 437 q 1052 220 1019 275 q 1118 137 1084 165 q 1194 109 1152 109 q 1251 116 1219 109 q 1314 136 1282 123 q 1378 168 1346 149 q 1437 208 1410 186 l 1516 75 q 1503 67 1516 75 q 1467 45 1490 58 q 1412 17 1444 32 q 1343 -12 1381 1 q 1262 -35 1305 -26 q 1176 -43 1220 -43 q 1089 -28 1127 -43 q 1022 14 1052 -13 q 970 76 993 40 q 927 152 947 111 q 889 236 907 193 q 852 323 871 280 q 810 405 833 366 q 760 477 788 445 q 675 240 724 339 q 568 79 627 142 q 440 -14 509 16 q 294 -43 371 -43 q 232 -40 268 -43 q 163 -28 196 -37 q 107 -7 130 -20 q 84 24 84 5 q 93 58 84 43 q 111 89 102 73 q 119 101 113 94 q 134 116 125 109 q 151 128 142 123 q 170 133 161 133 q 176 132 174 133 q 224 115 200 121 q 271 109 248 109 q 381 146 332 109 q 470 248 431 183 q 539 399 509 312 q 592 586 570 486 q 630 794 614 686 q 657 1007 646 901 l 665 1063 q 557 1049 606 1063 q 471 1010 509 1035 q 406 954 433 986 q 360 886 378 922 q 334 814 342 851 q 326 744 326 777 q 323 732 326 741 q 312 716 321 724 q 287 701 304 707 q 241 694 271 694 q 181 701 203 694 q 148 717 159 708 q 134 736 137 726 q 130 753 130 747 l 130 760 q 131 762 130 761 q 179 919 142 853 q 269 1031 216 985 q 388 1104 323 1076 q 517 1147 452 1132 q 643 1167 583 1162 q 749 1172 704 1172 q 792 1166 776 1172 q 819 1150 809 1160 q 831 1129 828 1141 q 835 1107 835 1118 q 834 1057 835 1079 q 832 1015 834 1035 z "},"L":{"ha":673,"x_min":-123,"x_max":803,"o":"m -106 222 q -76 242 -97 228 q -26 275 -55 256 q 35 316 2 294 q 100 362 68 339 l 105 408 q 153 670 120 551 q 232 885 186 789 q 330 1053 277 981 q 438 1173 383 1124 q 548 1245 494 1221 q 648 1270 602 1270 q 711 1257 682 1270 q 760 1218 739 1244 q 791 1154 780 1192 q 803 1063 803 1115 q 784 931 803 1000 q 730 791 765 862 q 646 651 695 721 q 538 515 597 581 q 410 392 479 450 q 267 289 341 334 q 265 223 266 248 q 263 187 264 199 q 263 170 263 174 q 263 162 263 165 q 266 151 263 156 q 275 143 268 146 q 294 138 282 140 q 327 136 307 136 q 409 151 357 136 l 636 216 q 647 218 642 218 q 657 219 652 219 q 686 213 674 219 q 707 195 699 206 q 719 170 715 184 q 723 141 723 156 q 719 115 723 127 q 707 91 715 102 q 686 71 699 79 q 658 60 674 63 q 522 13 591 34 q 459 -4 492 4 q 392 -19 427 -13 q 323 -30 358 -26 q 256 -34 288 -34 q 173 -17 205 -34 q 122 30 141 1 q 96 98 104 60 q 89 180 89 137 q -10 113 31 138 q -62 87 -51 87 q -84 95 -74 87 q -104 116 -95 103 q -118 145 -113 129 q -123 176 -123 161 q -120 202 -123 189 q -106 222 -117 214 m 279 460 q 352 538 314 496 q 426 627 389 581 q 497 722 463 673 q 559 819 532 770 q 605 912 587 867 q 629 998 624 958 q 632 1024 631 1012 q 633 1048 633 1037 q 622 1104 633 1086 q 593 1122 612 1122 q 543 1099 572 1122 q 481 1034 513 1076 q 417 932 450 992 q 357 800 385 873 q 308 640 329 726 q 279 460 288 554 z "},"M":{"ha":1475,"x_min":-38,"x_max":1632,"o":"m 298 66 q 286 33 296 46 q 261 13 275 20 q 231 2 247 5 q 199 -1 214 -1 q 165 3 182 -1 q 136 15 149 7 q 115 34 123 22 q 108 59 108 45 q 111 110 108 87 q 119 157 113 134 q 152 305 138 237 q 176 434 166 373 q 194 552 186 495 q 207 668 201 610 q 218 787 213 726 q 228 920 222 849 q 228 935 228 926 q 226 953 228 945 q 219 968 224 962 q 203 974 214 974 q 164 963 187 974 q 115 932 140 951 q 63 888 89 913 q 16 833 37 863 q 3 819 12 823 q -17 814 -6 814 q -24 820 -20 814 q -31 834 -28 826 q -36 851 -34 842 q -38 868 -38 861 q -35 875 -38 872 q 20 1009 -11 955 q 85 1095 51 1063 q 155 1141 119 1127 q 223 1154 191 1154 q 293 1138 265 1154 q 337 1094 321 1122 q 360 1024 353 1065 q 366 934 366 983 q 360 845 366 896 q 345 738 354 794 q 325 626 336 682 q 304 521 314 570 q 355 694 326 611 q 419 849 385 777 q 494 980 454 922 q 575 1081 533 1039 q 659 1146 616 1123 q 744 1169 702 1169 q 802 1156 775 1169 q 847 1114 828 1142 q 877 1042 866 1085 q 887 939 887 998 q 886 922 887 933 q 883 895 885 910 q 879 863 882 880 q 875 829 877 846 q 863 741 869 788 l 878 741 q 943 922 904 842 q 1029 1058 981 1002 q 1133 1143 1078 1114 q 1249 1173 1189 1173 q 1322 1149 1290 1173 q 1376 1083 1354 1124 q 1409 985 1398 1041 q 1421 867 1421 929 q 1413 747 1421 808 q 1394 626 1405 686 q 1369 508 1382 566 q 1344 399 1356 450 q 1325 303 1333 347 q 1317 228 1317 260 q 1332 170 1317 188 q 1374 152 1346 152 q 1407 160 1390 152 q 1441 183 1424 169 q 1476 215 1459 197 q 1508 252 1493 233 q 1579 351 1544 295 q 1586 337 1579 351 q 1601 298 1590 326 q 1632 218 1612 270 q 1562 117 1598 158 q 1489 49 1526 75 q 1413 12 1451 23 q 1337 0 1375 0 q 1265 13 1300 0 q 1203 51 1230 26 q 1160 114 1176 77 q 1143 201 1143 152 q 1144 212 1143 206 q 1145 224 1144 218 q 1156 321 1147 270 q 1176 427 1165 372 q 1200 537 1187 481 q 1222 649 1212 593 q 1239 760 1232 705 q 1246 865 1246 814 q 1244 920 1246 895 q 1236 962 1242 945 q 1218 989 1230 979 q 1187 998 1206 998 q 1120 973 1152 998 q 1059 904 1088 948 q 1006 800 1031 860 q 959 669 981 739 q 918 522 937 599 q 883 367 899 445 q 852 213 867 289 q 826 69 838 137 q 809 37 821 50 q 784 16 798 24 q 753 4 769 7 q 720 0 736 0 q 692 5 706 0 q 668 23 678 11 q 651 53 657 35 q 644 98 644 71 q 652 158 644 115 q 673 261 661 201 q 700 393 686 321 q 727 539 715 465 q 748 686 740 613 q 756 819 756 758 q 754 895 756 861 q 745 951 752 928 q 723 986 737 974 q 686 998 709 998 q 643 972 667 998 q 590 901 618 947 q 532 794 562 856 q 473 662 503 733 q 416 513 444 591 q 366 358 389 435 q 325 206 342 280 q 298 66 307 132 z "},"N":{"ha":1101,"x_min":-28,"x_max":1318,"o":"m 311 516 q 403 757 357 654 q 492 933 448 860 q 577 1052 536 1006 q 657 1125 618 1099 q 732 1162 696 1152 q 802 1172 768 1172 q 869 1153 842 1172 q 915 1104 897 1134 q 941 1038 933 1074 q 949 968 949 1002 q 943 877 949 927 q 927 772 937 827 q 906 657 918 716 q 885 539 895 597 q 869 424 876 480 q 863 317 863 367 q 864 280 863 300 q 868 240 865 260 q 878 199 871 219 q 896 164 884 180 q 923 139 907 149 q 963 130 940 130 q 1032 146 996 130 q 1103 187 1068 162 q 1170 240 1138 212 q 1225 294 1201 269 q 1263 335 1249 319 q 1277 353 1277 352 l 1318 205 q 1268 148 1296 176 q 1208 93 1240 119 q 1141 45 1177 67 q 1068 7 1105 23 q 993 -19 1031 -9 q 919 -28 956 -28 q 836 -12 871 -28 q 773 33 800 5 q 730 97 747 60 q 702 176 712 134 q 687 260 691 217 q 682 342 682 302 q 691 446 682 395 q 711 546 699 497 q 739 642 724 595 q 766 733 753 689 q 786 820 778 778 q 795 900 795 861 q 793 927 795 910 q 788 960 792 944 q 774 987 783 975 q 748 998 764 998 q 692 973 721 998 q 633 903 663 947 q 572 797 603 858 q 512 664 542 735 q 452 515 481 593 q 395 358 422 437 q 342 202 368 279 q 294 58 316 125 q 250 6 275 21 q 195 -9 225 -9 q 160 -2 177 -9 q 131 20 144 5 q 111 56 118 35 q 103 104 103 77 q 106 156 103 133 q 114 203 109 179 q 145 346 131 280 q 172 471 160 412 q 194 587 184 531 q 212 700 204 643 q 227 816 220 756 q 237 943 233 876 q 237 959 237 949 q 235 977 237 968 q 228 991 233 985 q 213 998 223 998 q 180 985 199 998 q 140 949 161 972 q 98 896 119 926 q 59 830 77 865 q 46 815 55 820 q 26 811 37 811 q 8 817 18 811 q -9 831 -1 823 q -23 848 -18 839 q -28 865 -28 857 q -26 871 -28 869 q 25 1001 -3 948 q 86 1087 54 1055 q 152 1135 119 1120 q 217 1150 185 1150 q 298 1136 265 1150 q 351 1095 331 1121 q 380 1032 372 1069 q 389 951 389 996 q 382 854 389 906 q 361 748 374 803 q 332 635 349 692 q 299 520 316 577 l 311 516 z "},"O":{"ha":1107,"x_min":65,"x_max":1107,"o":"m 503 -130 q 321 -89 402 -130 q 183 27 240 -47 q 96 204 126 101 q 65 429 65 307 q 75 563 65 494 q 103 700 84 631 q 152 833 123 768 q 219 957 180 899 q 304 1064 257 1015 q 409 1149 352 1114 q 533 1205 467 1185 q 675 1225 599 1225 q 857 1188 777 1225 q 992 1086 937 1152 q 1077 929 1048 1020 q 1107 728 1107 838 q 1089 538 1107 637 q 1036 344 1071 439 q 950 163 1002 249 q 831 12 899 77 q 682 -92 764 -54 q 503 -130 600 -130 m 519 35 q 621 56 574 35 q 706 114 667 77 q 778 200 745 151 q 835 305 810 249 q 879 422 860 361 q 909 541 897 482 q 927 655 922 600 q 933 754 933 709 q 919 877 933 819 q 876 976 905 934 q 803 1043 847 1019 q 701 1067 760 1067 q 581 1037 639 1067 q 471 956 522 1007 q 376 837 419 905 q 303 695 334 770 q 256 543 273 621 q 239 395 239 466 q 258 253 239 319 q 314 138 277 186 q 402 63 350 90 q 519 35 454 35 z "},"P":{"ha":977,"x_min":61,"x_max":1107,"o":"m 650 1236 q 849 1205 764 1236 q 992 1123 935 1175 q 1078 1006 1049 1072 q 1107 868 1107 939 q 1081 736 1107 802 q 1003 616 1055 671 q 872 522 951 562 q 687 465 793 481 q 684 374 685 416 q 682 339 683 357 q 681 307 682 321 q 681 281 681 292 q 680 267 680 271 q 669 168 679 219 q 641 68 659 117 q 595 -25 622 19 q 533 -101 568 -68 q 453 -154 497 -134 q 357 -173 409 -173 q 257 -144 301 -173 q 181 -66 214 -115 q 125 46 148 -18 q 88 179 102 110 q 67 319 74 249 q 61 452 61 390 q 81 659 61 559 q 137 846 100 759 q 226 1005 174 933 q 343 1128 278 1077 q 486 1208 409 1180 q 650 1236 563 1236 m 243 470 q 243 395 243 442 q 247 294 243 348 q 258 186 250 241 q 280 86 265 131 q 316 14 294 42 q 372 -14 338 -14 q 431 10 406 -14 q 471 72 455 34 q 497 159 488 111 q 511 256 507 208 q 517 350 516 305 q 519 425 519 394 l 519 457 q 430 496 463 479 q 382 529 398 513 q 361 562 366 545 q 357 602 357 579 q 357 626 357 614 q 361 647 358 638 q 370 662 364 656 q 386 668 376 668 q 398 665 393 668 q 413 658 404 663 q 454 638 435 646 q 485 625 472 630 q 512 617 500 620 q 512 652 512 626 q 516 712 513 678 q 529 782 520 745 q 555 849 538 819 q 599 900 572 880 q 666 920 626 920 q 691 917 678 920 q 714 908 704 915 q 732 891 725 902 q 739 863 739 880 q 739 857 739 859 q 739 852 739 855 l 697 678 l 691 625 q 806 657 758 635 q 885 710 854 680 q 932 777 917 741 q 947 852 947 814 q 933 930 947 890 q 882 1002 918 970 q 786 1056 846 1035 q 634 1077 726 1077 q 510 1051 566 1077 q 411 980 454 1025 q 336 876 368 935 q 283 748 304 816 q 253 609 262 681 q 243 470 243 538 z "},"Q":{"ha":1025,"x_min":65,"x_max":1107,"o":"m 1107 722 q 1093 554 1107 642 q 1051 378 1079 465 q 979 209 1023 290 q 877 63 936 127 q 743 -45 818 -2 q 576 -100 668 -89 q 633 -162 608 -132 q 682 -215 658 -192 q 731 -253 705 -239 q 790 -267 757 -267 q 853 -250 823 -267 q 909 -213 884 -233 q 965 -158 939 -189 q 979 -152 972 -153 q 990 -151 986 -151 q 1020 -165 1008 -155 q 1039 -189 1032 -175 q 1049 -219 1046 -203 q 1053 -249 1053 -235 q 1049 -274 1053 -267 q 1042 -284 1045 -281 q 1029 -297 1041 -285 q 997 -326 1018 -309 q 948 -365 977 -344 q 884 -402 919 -385 q 809 -431 849 -420 q 727 -443 770 -443 q 640 -423 675 -443 q 578 -373 604 -404 q 536 -304 553 -342 q 506 -231 519 -267 q 480 -164 492 -195 q 452 -119 468 -134 q 275 -50 349 -100 q 155 73 202 0 q 87 236 109 145 q 65 426 65 327 q 82 616 65 518 q 134 806 100 713 q 219 981 168 899 q 338 1125 271 1063 q 491 1223 406 1187 q 675 1259 575 1259 q 857 1220 777 1259 q 992 1111 937 1181 q 1077 942 1048 1041 q 1107 722 1107 842 m 519 43 q 615 65 571 43 q 697 123 660 86 q 765 209 734 159 q 819 316 795 259 q 860 433 842 372 q 889 553 878 494 q 906 668 901 612 q 911 768 911 723 q 898 911 911 845 q 857 1026 884 977 q 787 1101 829 1074 q 688 1128 745 1128 q 576 1097 630 1128 q 474 1010 522 1065 q 387 885 427 956 q 320 734 348 814 q 276 573 292 655 q 260 416 260 491 q 278 268 260 336 q 329 150 296 199 q 410 72 362 100 q 519 43 458 43 z "},"R":{"ha":1153,"x_min":43,"x_max":1381,"o":"m 1237 857 q 1226 788 1237 824 q 1193 717 1215 752 q 1136 650 1171 682 q 1052 591 1101 617 q 941 548 1003 566 q 800 526 878 531 q 880 481 848 509 q 933 419 911 453 q 967 347 954 385 q 988 272 979 309 q 1004 202 997 235 q 1021 143 1011 168 q 1046 102 1031 117 q 1086 87 1061 87 q 1136 95 1109 87 q 1193 117 1164 102 q 1250 151 1221 131 q 1302 194 1278 170 l 1381 61 q 1368 53 1381 62 q 1332 30 1355 43 q 1277 -1 1309 16 q 1208 -32 1246 -18 q 1127 -56 1170 -46 q 1041 -65 1085 -65 q 957 -41 991 -65 q 897 24 922 -16 q 857 115 873 64 q 828 220 840 166 q 805 325 816 273 q 782 416 795 376 q 751 480 769 456 q 707 505 734 505 l 665 505 q 631 238 651 356 q 577 39 610 121 q 493 -87 543 -43 q 369 -130 442 -130 q 270 -110 315 -130 q 188 -53 224 -89 q 125 31 152 -17 q 80 135 98 79 q 53 249 62 190 q 43 366 43 308 q 70 572 43 471 q 145 762 96 673 q 264 927 194 852 q 421 1056 334 1002 q 611 1141 508 1111 q 828 1172 713 1172 q 929 1162 879 1172 q 1025 1135 979 1153 q 1109 1089 1070 1116 q 1176 1027 1148 1062 q 1221 949 1204 992 q 1237 857 1237 907 m 816 1020 q 616 989 704 1020 q 462 905 528 958 q 349 782 395 852 q 273 635 302 712 q 230 480 243 559 q 217 330 217 401 q 227 220 217 275 q 256 121 236 165 q 309 49 277 77 q 387 22 341 22 q 427 40 410 22 q 458 88 445 58 q 482 158 472 118 q 499 240 492 197 q 510 326 506 283 q 516 408 514 370 q 519 475 519 446 q 520 520 520 505 q 440 567 467 545 q 412 617 412 589 q 413 633 412 624 q 418 651 414 643 q 428 665 421 659 q 445 671 434 671 q 464 669 450 671 q 494 665 478 667 q 523 661 509 663 q 540 659 536 659 l 541 673 q 543 703 541 684 q 549 744 545 722 q 561 788 553 766 q 581 828 568 810 q 612 857 594 846 q 656 868 630 868 q 701 853 690 868 q 712 814 712 838 l 712 808 q 704 740 711 782 q 691 642 697 697 q 873 664 802 644 q 987 714 945 684 q 1046 781 1029 745 q 1063 851 1063 817 q 1047 915 1063 884 q 1000 969 1031 945 q 923 1006 969 992 q 816 1020 877 1020 z "},"S":{"ha":1149,"x_min":172,"x_max":1141,"o":"m 497 890 q 523 810 497 845 q 592 744 549 774 q 690 687 635 714 q 802 631 745 660 q 914 569 859 602 q 1011 495 968 536 q 1081 401 1055 454 q 1107 282 1107 349 q 1087 170 1107 221 q 1033 78 1067 119 q 952 6 999 37 q 851 -45 905 -25 q 737 -76 797 -66 q 617 -87 677 -87 q 452 -66 532 -87 q 310 -4 372 -45 q 210 101 248 38 q 172 248 172 163 q 186 324 172 291 q 221 379 200 357 q 266 412 241 401 q 311 423 290 423 q 348 411 333 423 q 362 374 362 399 q 359 350 362 363 q 354 322 357 337 q 348 288 351 307 q 345 248 345 270 q 367 166 345 201 q 425 109 389 132 q 507 76 460 87 q 604 65 554 65 q 722 79 663 65 q 828 121 781 94 q 904 190 875 149 q 933 282 933 230 q 907 368 933 330 q 838 438 881 406 q 740 499 795 471 q 628 557 685 528 q 516 618 571 586 q 418 689 461 650 q 349 775 375 728 q 323 884 323 823 q 350 997 323 941 q 433 1096 378 1052 q 571 1166 488 1139 q 765 1194 654 1194 q 903 1173 836 1194 q 1023 1113 970 1152 q 1108 1021 1076 1074 q 1141 902 1141 967 q 1127 823 1141 863 q 1085 738 1114 782 q 1023 674 1057 695 q 962 654 989 654 q 929 666 942 654 q 916 701 916 677 q 924 743 916 719 q 952 798 932 767 q 979 854 970 828 q 988 903 988 880 q 969 963 988 937 q 918 1007 951 989 q 839 1034 885 1025 q 738 1042 793 1042 q 632 1028 677 1042 q 556 992 587 1015 q 512 943 526 970 q 497 890 497 916 z "},"T":{"ha":1042,"x_min":135,"x_max":1353,"o":"m 135 902 q 158 1001 135 959 q 224 1074 182 1044 q 326 1123 267 1103 q 456 1153 385 1142 q 609 1168 528 1164 q 777 1172 690 1172 q 1024 1162 895 1172 q 1294 1128 1154 1153 q 1340 1103 1326 1121 q 1353 1064 1353 1086 q 1347 1038 1353 1050 q 1331 1014 1341 1025 q 1307 997 1320 1003 q 1278 990 1293 990 q 1170 996 1226 990 q 1052 1008 1113 1001 q 925 1021 990 1015 q 791 1031 860 1028 q 760 868 779 956 q 718 689 741 781 q 670 508 695 598 q 623 335 646 417 q 579 182 600 252 q 547 62 559 113 q 530 20 541 39 q 505 -14 519 1 q 476 -36 491 -28 q 448 -43 461 -43 q 385 -25 410 -43 q 359 34 359 -7 q 363 62 359 47 q 387 184 372 124 q 421 308 401 243 q 466 446 441 373 q 522 605 491 518 q 588 798 552 692 q 665 1031 623 903 q 592 1025 629 1029 q 520 1016 555 1022 q 455 1002 485 1010 q 402 979 425 993 q 366 947 379 966 q 353 902 353 928 q 351 887 353 901 q 339 858 349 873 q 307 828 329 842 q 244 815 285 815 q 181 829 203 815 q 149 859 159 842 q 135 902 136 878 z "},"U":{"ha":937,"x_min":65,"x_max":1042,"o":"m 846 1063 q 859 1119 848 1098 q 887 1152 870 1140 q 924 1168 903 1164 q 965 1172 945 1172 q 998 1168 983 1172 q 1022 1153 1012 1164 q 1037 1125 1031 1143 q 1042 1080 1042 1107 q 1019 731 1042 892 q 956 438 997 570 q 859 204 916 306 q 733 33 802 102 q 585 -73 664 -37 q 420 -109 505 -109 q 250 -67 319 -109 q 141 43 182 -26 q 82 205 100 113 q 65 399 65 297 q 76 562 65 479 q 102 723 86 645 q 139 872 119 802 q 180 998 160 942 q 207 1059 193 1038 q 233 1092 220 1081 q 258 1104 245 1102 q 285 1107 271 1107 q 331 1104 311 1107 q 364 1095 351 1102 q 385 1076 378 1088 q 391 1042 391 1063 l 391 1037 q 389 1019 390 1029 q 385 998 389 1010 q 363 931 377 973 q 333 834 349 888 q 300 716 317 779 q 269 587 283 653 q 247 455 256 521 q 239 331 239 390 q 249 217 239 270 q 283 126 259 165 q 346 65 307 87 q 441 43 385 43 q 525 67 486 43 q 600 135 565 92 q 666 240 635 179 q 722 374 696 301 q 769 531 748 448 q 805 702 789 614 q 831 882 821 791 q 846 1063 842 974 z "},"V":{"ha":716,"x_min":21,"x_max":899,"o":"m 62 326 q 60 349 62 327 q 55 409 58 372 q 48 495 52 446 q 41 596 45 543 q 34 705 37 650 q 27 811 30 760 q 23 904 24 861 q 21 974 21 946 q 32 1038 21 1015 q 57 1070 42 1060 q 88 1083 72 1081 q 117 1084 104 1084 q 158 1078 142 1084 q 183 1058 174 1071 q 195 1025 192 1044 q 199 983 199 1006 l 229 176 l 670 1024 q 686 1055 675 1040 q 714 1081 698 1070 q 750 1099 730 1093 q 791 1105 770 1105 q 829 1084 815 1105 q 843 1028 843 1063 q 830 963 843 1004 q 796 871 817 922 q 746 762 774 821 q 687 644 718 704 q 624 524 656 583 q 564 412 593 465 q 552 380 556 397 q 548 346 548 363 q 558 296 548 320 q 590 252 568 271 q 644 222 611 233 q 722 211 677 211 q 746 216 733 211 q 774 228 760 220 q 803 246 788 236 q 832 267 818 256 q 899 322 865 291 l 884 182 q 771 110 827 137 q 667 83 715 83 q 585 96 621 83 q 524 132 549 109 q 486 187 499 155 q 473 260 473 220 q 477 304 473 280 q 402 148 437 210 q 335 47 368 85 q 272 -6 302 9 q 212 -22 241 -22 q 145 -9 171 -22 q 104 29 119 5 q 82 86 89 53 q 72 158 75 119 q 67 239 68 197 q 62 326 66 282 z "},"W":{"ha":1627,"x_min":260,"x_max":1784,"o":"m 586 1046 q 575 978 586 1023 q 547 873 564 932 q 510 745 530 814 q 473 605 490 676 q 445 465 456 534 q 434 337 434 396 q 440 247 434 289 q 460 175 447 205 q 494 126 474 144 q 543 109 515 109 q 596 125 570 109 q 647 170 623 141 q 694 237 671 198 q 737 322 716 277 q 776 419 758 368 q 810 521 794 469 q 911 934 867 703 q 931 996 920 971 q 958 1036 942 1021 q 994 1057 973 1051 q 1042 1063 1015 1063 q 1084 1059 1067 1063 q 1111 1046 1101 1054 q 1124 1026 1120 1038 q 1128 1000 1128 1015 q 1123 961 1128 996 q 1109 871 1118 926 q 1091 747 1101 817 q 1073 605 1081 678 q 1059 461 1064 532 q 1053 330 1053 390 q 1058 220 1053 269 q 1073 136 1062 171 q 1100 83 1083 102 q 1142 65 1117 65 q 1221 99 1185 65 q 1286 190 1257 133 q 1339 321 1316 246 q 1380 477 1362 395 q 1412 641 1398 558 q 1434 797 1425 724 q 1448 929 1442 871 q 1455 1021 1453 988 q 1467 1077 1457 1056 q 1494 1109 1478 1098 q 1531 1125 1510 1121 q 1573 1128 1552 1128 q 1604 1125 1590 1128 q 1628 1112 1618 1121 q 1644 1087 1638 1103 q 1649 1048 1649 1072 q 1641 906 1649 983 q 1620 753 1632 830 q 1593 604 1607 677 q 1566 473 1578 532 q 1545 375 1553 415 q 1536 324 1536 335 q 1544 279 1536 298 q 1564 248 1551 260 q 1593 231 1576 236 q 1630 225 1611 225 q 1671 234 1650 225 q 1710 260 1691 243 q 1745 299 1729 276 q 1772 349 1761 321 l 1784 209 q 1680 118 1733 151 q 1580 85 1627 85 q 1538 92 1558 85 q 1503 114 1518 99 q 1478 153 1488 129 q 1463 209 1468 176 q 1391 95 1430 146 q 1308 9 1352 45 q 1216 -46 1264 -26 q 1118 -65 1168 -65 q 1008 -31 1053 -65 q 935 61 963 3 q 894 198 907 119 q 881 366 881 277 q 884 427 881 398 q 890 477 888 455 q 828 219 865 323 q 742 52 791 115 q 628 -38 692 -12 q 486 -65 564 -65 q 400 -36 441 -65 q 329 52 359 -6 q 279 198 298 111 q 260 404 260 286 q 269 551 260 475 q 292 703 277 627 q 330 853 307 779 q 380 998 352 928 q 414 1060 397 1038 q 449 1092 431 1082 q 485 1105 467 1103 q 521 1107 503 1107 q 548 1105 536 1107 q 569 1096 560 1103 q 582 1078 577 1090 q 586 1046 586 1066 z "},"X":{"ha":1150,"x_min":178,"x_max":1345,"o":"m 642 633 q 629 712 637 671 q 611 794 622 753 q 585 872 600 835 q 549 937 570 909 q 502 982 528 965 q 441 998 475 998 q 423 986 437 998 q 391 952 409 974 q 353 903 373 931 q 317 844 334 875 q 297 823 307 823 q 284 832 290 823 q 273 856 278 842 q 265 888 269 870 q 259 922 261 905 q 255 952 256 939 q 254 974 254 966 q 267 1061 254 1024 q 305 1123 281 1099 q 362 1160 330 1147 q 434 1172 395 1172 q 503 1166 468 1172 q 573 1146 538 1161 q 641 1102 608 1131 q 704 1027 674 1074 q 759 915 734 981 q 804 757 785 848 q 874 856 837 807 q 950 950 911 905 q 1026 1033 988 995 q 1098 1100 1064 1072 q 1162 1144 1133 1128 q 1215 1160 1192 1160 q 1253 1144 1236 1160 q 1283 1104 1271 1129 q 1303 1048 1296 1080 q 1310 983 1310 1016 q 1274 885 1310 918 q 1181 852 1238 852 q 1171 860 1174 852 q 1168 880 1168 868 q 1167 905 1167 891 q 1167 930 1168 919 q 1164 950 1166 942 q 1155 958 1161 958 q 1122 944 1141 958 q 1079 905 1103 930 q 1028 848 1055 881 q 971 776 1000 814 q 912 695 942 737 q 854 611 883 653 q 890 460 876 530 q 916 335 905 391 q 939 237 928 279 q 964 166 949 195 q 1001 122 979 137 q 1055 108 1022 108 q 1147 149 1096 108 q 1258 282 1198 189 q 1281 292 1268 292 q 1304 285 1293 292 q 1325 266 1316 277 q 1340 239 1334 254 q 1345 210 1345 224 q 1331 174 1345 189 q 1240 80 1286 121 q 1151 12 1194 39 q 1067 -30 1107 -16 q 995 -43 1027 -43 q 926 -36 957 -43 q 871 -8 896 -28 q 824 48 846 12 q 783 139 803 83 q 743 272 763 194 q 701 455 724 350 q 564 250 628 345 q 509 168 537 209 q 457 90 481 126 q 412 24 432 53 q 381 -21 393 -5 q 335 -57 365 -43 q 271 -71 304 -71 q 201 -52 224 -71 q 178 -3 178 -33 q 210 74 178 33 q 251 125 224 92 q 311 199 277 158 q 383 288 345 241 q 459 381 421 335 q 531 469 497 427 q 592 544 566 511 q 634 594 618 576 q 648 612 649 613 l 642 633 z "},"Y":{"ha":998,"x_min":153,"x_max":1116,"o":"m 764 343 q 663 211 708 267 q 582 113 618 154 q 514 46 545 73 q 454 4 483 19 q 399 -18 426 -12 q 342 -24 372 -24 q 287 -12 315 -24 q 236 17 259 1 q 197 49 213 33 q 178 73 181 65 q 171 89 174 79 q 168 110 168 99 q 172 128 168 120 q 189 136 177 136 q 199 134 193 136 q 240 114 220 120 q 278 108 260 108 q 370 126 329 108 q 443 172 410 144 q 501 237 475 201 q 547 310 527 273 q 584 380 568 347 q 613 437 600 414 q 564 556 589 497 q 512 669 539 615 q 457 769 485 723 q 399 849 429 815 q 339 903 370 884 q 278 922 309 922 q 252 918 262 922 q 237 907 242 914 q 229 892 231 901 q 227 874 227 883 q 229 854 227 864 q 230 836 230 844 q 224 822 230 825 q 211 819 218 819 q 186 836 197 819 q 168 879 176 852 q 157 941 161 906 q 153 1013 153 976 q 159 1037 153 1025 q 178 1059 165 1049 q 211 1076 191 1069 q 260 1082 231 1082 q 401 1043 337 1082 q 520 937 465 1004 q 623 779 575 869 q 715 586 670 688 q 792 729 755 659 q 860 860 829 799 q 916 970 891 921 q 957 1050 941 1019 q 989 1076 966 1066 q 1040 1086 1013 1086 q 1067 1082 1054 1086 q 1092 1069 1081 1078 q 1109 1046 1102 1061 q 1116 1011 1116 1031 q 1098 941 1116 983 q 1054 848 1082 905 q 988 721 1026 791 q 903 571 949 650 q 804 410 856 491 l 764 343 z "},"Z":{"ha":695,"x_min":-32,"x_max":878,"o":"m 431 890 q 367 902 395 895 q 317 918 339 910 q 278 931 296 926 q 246 937 261 937 q 222 932 234 937 q 199 913 211 926 q 174 878 187 900 q 146 823 161 856 q 108 766 127 781 q 74 751 88 751 q 56 762 61 751 q 50 792 50 773 q 51 808 50 800 q 54 827 52 817 q 88 969 65 914 q 139 1055 111 1024 q 197 1097 167 1086 q 253 1107 227 1107 q 312 1099 283 1107 q 371 1079 341 1090 q 433 1059 401 1068 q 498 1049 465 1050 q 546 1048 524 1048 q 587 1048 568 1048 q 685 1050 649 1048 q 741 1053 722 1051 q 767 1055 760 1054 q 777 1057 774 1057 q 818 1038 805 1057 q 830 986 830 1019 q 829 965 830 976 q 825 941 827 954 q 815 929 824 938 q 787 909 807 920 q 643 755 709 832 q 523 606 576 678 q 427 471 469 534 q 354 357 385 407 q 304 275 323 307 q 277 232 285 242 l 273 216 q 284 211 274 216 q 312 198 295 205 q 351 180 330 190 q 395 163 372 171 q 438 150 417 155 q 475 144 459 144 q 574 156 530 144 q 653 184 617 168 q 717 219 688 201 q 771 252 746 238 q 801 263 786 263 q 830 255 816 263 q 854 234 844 247 q 872 205 865 221 q 878 174 878 189 q 866 137 878 151 q 801 90 842 117 q 709 38 760 62 q 600 -3 658 14 q 484 -20 543 -20 q 452 -15 474 -20 q 392 4 429 -9 q 302 38 355 17 q 182 92 250 60 q 113 48 147 61 q 50 35 79 35 q -9 54 14 35 q -32 106 -32 73 q -15 165 -32 132 q 43 239 3 199 l 541 890 q 509 889 526 890 q 475 888 492 888 q 431 890 453 888 z "},"[":{"ha":629,"x_min":119,"x_max":738,"o":"m 266 960 q 275 994 270 975 q 289 1031 280 1013 q 310 1068 297 1050 q 342 1100 323 1086 q 390 1122 362 1114 q 456 1131 418 1131 l 671 1131 q 701 1123 688 1131 q 722 1105 713 1116 q 734 1082 730 1095 q 738 1059 738 1069 q 729 1029 738 1044 q 708 1003 721 1015 q 679 985 694 992 q 650 979 664 979 l 456 979 q 452 949 456 977 q 441 875 448 922 q 425 767 434 829 q 405 636 416 705 q 384 495 395 568 q 362 354 373 422 q 343 225 352 286 q 327 119 334 164 q 315 47 319 73 q 311 22 311 21 l 505 22 q 527 17 516 22 q 545 5 537 13 q 557 -13 552 -3 q 562 -35 562 -23 q 554 -61 562 -45 q 532 -93 546 -77 q 498 -119 517 -108 q 455 -130 478 -130 l 239 -130 q 179 -122 203 -130 q 143 -101 156 -115 q 124 -71 130 -88 q 119 -36 119 -54 q 123 4 119 -16 q 130 41 127 24 q 155 175 142 102 q 179 323 167 247 q 202 476 191 399 q 222 623 213 553 q 266 960 245 789 z "},"\\":{"ha":846,"x_min":105,"x_max":786,"o":"m 282 1194 q 332 1084 302 1149 q 395 943 361 1019 q 468 783 430 867 q 543 616 505 699 q 615 456 580 534 q 679 313 650 378 q 729 202 708 249 q 760 134 750 155 q 780 79 773 102 q 786 37 786 55 q 765 -11 786 4 q 714 -26 744 -26 q 679 -22 697 -26 q 644 -8 661 -17 q 613 14 627 1 q 588 43 598 27 q 435 369 505 212 q 309 662 366 526 q 207 910 252 798 q 125 1100 161 1021 q 110 1144 115 1124 q 105 1182 105 1165 q 111 1218 105 1202 q 128 1243 117 1233 q 152 1259 138 1254 q 181 1264 166 1264 q 238 1246 210 1264 q 282 1194 266 1229 z "},"]":{"ha":629,"x_min":0,"x_max":618,"o":"m 472 41 q 463 6 468 25 q 449 -31 458 -12 q 428 -68 441 -50 q 395 -100 415 -86 q 348 -122 376 -113 q 282 -130 320 -130 l 73 -130 q 41 -122 55 -130 q 19 -103 28 -115 q 5 -78 9 -92 q 0 -54 0 -65 q 7 -26 0 -40 q 27 -2 15 -13 q 53 15 39 9 q 81 22 67 22 l 282 22 q 286 51 282 23 q 297 125 290 79 q 313 233 304 172 q 333 364 322 295 q 354 505 343 433 q 375 646 365 578 q 395 775 386 715 q 411 882 404 836 q 422 953 418 927 q 427 979 427 979 l 250 979 q 225 984 237 979 q 202 1000 212 990 q 185 1021 192 1009 q 179 1047 179 1034 q 185 1072 179 1057 q 201 1099 191 1086 q 228 1121 212 1112 q 264 1131 244 1131 l 498 1131 q 558 1123 535 1131 q 595 1102 582 1115 q 613 1072 608 1088 q 618 1036 618 1055 q 615 996 618 1017 q 608 960 611 976 q 583 826 595 898 q 559 677 570 753 q 536 524 547 601 q 515 377 525 448 q 472 41 493 211 z "},"^":{"ha":739,"x_min":63,"x_max":694,"o":"m 687 461 q 694 422 694 440 q 688 389 694 404 q 672 365 682 375 q 652 350 663 355 q 633 345 642 345 q 595 355 612 345 q 565 380 578 366 q 543 410 552 394 q 532 435 534 425 l 392 762 l 216 409 q 174 360 197 374 q 132 347 152 347 q 105 352 117 347 q 83 368 92 358 q 68 392 74 378 q 63 421 63 406 q 65 441 63 430 q 73 462 67 452 q 81 477 73 463 q 100 514 88 492 q 126 565 112 536 q 157 622 141 593 q 187 680 172 651 q 214 730 202 708 q 233 767 225 753 q 241 784 241 782 q 310 881 272 851 q 385 911 349 911 q 423 908 404 911 q 461 892 442 904 q 498 860 479 881 q 532 806 516 840 q 610 645 571 732 q 687 461 650 558 z "},"_":{"ha":846,"x_min":-4,"x_max":859,"o":"m 87 0 q 54 4 71 0 q 25 17 38 8 q 4 40 12 26 q -4 73 -4 54 q 9 115 -4 99 q 45 138 22 130 q 98 149 68 146 q 160 152 127 152 q 235 152 189 152 q 337 152 281 152 q 455 152 393 152 q 578 153 517 153 q 698 153 640 153 q 803 153 756 153 q 831 149 820 153 q 848 140 842 146 q 856 126 854 134 q 859 111 859 119 q 851 67 859 87 q 824 32 843 47 q 772 8 804 17 q 692 0 740 0 l 87 0 z "},"`":{"ha":413,"x_min":43,"x_max":343,"o":"m 336 816 q 341 799 340 807 q 343 783 343 791 q 332 750 343 763 q 304 738 320 738 q 280 744 292 738 q 258 763 269 749 q 235 790 249 773 q 205 828 222 807 q 169 871 188 848 q 133 918 151 895 q 98 963 115 941 q 68 1002 81 984 q 43 1067 43 1037 q 52 1105 43 1088 q 75 1134 61 1122 q 106 1153 89 1146 q 142 1160 124 1160 q 179 1149 161 1160 q 206 1116 197 1139 q 264 985 237 1046 q 286 932 275 959 q 308 883 298 906 q 325 843 317 861 q 336 816 332 825 z "},"a":{"ha":629,"x_min":43,"x_max":796,"o":"m 796 166 q 754 115 781 144 q 696 60 728 86 q 626 15 663 33 q 551 -3 589 -3 q 477 25 507 -3 q 425 109 447 54 q 385 71 409 90 q 333 35 361 51 q 275 9 305 19 q 214 -1 244 -1 q 150 12 181 -1 q 96 50 119 25 q 58 110 72 75 q 43 191 43 146 q 58 295 43 241 q 97 400 72 349 q 156 496 122 451 q 231 576 191 542 q 317 630 272 610 q 409 650 362 650 q 433 644 425 650 q 448 630 442 637 q 459 614 454 622 q 473 604 465 607 q 489 599 481 600 q 507 598 498 598 q 522 598 514 598 q 537 599 530 599 q 556 597 547 599 q 572 588 565 595 q 582 569 578 581 q 586 536 586 557 q 579 464 586 503 q 564 382 572 424 q 549 299 556 340 q 543 220 543 257 q 548 170 543 188 q 573 152 554 152 q 603 159 587 152 q 634 178 618 166 q 666 204 650 189 q 696 234 682 218 q 764 317 730 271 l 796 166 m 217 220 q 219 187 217 203 q 228 158 222 171 q 244 138 234 146 q 270 130 254 130 q 315 152 295 130 q 351 204 336 174 q 375 267 366 235 q 387 321 384 300 l 428 521 q 374 507 400 521 q 324 469 347 493 q 281 415 300 446 q 247 351 261 385 q 225 283 233 317 q 217 220 217 250 z "},"b":{"ha":644,"x_min":22,"x_max":799,"o":"m 307 546 q 376 622 345 593 q 439 651 408 651 q 510 633 479 651 q 563 587 541 616 q 596 519 585 557 q 608 440 608 481 q 605 375 608 406 q 595 314 602 344 q 575 256 588 285 q 543 195 563 227 q 592 223 567 210 q 643 253 617 237 q 694 289 668 269 q 747 336 720 309 l 799 224 q 725 165 762 191 q 649 122 688 140 q 567 90 610 103 q 477 65 525 76 q 446 42 466 54 q 406 21 426 31 q 358 0 384 10 l 341 0 q 227 16 283 0 q 124 52 170 32 q 22 103 71 74 q 30 227 24 158 q 45 368 35 287 q 71 549 54 449 q 98 697 81 615 q 136 862 114 779 q 185 1025 158 946 q 247 1166 213 1104 q 320 1265 280 1227 q 406 1302 359 1302 q 488 1284 457 1302 q 536 1237 519 1267 q 559 1166 553 1206 q 564 1079 564 1125 q 540 946 564 1015 q 477 809 516 878 q 391 676 439 741 q 296 553 343 611 l 307 546 m 368 496 q 320 487 344 496 q 276 456 296 477 q 240 403 256 435 q 217 326 224 371 q 207 258 211 289 q 200 203 203 227 q 195 153 197 176 q 240 141 218 146 q 281 134 260 137 q 323 130 303 130 q 365 144 346 130 q 399 180 384 157 q 425 232 414 203 q 442 293 435 261 q 452 355 449 324 q 456 412 456 386 q 452 444 456 429 q 438 471 448 459 q 411 489 429 482 q 368 496 394 496 m 434 1118 q 433 1129 434 1120 q 428 1147 432 1138 q 418 1164 425 1157 q 399 1172 411 1172 q 371 1153 386 1172 q 342 1100 357 1133 q 315 1024 328 1067 q 288 934 301 981 q 264 838 275 887 q 244 746 253 789 q 228 666 235 702 q 217 607 221 629 q 258 680 235 642 q 304 759 281 718 q 349 843 327 800 q 389 931 371 886 q 419 1023 407 977 q 434 1118 431 1069 z "},"c":{"ha":499,"x_min":43,"x_max":661,"o":"m 296 0 q 187 23 234 0 q 108 85 140 46 q 60 174 76 123 q 43 280 43 225 q 52 362 43 319 q 76 446 60 405 q 115 524 92 487 q 169 590 138 562 q 238 634 200 618 q 321 651 276 651 q 393 639 360 651 q 449 606 426 627 q 486 556 473 585 q 499 494 499 528 q 493 449 499 471 q 475 409 487 427 q 446 380 463 391 q 408 369 429 369 q 367 386 376 369 q 357 433 357 403 q 358 458 357 445 q 359 483 359 472 q 355 510 359 499 q 340 521 352 521 q 293 508 313 521 q 259 473 273 494 q 237 425 245 452 q 224 372 229 398 q 218 321 220 345 q 217 281 217 297 q 221 230 217 256 q 238 181 226 203 q 271 145 250 159 q 326 130 292 130 q 397 150 358 130 q 476 201 437 170 q 552 268 516 231 q 614 337 588 304 l 661 258 q 551 129 610 186 q 496 81 526 104 q 434 40 467 58 q 367 11 402 22 q 296 0 332 0 z "},"d":{"ha":727,"x_min":37,"x_max":852,"o":"m 385 513 q 306 455 340 491 q 247 378 271 420 q 212 295 224 337 q 199 219 199 253 q 202 192 199 205 q 214 168 205 178 q 237 150 222 157 q 275 143 252 143 q 299 149 288 143 q 322 165 311 155 q 343 188 333 175 q 361 214 353 200 q 395 284 380 245 q 392 314 393 294 q 390 360 391 335 q 389 413 389 386 q 388 463 388 440 q 387 499 387 485 q 385 513 386 513 m 852 133 q 757 66 804 96 q 715 42 737 54 q 673 21 694 31 q 632 6 652 12 q 595 1 612 1 q 567 5 585 1 q 526 21 548 9 q 482 58 504 34 q 444 121 460 81 q 390 74 418 96 q 332 36 362 52 q 271 10 302 20 q 209 0 240 0 q 133 19 165 0 q 79 70 100 38 q 47 141 58 101 q 37 224 37 181 q 48 312 37 267 q 80 398 59 356 q 132 476 102 439 q 201 542 163 513 q 286 590 240 571 q 382 614 331 609 q 398 785 385 701 q 434 947 412 870 q 487 1088 456 1023 q 553 1201 517 1154 q 629 1275 589 1249 q 713 1302 670 1302 q 768 1285 745 1302 q 804 1241 790 1269 q 824 1178 818 1214 q 830 1103 830 1141 q 828 1054 830 1079 q 795 873 819 958 q 740 707 772 788 q 671 547 708 627 q 598 382 633 468 q 591 359 595 373 q 585 330 588 346 q 580 297 582 314 q 578 265 578 281 q 580 228 578 245 q 588 196 583 210 q 603 174 593 182 q 625 166 612 166 q 653 171 638 166 q 686 185 669 176 q 720 205 703 194 q 753 228 737 216 q 831 290 791 255 l 852 133 m 704 1004 q 708 1080 708 1052 q 702 1131 708 1116 q 683 1145 695 1145 q 644 1117 661 1145 q 612 1047 626 1090 q 589 953 599 1004 q 572 853 578 901 q 561 766 565 805 q 555 711 557 728 q 551 647 553 678 q 549 591 549 616 q 548 547 548 566 q 548 517 548 528 l 548 511 q 619 686 587 599 q 647 765 633 724 q 672 847 661 806 q 692 928 684 888 q 704 1004 701 968 z "},"e":{"ha":534,"x_min":61,"x_max":733,"o":"m 316 0 q 204 23 252 0 q 125 85 157 46 q 77 175 93 124 q 61 283 61 227 q 68 363 61 321 q 91 446 76 406 q 130 524 106 487 q 183 589 153 561 q 253 634 214 617 q 338 650 291 650 q 408 638 376 650 q 465 604 441 626 q 503 551 489 582 q 516 481 516 519 q 495 397 516 439 q 438 317 475 355 q 351 251 401 280 q 241 205 300 222 q 261 175 252 187 q 281 156 271 163 q 303 146 292 149 q 327 144 314 144 q 413 160 368 144 q 500 201 458 176 q 581 254 543 225 q 646 309 619 283 l 733 218 q 606 109 673 156 q 544 68 577 88 q 473 34 510 49 q 396 9 436 18 q 316 0 357 0 m 226 319 q 279 331 250 319 q 333 363 308 344 q 374 406 357 383 q 391 451 391 429 q 380 501 391 481 q 353 521 369 521 q 303 510 323 521 q 268 482 282 499 q 246 443 254 465 q 233 398 237 420 q 227 355 229 376 q 226 319 226 334 z "},"f":{"ha":490,"x_min":46,"x_max":657,"o":"m 46 -26 q 48 16 46 -22 q 54 117 50 54 q 67 262 59 180 q 89 436 75 345 q 120 625 102 528 q 162 813 138 722 q 219 986 187 905 q 291 1127 251 1067 q 379 1223 330 1188 q 486 1259 428 1259 q 535 1251 509 1259 q 581 1224 560 1242 q 616 1176 602 1206 q 630 1101 630 1145 q 617 1009 630 1061 q 582 899 605 958 q 529 776 559 840 q 461 649 498 712 q 384 524 425 585 q 302 409 344 463 l 300 398 q 321 407 314 405 q 335 409 328 409 q 349 407 344 409 q 359 404 355 406 q 368 400 363 401 q 380 398 373 398 q 498 414 447 398 q 585 450 550 430 q 657 502 627 472 l 642 337 q 549 299 597 313 q 458 279 500 286 q 363 269 410 271 q 407 176 387 224 q 438 84 424 135 q 452 -20 452 33 q 450 -45 452 -26 q 444 -94 448 -65 q 433 -157 440 -122 q 413 -227 425 -191 q 385 -295 401 -262 q 345 -353 368 -328 q 293 -394 322 -378 q 226 -410 263 -410 q 161 -393 189 -410 q 113 -347 133 -376 q 80 -280 94 -318 q 60 -199 67 -241 q 49 -112 52 -156 q 46 -26 46 -67 m 227 300 q 221 284 224 300 q 215 245 218 269 q 209 191 212 221 q 204 133 206 161 q 201 79 202 104 q 199 40 199 54 q 203 -119 199 -60 q 213 -208 207 -178 q 225 -248 218 -239 q 240 -257 233 -257 q 277 -236 263 -257 q 298 -183 291 -215 q 308 -112 305 -151 q 310 -39 310 -74 q 306 20 310 -15 q 296 92 302 54 q 281 167 290 130 q 263 234 273 204 q 245 281 254 263 q 227 300 235 300 m 392 1040 q 330 868 353 942 q 296 736 308 793 q 280 634 285 678 q 271 553 275 591 q 354 707 312 631 q 430 847 396 783 q 485 962 464 912 q 507 1037 507 1011 q 496 1089 507 1073 q 469 1106 486 1106 q 421 1089 437 1106 q 392 1040 405 1073 z "},"g":{"ha":629,"x_min":-43,"x_max":796,"o":"m 367 71 q 291 19 330 39 q 214 -1 251 -1 q 150 12 181 -1 q 96 50 119 25 q 58 110 72 75 q 43 191 43 146 q 58 295 43 241 q 97 400 72 349 q 156 496 122 451 q 231 576 191 542 q 317 630 272 610 q 409 650 362 650 q 433 644 425 650 q 448 630 442 637 q 459 614 454 622 q 473 604 465 607 q 489 599 481 600 q 507 598 498 598 q 522 598 514 598 q 537 599 530 599 q 556 597 547 599 q 572 588 565 595 q 582 569 578 581 q 586 536 586 557 q 583 488 586 518 q 576 422 581 458 q 565 344 571 385 q 553 264 559 303 q 521 64 539 170 q 565 92 541 75 q 618 138 589 109 q 683 209 647 166 q 764 317 719 252 l 796 166 q 765 123 784 145 q 722 79 745 101 q 673 36 699 57 q 623 -3 648 16 q 499 -87 566 -46 q 469 -228 486 -159 q 427 -357 451 -297 q 372 -467 403 -417 q 302 -553 341 -517 q 215 -609 263 -589 q 109 -629 167 -629 q 59 -625 85 -629 q 9 -606 32 -620 q -28 -565 -14 -591 q -43 -494 -43 -538 q -28 -426 -43 -464 q 15 -345 -12 -387 q 79 -257 42 -302 q 160 -165 117 -211 q 252 -76 204 -120 q 349 8 300 -32 l 367 71 m 217 220 q 219 187 217 203 q 228 158 222 171 q 244 138 234 146 q 270 130 254 130 q 315 152 295 130 q 351 204 336 174 q 375 267 366 235 q 387 321 384 300 l 428 521 q 374 507 400 521 q 324 469 347 493 q 281 415 300 446 q 247 351 261 385 q 225 283 233 317 q 217 220 217 250 m 117 -499 q 171 -483 145 -499 q 217 -439 196 -466 q 256 -377 239 -412 q 288 -306 274 -342 q 311 -235 301 -270 q 326 -174 320 -201 q 272 -216 299 -191 q 218 -268 244 -240 q 169 -326 192 -296 q 127 -384 145 -356 q 100 -435 110 -411 q 90 -474 90 -458 q 117 -499 90 -499 z "},"h":{"ha":695,"x_min":79,"x_max":831,"o":"m 321 422 q 383 500 349 458 q 455 579 418 543 q 529 639 492 615 q 599 663 566 663 q 617 660 607 663 q 636 649 627 657 q 652 626 646 641 q 658 589 658 612 q 645 499 658 543 q 617 411 632 455 q 589 322 602 368 q 576 227 576 277 q 585 184 576 200 q 606 168 593 168 q 640 174 622 168 q 677 192 659 181 q 713 217 695 203 q 746 245 730 231 q 819 324 783 280 l 831 144 q 800 120 819 134 q 759 90 781 106 q 709 58 736 74 q 656 29 683 41 q 603 8 629 16 q 551 0 576 0 q 487 20 514 0 q 441 71 459 40 q 415 138 424 102 q 406 208 406 175 q 412 256 406 229 q 426 310 418 283 q 445 363 435 337 q 465 409 456 389 q 481 442 474 429 q 490 457 488 455 l 475 459 q 436 421 464 452 q 374 344 409 391 q 303 240 340 298 q 236 120 266 182 q 212 67 221 90 q 193 30 202 44 q 173 7 184 15 q 145 0 162 0 q 110 13 123 0 q 90 47 97 26 q 81 96 83 68 q 79 151 79 123 q 80 270 79 197 q 87 433 81 344 q 102 622 92 523 q 131 818 113 721 q 178 1002 150 914 q 247 1157 206 1090 q 341 1263 287 1223 q 466 1302 395 1302 q 526 1291 503 1302 q 563 1261 549 1280 q 583 1214 577 1241 q 588 1152 588 1186 q 574 1041 588 1102 q 536 914 559 980 q 483 781 513 848 q 422 650 453 713 q 360 530 391 587 q 307 431 330 474 l 321 422 m 381 841 q 439 1016 421 945 q 457 1121 457 1087 q 444 1173 457 1173 q 391 1115 426 1173 q 310 947 357 1057 q 289 870 298 910 q 271 790 279 830 q 257 712 263 751 q 245 640 250 674 q 228 481 234 559 q 268 574 246 524 q 311 674 290 625 q 350 767 332 723 q 381 841 369 810 z "},"i":{"ha":364,"x_min":65,"x_max":499,"o":"m 499 144 q 438 97 475 122 q 360 50 402 71 q 274 14 318 28 q 191 0 231 0 q 132 10 156 0 q 93 37 108 20 q 72 80 78 55 q 65 136 65 106 q 75 236 65 179 q 99 353 85 292 q 129 474 113 414 q 157 585 145 534 q 176 615 162 603 q 209 636 191 628 q 246 647 227 644 q 281 651 265 651 q 319 641 309 651 q 330 612 330 630 q 323 569 330 597 q 306 506 316 541 q 284 429 296 470 q 262 347 273 388 q 245 267 252 306 q 239 197 239 228 q 245 148 239 166 q 273 130 252 130 q 328 147 298 130 q 388 188 357 164 q 448 238 418 212 q 499 282 477 264 l 499 144 m 196 842 q 203 877 196 857 q 225 914 210 897 q 266 943 240 931 q 329 955 291 955 q 374 949 353 955 q 410 933 395 944 q 435 903 426 922 q 444 860 444 885 q 437 815 444 837 q 413 777 429 793 q 372 749 397 760 q 313 739 347 739 q 224 767 253 739 q 196 842 196 795 z "},"j":{"ha":456,"x_min":0,"x_max":586,"o":"m 0 0 q 3 38 0 11 q 11 105 6 66 q 24 191 16 144 q 40 289 31 239 q 59 388 49 338 q 80 480 69 437 q 102 556 91 523 q 124 608 113 589 q 146 632 134 623 q 175 645 159 641 q 207 650 190 649 q 239 651 223 651 q 274 637 263 651 q 284 607 284 623 q 280 581 284 599 q 271 543 277 564 q 260 505 266 523 q 252 477 255 486 l 214 369 q 288 377 252 375 q 365 386 323 380 q 460 408 407 393 q 586 456 513 423 l 586 326 q 496 288 541 301 q 414 269 451 275 q 331 260 372 261 q 361 169 348 216 q 381 78 372 128 q 391 -22 391 28 q 389 -63 391 -31 q 381 -138 387 -95 q 360 -230 374 -182 q 322 -319 347 -279 q 262 -386 298 -359 q 174 -412 226 -412 q 93 -385 126 -412 q 39 -304 60 -357 q 9 -174 18 -251 q 0 0 0 -98 m 194 303 q 164 91 176 198 q 152 -130 152 -16 q 157 -192 152 -168 q 169 -232 161 -217 q 183 -254 176 -248 q 195 -260 190 -260 q 231 -236 218 -260 q 251 -176 244 -212 q 259 -98 257 -140 q 260 -22 260 -56 q 257 23 260 -2 q 250 74 254 47 q 239 127 245 100 q 227 180 233 155 q 194 303 212 240 m 151 842 q 157 877 151 857 q 179 914 164 897 q 220 943 195 931 q 283 955 245 955 q 328 949 307 955 q 365 933 349 944 q 390 903 380 922 q 399 860 399 885 q 391 815 399 837 q 368 777 384 793 q 327 749 351 760 q 267 739 302 739 q 179 767 208 739 q 151 842 151 795 z "},"k":{"ha":672,"x_min":80,"x_max":810,"o":"m 304 379 q 358 448 329 410 q 415 519 387 485 q 467 579 444 553 q 504 615 490 606 q 555 641 525 630 q 623 651 586 651 q 660 642 642 651 q 690 617 677 633 q 710 578 703 601 q 718 526 718 555 q 704 470 718 498 q 670 414 690 442 q 626 357 650 385 q 582 299 602 328 q 548 242 562 271 q 534 185 534 214 q 546 150 534 161 q 583 140 558 140 q 613 149 597 140 q 646 173 629 158 q 680 206 663 188 q 713 243 697 224 q 743 280 729 262 q 769 309 758 297 l 810 143 q 756 86 789 113 q 687 41 724 60 q 609 11 649 22 q 531 0 568 0 q 451 12 482 0 q 403 43 420 24 q 379 88 385 63 q 372 139 372 113 q 376 177 372 155 q 390 229 380 200 q 420 291 401 257 q 469 365 439 326 q 492 387 481 377 q 509 405 502 397 q 521 419 517 412 q 525 433 525 426 q 520 456 525 448 q 505 465 515 465 q 475 450 494 465 q 435 398 457 435 l 236 48 q 204 11 220 21 q 165 0 187 0 q 119 13 136 0 q 94 46 102 25 q 82 96 85 68 q 80 156 80 124 q 83 258 80 195 q 91 398 85 322 q 105 558 96 475 q 127 720 115 642 q 140 788 132 748 q 158 873 147 827 q 185 967 170 918 q 220 1063 200 1017 q 265 1152 240 1109 q 321 1225 290 1194 q 390 1275 353 1257 q 471 1293 427 1293 q 528 1282 506 1293 q 564 1251 551 1271 q 583 1203 577 1231 q 588 1143 588 1175 q 573 1019 588 1085 q 536 885 559 952 q 488 755 514 819 q 437 642 461 692 q 394 556 412 591 q 369 510 375 521 l 288 389 l 304 379 m 437 1141 q 400 1127 416 1141 q 371 1088 385 1114 q 343 1027 357 1063 q 311 947 329 991 q 291 867 300 909 q 275 785 282 826 q 261 704 267 744 q 252 629 256 664 q 235 465 241 545 q 268 562 250 509 q 303 666 286 614 q 335 763 320 717 q 361 840 351 808 q 374 878 366 855 q 393 926 383 900 q 414 979 404 951 q 432 1033 424 1007 q 446 1081 441 1059 q 452 1119 452 1103 q 437 1141 452 1141 z "},"l":{"ha":390,"x_min":65,"x_max":591,"o":"m 238 0 q 170 32 201 0 q 115 119 138 64 q 78 244 92 173 q 65 395 65 316 q 74 526 65 455 q 100 672 83 597 q 140 823 117 747 q 193 969 163 899 q 257 1100 222 1039 q 330 1205 292 1160 q 409 1276 368 1251 q 493 1302 450 1302 q 541 1289 522 1302 q 571 1254 560 1276 q 586 1205 582 1232 q 591 1149 591 1177 q 576 1019 591 1085 q 537 886 562 953 q 479 752 512 819 q 412 619 447 685 q 341 489 376 553 q 274 363 305 425 q 267 346 271 357 q 260 322 263 335 q 253 296 256 310 q 248 268 250 281 l 248 258 q 251 224 248 241 q 260 194 255 208 q 272 173 266 181 q 283 165 278 165 q 313 171 296 165 q 348 185 330 176 q 387 207 367 195 q 425 231 406 218 q 514 296 467 259 l 570 154 q 450 77 509 111 q 397 48 425 62 q 342 24 370 35 q 288 6 314 13 q 238 0 261 0 m 239 543 q 303 665 269 597 q 368 804 338 732 q 421 948 399 876 q 450 1081 444 1019 q 449 1115 450 1101 q 442 1128 448 1128 q 400 1103 422 1128 q 354 1034 377 1078 q 311 933 332 991 q 274 810 290 876 q 248 676 258 745 q 239 543 239 608 z "},"m":{"ha":890,"x_min":65,"x_max":1031,"o":"m 369 127 q 370 152 369 136 q 374 189 372 168 q 380 234 377 210 q 387 280 384 257 q 406 397 395 334 l 395 397 q 377 366 387 387 q 347 307 366 346 q 299 204 328 267 q 222 47 269 142 q 191 10 209 20 q 151 0 173 0 q 106 12 123 0 q 80 44 90 24 q 68 89 71 64 q 65 142 65 115 q 68 208 65 170 q 77 288 72 245 q 90 373 83 330 q 105 457 97 417 q 121 530 113 497 q 136 585 129 564 q 149 619 142 606 q 162 639 155 632 q 181 649 170 646 q 209 651 192 651 q 249 649 235 651 q 271 641 264 648 q 279 623 278 635 q 281 589 281 610 q 280 563 281 578 q 277 531 279 548 q 272 496 275 514 q 267 461 270 478 q 254 378 261 421 l 262 370 q 276 396 263 372 q 309 453 290 420 q 351 523 328 486 q 393 587 373 559 q 435 633 413 614 q 488 651 457 651 q 536 634 516 651 q 557 587 557 618 q 553 537 557 561 q 545 491 550 513 q 534 447 540 469 q 524 404 529 426 q 520 384 521 388 q 519 378 519 380 l 527 370 q 543 396 528 372 q 577 452 557 419 q 622 522 598 486 q 665 587 645 559 q 705 632 685 614 q 753 651 724 651 q 807 634 785 651 q 829 587 829 618 q 824 498 829 541 q 813 416 819 456 q 802 333 807 375 q 798 245 798 292 q 807 185 798 208 q 830 162 817 162 q 860 168 844 162 q 892 184 876 174 q 924 206 908 193 q 954 232 939 218 q 1019 302 987 263 l 1031 142 q 971 93 1001 119 q 909 47 942 68 q 837 13 876 26 q 748 0 798 0 q 707 16 724 0 q 680 60 690 32 q 666 127 670 89 q 661 212 661 166 q 664 302 661 254 q 673 399 667 350 l 663 399 l 525 48 q 486 10 507 20 q 435 0 464 0 q 401 12 414 0 q 381 42 388 24 q 371 83 374 61 q 369 127 369 106 z "},"n":{"ha":629,"x_min":87,"x_max":787,"o":"m 87 142 q 92 245 87 186 q 106 365 98 304 q 124 481 114 425 q 144 578 134 538 q 173 630 151 609 q 231 651 194 651 q 281 629 267 651 q 296 569 296 606 q 294 542 296 559 q 289 504 292 524 q 282 461 286 483 q 276 420 279 439 q 271 388 273 401 q 269 369 269 374 l 282 369 q 295 393 286 376 q 315 431 304 410 q 340 477 327 453 q 365 523 353 501 q 386 562 376 545 q 400 587 395 579 q 450 637 422 624 q 511 651 477 651 q 565 623 545 651 q 585 544 585 594 q 582 519 585 536 q 574 477 579 501 q 564 423 570 452 q 553 363 558 394 q 546 303 549 333 q 543 248 543 273 q 553 179 543 206 q 586 152 564 152 q 609 158 596 152 q 638 174 623 164 q 669 197 653 184 q 701 223 685 210 q 776 295 736 255 l 787 143 l 753 117 q 697 75 726 96 q 637 38 668 54 q 572 11 606 21 q 500 0 538 0 q 438 54 463 0 q 412 212 412 108 q 418 299 412 252 q 431 401 423 347 l 420 401 l 243 48 q 212 10 229 20 q 173 0 195 0 q 128 12 145 0 q 102 44 111 24 q 90 89 93 64 q 87 142 87 115 z "},"o":{"ha":592,"x_min":43,"x_max":764,"o":"m 503 508 q 533 425 523 469 q 543 341 543 381 q 534 260 543 301 q 508 182 525 220 q 468 111 492 144 q 413 53 444 77 q 345 14 382 28 q 267 0 309 0 q 165 26 208 0 q 96 94 123 52 q 56 189 68 136 q 43 296 43 242 q 66 436 43 371 q 130 548 88 500 q 232 624 172 596 q 368 651 292 651 q 488 631 432 651 q 594 577 545 611 q 685 500 643 544 q 764 411 728 457 l 751 315 q 702 368 733 340 q 636 424 671 397 q 567 475 601 451 q 509 515 533 499 l 503 508 m 294 130 q 338 154 317 130 q 376 213 360 177 q 402 291 393 248 q 412 374 412 334 q 408 432 412 405 q 393 478 403 458 q 369 509 384 498 q 333 521 354 521 q 280 497 305 521 q 236 436 255 473 q 206 355 217 399 q 195 269 195 310 q 201 215 195 240 q 218 171 206 190 q 248 141 229 153 q 294 130 267 130 z "},"p":{"ha":579,"x_min":-87,"x_max":747,"o":"m 363 121 q 488 134 432 121 q 590 171 545 148 q 673 225 636 194 q 740 291 710 256 l 747 136 q 695 84 726 109 q 627 41 664 60 q 550 11 591 22 q 471 0 510 0 q 459 1 466 0 q 434 6 452 3 q 384 15 416 9 q 294 29 351 21 l 294 17 q 274 -207 294 -106 q 218 -379 253 -308 q 139 -489 184 -450 q 46 -528 94 -528 q -18 -509 7 -528 q -59 -457 -44 -490 q -81 -382 -75 -425 q -87 -291 -87 -339 q -79 -228 -87 -263 q -55 -155 -70 -193 q -21 -77 -40 -117 q 17 0 -3 -37 q 122 179 63 87 q 137 288 130 232 q 157 395 145 343 q 187 494 169 448 q 233 576 205 541 q 300 631 261 610 q 395 651 340 651 q 473 640 437 651 q 536 604 509 629 q 578 539 563 578 q 594 441 594 499 q 581 352 594 395 q 538 270 567 309 q 465 196 509 231 q 359 135 420 162 l 363 121 m 278 189 q 348 235 319 210 q 399 288 378 260 q 434 347 420 317 q 456 410 448 378 q 460 445 459 425 q 456 482 461 465 q 438 512 451 500 q 404 525 426 525 q 359 511 378 525 q 327 473 340 497 q 303 417 313 450 q 289 347 294 385 q 280 270 283 310 q 278 189 278 229 m 42 -299 q 44 -317 42 -304 q 52 -341 47 -329 q 66 -363 58 -353 q 88 -372 75 -372 q 107 -360 100 -372 q 119 -326 115 -347 q 126 -279 124 -305 q 130 -224 128 -252 q 131 -170 131 -197 q 133 -123 132 -144 q 136 -61 135 -86 q 138 -18 137 -35 q 139 14 138 1 q 114 -38 126 -9 q 91 -100 102 -68 q 71 -163 80 -132 q 56 -223 62 -195 q 46 -270 50 -250 q 42 -299 42 -290 z "},"q":{"ha":564,"x_min":22,"x_max":716,"o":"m 260 109 q 244 106 252 107 q 229 106 237 106 q 144 126 182 106 q 79 179 106 146 q 37 257 52 213 q 22 347 22 300 q 48 467 22 411 q 117 563 74 522 q 214 628 159 604 q 326 651 269 651 q 414 636 377 651 q 474 597 451 622 q 509 541 498 573 q 519 473 519 509 q 518 448 519 461 q 513 423 516 435 q 500 382 507 407 q 485 330 492 357 q 469 275 477 302 q 454 225 460 248 q 444 189 448 203 q 440 174 440 175 q 442 164 439 174 q 449 136 445 153 q 465 131 457 132 q 477 130 472 130 q 533 147 502 130 q 598 188 565 164 q 663 238 631 212 q 716 282 694 264 l 716 130 q 671 91 696 111 q 618 54 647 71 q 553 23 589 37 q 475 4 518 10 q 492 -107 485 -49 q 499 -217 499 -165 q 485 -334 499 -282 q 444 -423 471 -387 q 376 -479 416 -460 q 282 -499 336 -499 q 236 -489 259 -499 q 194 -459 212 -479 q 163 -411 175 -439 q 152 -347 152 -383 q 163 -252 152 -307 q 190 -138 174 -198 q 225 -14 206 -77 q 260 109 244 50 m 282 195 q 288 214 283 199 q 299 251 292 229 q 313 300 305 273 q 328 355 320 327 q 369 499 347 419 q 355 510 363 505 q 341 517 349 514 q 326 521 334 521 q 260 504 288 521 q 213 461 232 487 q 183 404 193 435 q 174 347 174 374 q 178 300 174 326 q 194 252 182 275 q 227 214 205 230 q 282 195 248 198 m 369 22 q 357 -14 366 13 q 338 -75 349 -40 q 316 -151 328 -111 q 294 -227 304 -191 q 278 -294 285 -264 q 272 -338 272 -323 q 279 -360 272 -351 q 297 -369 286 -369 q 341 -353 323 -369 q 370 -310 359 -337 q 386 -248 381 -283 q 391 -174 391 -212 q 386 -74 391 -125 q 369 22 380 -22 z "},"r":{"ha":586,"x_min":87,"x_max":762,"o":"m 87 142 q 90 211 87 172 q 99 295 94 251 q 113 385 105 339 q 130 472 121 431 q 147 548 138 513 q 165 605 156 583 q 176 629 170 620 q 188 643 181 637 q 206 649 195 648 q 232 651 216 651 q 259 649 250 651 q 274 641 269 648 q 280 623 279 635 q 281 589 281 610 q 281 529 281 564 q 282 458 281 493 l 290 458 q 320 519 303 486 q 359 582 337 553 q 410 631 382 611 q 476 651 439 651 q 501 647 489 651 q 523 634 513 642 q 537 614 532 626 q 543 587 543 602 q 539 555 543 576 q 532 512 536 534 q 524 468 528 489 q 521 432 521 446 q 526 391 521 408 q 538 365 530 375 q 556 351 546 355 q 576 347 566 347 q 640 361 607 347 q 699 391 672 374 q 762 436 731 411 l 751 277 q 711 252 734 266 q 664 225 689 237 q 611 204 638 212 q 555 195 583 195 q 473 216 504 195 q 423 270 441 237 q 396 346 405 304 q 382 430 387 387 l 371 430 l 250 92 q 232 48 240 65 q 214 20 223 31 q 195 4 205 9 q 173 0 185 0 q 128 12 145 0 q 102 44 111 24 q 90 89 93 64 q 87 142 87 115 z "},"s":{"ha":587,"x_min":0,"x_max":739,"o":"m 65 260 q 127 315 103 293 q 168 354 151 336 q 198 391 184 372 q 231 434 212 409 q 277 495 250 459 q 348 586 304 532 q 368 610 357 598 q 392 630 378 621 q 421 645 405 640 q 456 651 437 651 q 507 644 489 651 q 532 627 524 637 q 542 605 541 616 q 543 586 543 594 q 530 550 543 570 q 502 512 517 530 q 472 478 486 494 q 456 456 458 463 q 459 417 456 435 q 468 384 463 400 q 478 348 473 367 q 489 305 484 330 q 497 249 494 281 q 500 174 500 217 q 552 203 524 190 q 611 231 581 216 q 674 262 642 245 q 739 304 706 279 l 739 152 q 642 91 697 119 q 526 41 587 62 q 403 6 465 19 q 286 -6 341 -6 q 211 1 245 -6 q 150 25 176 9 q 108 66 124 41 q 88 129 92 92 q 70 126 79 127 q 52 125 60 125 q 31 126 41 125 q 15 131 22 127 q 4 145 8 136 q 0 174 0 155 q 8 204 0 190 q 27 229 16 218 q 49 248 38 239 q 65 260 60 256 m 152 174 q 170 163 160 174 q 193 141 180 153 q 222 119 205 129 q 261 109 239 109 q 305 117 288 109 q 332 141 322 126 q 347 175 342 155 q 351 215 351 194 q 348 252 351 233 q 342 289 346 271 q 334 321 338 306 q 326 347 330 336 l 152 174 z "},"t":{"ha":543,"x_min":-65,"x_max":651,"o":"m 651 152 q 535 85 586 114 q 445 38 484 57 q 374 9 405 19 q 318 0 343 0 q 227 31 267 0 q 161 121 188 62 q 122 263 135 180 q 109 451 109 347 q 112 538 109 492 q 121 629 115 584 q 90 634 101 632 q 66 639 79 637 q 34 644 54 642 q -22 651 15 647 q -47 659 -38 653 q -60 672 -56 665 q -64 689 -64 680 q -65 703 -65 697 q -52 724 -65 717 q -18 734 -39 731 q 27 738 3 738 q 75 738 52 739 q 116 737 98 737 q 140 738 134 736 q 187 915 159 829 q 250 1068 215 1001 q 326 1175 285 1135 q 413 1215 368 1215 q 466 1199 442 1215 q 507 1156 490 1183 q 533 1092 524 1128 q 543 1017 543 1056 q 533 946 543 983 q 507 871 524 909 q 469 793 491 833 q 422 715 447 754 q 443 714 429 715 q 476 713 457 714 q 516 712 494 713 q 558 710 538 711 q 596 709 578 709 q 625 707 614 708 q 645 694 639 707 q 651 661 651 681 q 637 623 651 637 q 608 608 624 608 l 347 608 q 308 554 328 581 q 271 507 288 528 q 266 425 268 465 q 264 388 265 407 q 263 351 264 370 q 262 316 262 333 q 262 285 262 299 q 269 223 262 248 q 288 182 275 198 q 320 159 301 166 q 361 152 338 152 q 397 159 376 152 q 444 177 418 165 q 497 205 469 189 q 553 241 526 222 q 606 282 581 260 q 651 326 631 303 l 651 152 m 434 1010 q 433 1027 434 1018 q 429 1044 432 1036 q 418 1058 425 1053 q 398 1063 411 1063 q 362 1032 380 1063 q 328 952 345 1001 q 297 846 311 904 q 270 732 282 787 q 290 730 280 731 q 311 728 300 729 q 354 803 332 762 q 393 882 376 843 q 422 955 411 921 q 434 1010 434 989 z "},"u":{"ha":652,"x_min":62,"x_max":825,"o":"m 594 607 q 590 557 594 589 q 579 488 586 526 q 566 410 573 450 q 552 336 558 370 q 541 275 545 301 q 537 239 537 249 q 538 204 537 220 q 542 176 538 188 q 552 158 545 164 q 573 151 559 151 q 609 159 588 151 q 655 179 631 166 q 704 207 679 191 q 752 241 729 223 q 793 276 774 258 q 823 308 812 293 q 824 267 823 286 q 824 232 824 249 q 824 198 824 216 q 825 159 825 180 q 788 127 810 144 q 739 93 766 110 q 682 60 712 76 q 621 33 652 45 q 561 14 591 21 q 505 7 531 7 q 461 17 479 7 q 430 45 443 27 q 407 89 416 64 q 391 146 398 115 q 340 87 367 114 q 284 41 313 60 q 228 10 256 21 q 172 -1 199 -1 q 130 6 149 -1 q 95 31 110 14 q 71 78 79 49 q 62 149 62 106 q 74 282 62 201 q 105 467 87 363 q 110 494 106 477 q 120 532 114 511 q 136 573 127 552 q 159 611 146 594 q 189 639 172 628 q 228 650 206 650 q 279 641 264 649 q 295 622 295 633 q 282 542 289 586 q 267 453 275 498 q 253 366 260 408 q 241 290 246 323 q 232 237 235 257 q 229 216 229 216 q 232 192 229 203 q 239 172 234 181 q 251 158 243 163 q 269 153 258 153 q 299 160 283 153 q 329 183 315 168 q 353 219 342 197 q 370 267 364 240 l 437 612 q 464 639 440 628 q 519 650 488 650 q 574 638 553 650 q 594 607 594 626 z "},"v":{"ha":615,"x_min":76,"x_max":742,"o":"m 87 220 q 83 308 85 271 q 79 376 81 346 q 77 433 77 407 q 76 486 76 458 q 82 594 76 555 q 111 637 89 633 l 192 650 q 198 651 195 650 q 205 651 201 651 q 240 637 228 651 q 254 606 253 624 l 227 177 l 237 178 l 415 603 q 424 621 417 612 q 441 636 431 630 q 466 647 452 643 q 494 651 479 651 q 557 635 533 651 q 581 594 581 619 q 575 558 581 575 q 561 521 570 541 q 539 477 552 501 q 512 419 527 452 q 504 394 507 407 q 498 368 500 382 q 496 338 496 353 q 500 306 496 321 q 514 278 504 290 q 542 258 524 265 q 587 250 559 250 q 634 261 608 250 q 685 285 661 271 q 742 320 713 300 l 742 161 q 649 115 697 132 q 558 98 602 98 q 493 110 522 98 q 444 140 464 121 q 413 182 424 159 q 401 232 401 206 q 356 149 381 191 q 304 71 331 106 q 251 15 277 37 q 200 -7 224 -7 q 139 13 161 -7 q 107 63 117 33 q 93 130 96 94 q 88 198 90 165 l 87 220 z "},"w":{"ha":882,"x_min":49,"x_max":1009,"o":"m 382 335 q 335 200 362 261 q 278 94 309 138 q 215 25 248 50 q 151 0 182 0 q 74 78 98 0 q 49 309 49 156 q 49 347 49 330 q 50 380 49 363 q 52 416 50 397 q 55 463 53 435 q 58 486 56 469 q 65 524 60 503 q 79 567 71 545 q 101 609 87 590 q 132 640 114 627 q 175 652 150 652 l 191 650 q 237 638 221 650 q 253 607 253 627 l 205 240 l 214 241 q 266 367 244 310 q 307 470 288 425 q 343 549 326 515 q 380 606 360 583 q 426 639 401 628 q 487 650 452 650 q 533 638 517 650 q 549 607 549 627 l 493 240 l 503 241 l 665 603 q 700 636 673 622 q 764 651 727 651 q 827 635 803 651 q 850 594 850 619 q 844 553 850 575 q 830 513 838 532 q 816 481 823 494 q 808 467 809 468 q 781 416 793 439 q 759 376 768 393 q 739 338 747 355 q 763 290 748 311 q 795 258 776 273 q 840 243 814 243 q 892 255 863 243 q 947 281 921 267 q 1009 320 977 298 l 1009 161 q 917 115 964 132 q 825 98 869 98 q 759 106 790 98 q 705 132 728 115 q 668 178 682 150 q 653 246 654 206 q 605 147 630 192 q 553 69 580 102 q 500 18 527 37 q 446 0 473 0 q 429 15 436 0 q 417 54 422 29 q 409 112 412 79 q 405 181 406 144 q 402 256 403 218 q 401 332 401 295 l 382 335 z "},"x":{"ha":695,"x_min":35,"x_max":825,"o":"m 134 316 q 134 278 134 296 q 133 243 133 259 q 134 213 133 227 q 140 191 136 200 q 152 176 144 181 q 174 170 160 170 q 190 179 181 170 q 211 204 199 188 q 238 243 223 220 q 272 292 253 265 q 231 398 251 340 q 191 523 210 455 q 189 530 189 527 q 199 555 189 542 q 225 581 210 569 q 260 600 241 592 q 296 608 279 608 q 319 603 309 608 q 334 589 329 598 q 357 532 341 571 q 395 443 374 492 q 471 516 429 479 q 564 586 513 552 q 596 602 581 597 q 623 607 611 607 q 651 601 639 607 q 671 583 663 594 q 683 558 679 572 q 687 529 687 544 q 678 487 687 507 q 651 456 669 467 q 551 381 598 422 q 461 296 504 340 q 491 239 476 266 q 521 193 507 213 q 548 162 535 174 q 573 151 562 151 q 609 159 588 151 q 655 179 631 166 q 704 207 679 191 q 752 241 729 223 q 793 276 774 258 q 823 308 812 293 q 824 267 823 286 q 824 232 824 249 q 824 198 824 216 q 825 159 825 180 q 767 109 802 136 q 689 57 732 81 q 597 17 646 33 q 499 0 548 0 q 429 38 471 0 q 338 159 387 75 q 282 97 309 125 q 233 46 256 68 q 189 12 210 24 q 152 0 169 0 q 96 18 118 0 q 61 63 75 35 q 42 122 48 90 q 35 184 37 155 l 134 316 z "},"y":{"ha":629,"x_min":-43,"x_max":796,"o":"m 434 521 q 453 562 439 544 q 485 592 467 580 q 523 610 503 604 q 560 616 543 616 q 595 607 581 616 q 610 578 610 598 q 608 564 610 572 q 597 516 604 547 q 584 447 591 486 q 570 365 577 408 q 555 279 562 322 q 521 64 538 179 q 565 92 541 75 q 618 138 589 109 q 683 209 647 166 q 764 317 719 252 l 796 166 q 765 123 784 145 q 722 79 745 101 q 673 36 699 57 q 623 -3 648 16 q 499 -87 566 -46 q 469 -228 486 -159 q 427 -357 451 -297 q 372 -467 403 -417 q 302 -553 341 -517 q 215 -609 263 -589 q 109 -629 167 -629 q 59 -625 85 -629 q 9 -606 32 -620 q -28 -565 -14 -591 q -43 -494 -43 -538 q -28 -426 -43 -464 q 15 -345 -12 -387 q 79 -257 42 -302 q 160 -165 117 -211 q 252 -76 204 -120 q 349 8 300 -32 l 367 71 q 291 19 330 39 q 214 -1 251 -1 q 150 12 181 -1 q 96 50 119 25 q 58 110 72 75 q 43 191 43 146 q 49 299 43 250 q 66 393 55 349 q 93 480 77 438 q 130 564 109 522 q 175 611 146 595 q 232 627 204 627 q 273 615 256 627 q 290 578 290 603 q 288 562 290 570 q 282 543 286 553 q 258 469 270 511 q 237 382 246 427 q 222 295 228 338 q 217 220 217 252 q 219 187 217 203 q 228 158 222 171 q 244 138 234 146 q 270 130 254 130 q 315 152 295 130 q 351 204 336 174 q 375 267 366 235 q 387 321 384 300 l 434 521 m 117 -499 q 171 -483 145 -499 q 217 -439 196 -466 q 256 -377 239 -412 q 288 -306 274 -342 q 311 -235 301 -270 q 326 -174 320 -201 q 272 -216 299 -191 q 218 -268 244 -240 q 169 -326 192 -296 q 127 -384 145 -356 q 100 -435 110 -411 q 90 -474 90 -458 q 117 -499 90 -499 z "},"z":{"ha":456,"x_min":18,"x_max":614,"o":"m 18 127 q 24 152 18 142 q 38 170 29 161 q 58 188 47 179 q 82 211 70 197 l 293 494 q 272 505 281 500 q 256 513 263 509 q 241 519 249 517 q 225 521 234 521 q 189 520 203 521 q 165 515 175 519 q 148 503 155 511 q 130 480 140 495 q 95 432 109 448 q 69 417 81 417 q 54 427 58 417 q 50 453 50 437 q 50 468 50 460 q 52 484 51 475 q 81 579 62 543 q 124 636 100 616 q 173 663 147 656 q 220 670 198 670 q 252 662 236 670 q 284 645 269 654 q 317 628 300 635 q 351 619 334 620 q 376 618 365 618 q 397 618 387 618 q 440 620 424 618 q 465 622 456 621 q 477 624 473 623 q 482 625 480 625 q 516 609 506 625 q 527 564 527 592 q 523 524 527 545 q 509 510 522 519 q 469 494 497 502 q 441 452 460 479 q 398 392 422 425 q 346 323 373 359 q 295 257 319 288 q 253 204 271 227 q 229 173 235 181 l 226 159 q 238 155 227 159 q 265 144 250 150 q 298 134 281 138 q 328 129 315 129 q 380 137 357 129 q 424 159 404 146 q 461 186 444 172 q 494 214 478 201 q 526 235 510 227 q 558 243 541 243 q 582 237 571 243 q 599 222 592 231 q 610 200 606 212 q 614 177 614 189 q 599 136 614 157 q 559 94 584 115 q 500 56 534 74 q 431 23 467 37 q 357 1 395 9 q 286 -7 319 -7 q 272 -4 283 -7 q 241 5 260 -1 q 197 22 222 12 q 142 47 172 32 q 98 39 117 39 q 62 46 77 39 q 38 66 47 54 q 23 94 28 78 q 18 127 18 109 z "},"{":{"ha":782,"x_min":90,"x_max":885,"o":"m 330 939 q 365 1059 340 1004 q 424 1154 389 1114 q 503 1215 459 1194 q 595 1237 546 1237 q 654 1235 619 1237 q 726 1227 688 1234 q 800 1207 763 1220 q 867 1172 837 1194 q 881 1154 876 1164 q 885 1132 885 1143 q 879 1100 885 1116 q 861 1072 872 1084 q 835 1050 850 1059 q 802 1042 820 1042 q 763 1045 786 1042 q 714 1053 741 1048 q 662 1060 688 1057 q 610 1063 635 1063 q 571 1055 589 1063 q 539 1023 553 1046 q 513 959 525 1000 q 490 852 500 918 q 473 750 482 801 q 447 656 464 700 q 403 579 431 612 q 331 530 376 546 q 376 507 358 523 q 406 470 395 492 q 421 420 416 448 q 425 362 425 393 q 420 280 425 323 q 409 196 415 237 q 398 118 404 155 q 393 58 393 82 q 398 12 393 30 q 410 -18 402 -7 q 430 -34 418 -29 q 458 -38 442 -38 q 504 -30 482 -38 q 546 -13 526 -22 q 587 4 567 -3 q 628 12 607 12 q 651 8 640 12 q 671 -5 663 4 q 686 -27 680 -14 q 691 -59 691 -41 q 689 -81 691 -69 q 666 -123 686 -104 q 616 -156 646 -142 q 553 -181 587 -171 q 486 -198 518 -191 q 427 -208 453 -205 q 387 -212 400 -212 q 313 -195 345 -212 q 258 -149 280 -179 q 223 -77 235 -119 q 212 16 212 -35 q 223 134 212 73 q 244 255 234 195 q 247 276 245 265 q 248 298 248 286 q 242 346 248 322 q 225 387 237 369 q 193 417 213 406 q 142 429 172 429 q 102 449 114 429 q 90 498 90 470 q 96 542 90 519 q 113 582 102 564 q 139 611 123 600 q 172 624 154 623 q 243 636 216 625 q 288 669 271 647 q 314 723 304 690 q 330 798 323 755 l 330 939 z "},"|":{"ha":846,"x_min":320,"x_max":669,"o":"m 485 1150 q 496 1188 487 1169 q 519 1223 505 1208 q 556 1249 534 1239 q 605 1259 577 1259 q 635 1250 623 1259 q 655 1228 648 1240 q 666 1202 663 1215 q 669 1179 669 1188 q 669 1161 669 1171 q 667 1139 668 1150 q 664 1118 665 1128 q 661 1100 663 1107 q 646 1003 655 1061 q 626 878 637 946 q 604 733 616 809 q 581 579 593 656 q 558 428 570 503 q 538 289 547 354 q 521 172 528 224 q 509 87 513 119 q 491 37 505 57 q 459 3 477 16 q 424 -16 442 -10 q 393 -22 406 -22 q 363 -13 376 -22 q 340 11 350 -4 q 325 45 330 26 q 320 87 320 65 q 321 109 320 98 q 323 134 321 121 q 334 200 327 155 q 350 307 340 245 q 371 442 359 368 q 395 595 382 516 q 420 753 408 673 q 445 907 433 833 q 467 1043 456 980 q 485 1150 477 1105 z "},"}":{"ha":846,"x_min":43,"x_max":809,"o":"m 683 884 q 672 823 678 855 q 661 758 666 790 q 651 694 655 725 q 648 640 648 664 q 653 598 648 616 q 671 568 659 581 q 705 550 684 556 q 758 543 726 543 q 797 519 785 542 q 809 467 809 497 q 804 425 809 446 q 788 386 798 404 q 762 358 777 369 q 728 347 747 347 q 673 337 696 347 q 634 310 650 326 q 609 273 618 293 q 597 235 600 253 q 583 153 589 192 q 570 72 577 115 q 535 -50 559 5 q 476 -146 511 -106 q 397 -209 441 -186 q 305 -232 354 -232 q 268 -229 292 -232 q 214 -220 243 -226 q 155 -204 185 -214 q 99 -180 124 -194 q 59 -150 75 -167 q 43 -111 43 -132 q 53 -65 43 -84 q 77 -33 63 -45 q 107 -14 92 -20 q 134 -8 123 -8 q 173 -16 155 -8 q 209 -33 191 -24 q 246 -51 227 -43 q 290 -58 265 -58 q 329 -49 311 -58 q 361 -16 347 -40 q 388 51 376 9 q 411 159 400 93 q 428 252 418 204 q 454 340 437 299 q 499 410 471 380 q 570 448 526 439 q 525 475 543 458 q 496 515 507 492 q 480 564 485 537 q 476 621 476 591 q 481 699 476 657 q 492 781 486 741 q 503 857 498 821 q 507 916 507 892 q 503 962 507 943 q 490 990 498 980 q 470 1005 482 1001 q 442 1009 458 1009 q 390 1006 418 1009 q 335 998 361 1002 q 284 991 308 994 q 243 987 260 987 q 219 993 229 987 q 201 1007 208 998 q 190 1028 193 1017 q 186 1053 186 1040 q 195 1088 186 1071 q 221 1118 203 1106 q 299 1153 258 1140 q 379 1173 340 1166 q 454 1181 419 1179 q 513 1183 489 1183 q 587 1167 555 1183 q 643 1122 620 1151 q 677 1052 665 1093 q 689 960 689 1010 q 683 884 689 924 z "},"~":{"ha":586,"x_min":99,"x_max":661,"o":"m 481 995 q 498 1015 490 1004 q 514 1037 505 1025 q 531 1063 522 1049 q 565 1095 545 1084 q 604 1105 585 1105 q 644 1093 627 1105 q 661 1056 661 1080 q 651 1020 661 1039 q 630 980 643 1004 q 598 933 617 956 q 553 895 578 911 q 494 878 527 878 q 457 884 473 878 q 425 903 441 890 q 390 933 408 915 q 347 977 372 952 l 278 1045 q 262 1024 270 1035 q 245 1003 254 1015 q 229 977 237 991 q 195 945 215 956 q 155 935 175 935 q 116 947 132 935 q 99 984 99 960 q 109 1020 99 1001 q 130 1060 117 1036 q 162 1106 142 1084 q 207 1145 181 1129 q 266 1162 233 1162 q 303 1156 287 1162 q 335 1137 319 1149 q 369 1106 351 1125 q 412 1063 387 1088 l 481 995 z "},"":{"ha":803,"x_min":167,"x_max":680,"o":"m 565 910 q 545 766 558 840 q 513 617 531 692 q 476 471 496 543 q 436 332 456 398 q 398 207 416 265 q 367 102 380 149 q 341 49 357 69 q 304 18 325 29 q 261 3 284 7 q 218 -1 239 -1 q 197 1 207 -1 q 181 11 188 4 q 171 31 174 18 q 167 63 167 43 q 169 93 167 77 q 174 129 170 109 q 218 288 191 208 q 283 459 245 368 q 370 660 321 551 q 478 910 418 770 q 485 924 479 918 q 499 935 491 930 q 517 942 507 939 q 535 944 526 944 q 557 939 548 944 q 566 920 566 933 q 565 910 566 917 m 447 1132 q 449 1145 448 1135 q 454 1169 450 1155 q 465 1199 458 1183 q 485 1228 471 1215 q 518 1250 498 1241 q 569 1259 538 1259 q 614 1252 594 1259 q 649 1232 635 1246 q 672 1198 664 1219 q 680 1147 680 1177 q 673 1100 680 1123 q 651 1058 666 1076 q 612 1029 636 1040 q 556 1018 589 1018 q 475 1046 503 1018 q 446 1128 446 1075 q 447 1132 446 1131 z "},"":{"ha":608,"x_min":43,"x_max":601,"o":"m 349 694 q 354 720 350 707 q 366 745 359 734 q 385 763 374 756 q 410 770 395 770 q 421 764 416 770 q 430 750 427 758 q 436 733 434 742 q 437 717 437 724 q 436 688 437 706 q 434 658 435 670 l 433 647 q 502 628 471 642 q 554 594 532 614 q 589 548 576 574 q 601 494 601 523 q 596 449 601 471 q 581 409 591 427 q 556 380 570 391 q 524 369 542 369 q 490 379 500 369 q 476 404 479 389 q 472 436 472 418 q 468 471 471 454 q 455 501 465 488 q 423 519 446 514 q 412 343 418 439 q 397 137 407 247 q 470 169 433 148 q 532 208 507 189 q 549 213 541 213 q 567 207 558 213 q 584 192 576 201 q 595 171 591 183 q 600 148 600 159 q 595 126 600 136 q 579 109 590 117 q 522 66 553 87 q 460 31 496 49 q 385 3 425 13 l 374 -88 q 366 -113 371 -104 q 356 -127 361 -122 q 345 -134 351 -132 q 332 -135 338 -135 q 325 -135 328 -135 q 318 -134 321 -134 q 306 -128 311 -134 q 296 -112 300 -122 q 289 -89 292 -102 q 287 -60 287 -75 q 288 -35 287 -47 q 291 0 290 -23 q 183 24 230 1 q 106 86 137 47 q 59 175 75 125 q 43 280 43 225 q 52 357 43 317 q 78 436 61 397 q 121 511 96 475 q 181 576 147 547 q 255 624 214 604 q 345 648 296 643 l 349 694 m 217 281 q 221 235 217 259 q 234 190 224 211 q 259 153 243 169 q 301 132 275 138 q 308 220 304 174 q 316 316 312 267 q 325 414 320 365 q 333 509 329 463 q 271 463 294 493 q 236 399 248 433 q 221 333 224 366 q 217 281 217 301 z "},"":{"ha":1021,"x_min":356,"x_max":1161,"o":"m 857 673 q 892 669 873 673 q 927 657 911 666 q 954 631 943 648 q 964 589 964 615 q 960 564 964 576 q 944 542 956 551 q 911 527 932 532 q 857 521 890 521 l 686 521 q 677 443 682 484 q 666 360 671 401 q 654 281 660 319 q 644 213 648 243 q 637 165 640 184 q 635 146 634 147 q 742 152 696 146 q 825 165 787 158 q 898 178 863 172 q 972 184 932 184 q 1007 180 989 184 q 1042 167 1026 176 q 1067 145 1057 158 q 1078 115 1078 132 q 1073 85 1078 101 q 1057 57 1068 70 q 1030 35 1046 44 q 989 23 1013 25 q 912 13 960 20 q 808 -1 865 6 q 689 -14 751 -8 q 571 -20 627 -20 q 502 -11 529 -20 q 459 14 475 -1 q 436 49 443 29 q 430 92 430 69 q 437 146 430 119 q 452 198 444 174 q 463 264 454 224 q 479 351 471 305 q 496 441 488 396 q 507 521 504 486 l 429 521 q 391 530 405 521 q 369 552 376 540 q 358 577 361 565 q 356 596 356 590 q 360 624 356 610 q 373 648 363 637 q 400 666 382 659 q 445 673 417 673 l 521 673 q 537 837 521 765 q 582 964 553 909 q 647 1056 610 1018 q 728 1118 685 1094 q 819 1152 772 1141 q 911 1162 865 1162 q 968 1159 939 1162 q 1025 1146 998 1155 q 1078 1121 1053 1137 q 1121 1082 1102 1105 q 1150 1025 1139 1058 q 1161 948 1161 992 q 1155 907 1161 924 q 1139 879 1149 890 q 1116 864 1128 869 q 1089 859 1103 859 q 1063 863 1076 859 q 1041 876 1050 867 q 1025 895 1031 884 q 1019 920 1019 906 q 1010 962 1019 947 q 988 985 1002 978 q 954 995 974 993 q 911 997 935 997 q 863 992 888 997 q 814 976 838 988 q 768 941 790 963 q 730 882 747 918 q 704 795 714 846 q 694 673 694 743 l 857 673 z "},"":{"ha":998,"x_min":43,"x_max":947,"o":"m 452 307 q 356 321 399 307 q 278 363 313 336 q 228 327 254 345 q 177 293 201 308 q 133 268 153 277 q 99 258 113 258 q 79 264 89 258 q 61 279 68 270 q 48 299 53 288 q 43 321 43 310 q 56 355 43 338 q 96 391 68 371 l 199 462 q 168 611 168 528 q 193 771 168 693 q 269 911 218 849 l 205 969 q 175 1002 184 987 q 165 1031 165 1017 q 171 1055 165 1042 q 188 1077 178 1067 q 210 1094 197 1087 q 233 1101 222 1101 q 294 1071 260 1101 l 375 999 q 461 1033 414 1021 q 563 1044 508 1044 q 660 1031 616 1044 q 739 991 704 1017 q 785 1023 762 1008 q 827 1051 807 1039 q 863 1070 846 1063 q 891 1077 879 1077 q 912 1071 902 1077 q 930 1057 922 1065 q 943 1036 938 1048 q 947 1014 947 1025 q 935 981 947 997 q 895 945 922 964 l 817 892 q 842 762 842 833 q 834 672 842 718 q 810 583 826 627 q 772 500 795 540 q 719 427 749 460 l 786 367 q 825 306 825 332 q 819 282 825 294 q 803 259 812 269 q 781 242 793 249 q 758 235 769 235 q 727 245 744 235 q 691 270 710 254 q 651 304 671 285 q 609 342 630 323 q 535 316 574 325 q 452 307 496 307 m 472 437 q 542 452 511 437 q 596 493 572 467 q 638 551 621 518 q 667 621 656 585 q 684 694 678 657 q 689 763 689 730 q 680 822 689 794 q 655 870 671 850 q 614 902 638 890 q 559 914 589 914 q 457 891 502 914 q 382 828 413 868 q 336 732 352 787 q 320 611 320 676 q 331 538 320 570 q 361 484 341 506 q 409 449 381 461 q 472 437 437 437 z "},"":{"ha":1216,"x_min":53,"x_max":1126,"o":"m 840 370 q 869 368 853 370 q 900 361 886 366 q 924 348 914 357 q 933 326 933 340 q 929 304 933 315 q 912 283 925 292 q 874 267 899 273 q 808 261 849 261 l 641 261 q 602 159 622 201 q 562 87 582 116 q 519 41 541 58 q 475 15 498 24 q 428 3 452 6 q 378 1 404 1 q 340 6 357 1 q 309 21 322 12 q 288 44 296 31 q 281 73 281 58 q 285 100 281 87 q 295 122 289 113 q 310 138 302 132 q 328 144 319 144 q 357 142 342 144 q 385 132 371 139 q 407 127 393 127 q 431 163 416 127 q 463 261 446 200 l 399 261 q 349 268 368 261 q 320 283 330 274 q 307 303 310 292 q 304 322 304 314 q 307 338 304 330 q 320 353 310 346 q 349 365 330 360 q 399 370 368 370 l 492 370 l 508 435 l 403 435 q 351 441 370 435 q 321 457 331 448 q 307 477 311 466 q 304 496 304 488 q 307 511 304 503 q 320 527 310 519 q 351 538 331 534 q 403 543 370 543 l 504 543 q 481 657 493 601 q 456 764 469 713 q 429 858 444 814 q 398 932 414 901 q 364 981 382 963 q 326 998 346 998 q 252 967 302 998 q 138 867 202 935 q 124 879 134 869 q 98 903 115 887 q 53 949 81 920 q 136 1035 94 998 q 218 1096 178 1072 q 295 1134 258 1121 q 361 1147 332 1147 q 461 1102 418 1147 q 536 982 504 1058 q 593 804 568 905 q 637 589 617 703 q 741 742 691 667 q 833 883 790 817 q 909 1001 876 948 q 965 1087 943 1054 q 981 1102 971 1095 q 1002 1114 990 1109 q 1027 1121 1014 1118 q 1055 1124 1041 1124 q 1082 1121 1069 1124 q 1104 1111 1095 1118 q 1120 1092 1114 1103 q 1126 1065 1126 1081 q 1119 1027 1126 1048 q 1095 979 1112 1006 q 1044 903 1077 948 q 970 802 1012 858 q 879 680 928 745 q 779 543 829 614 l 859 543 q 889 542 872 543 q 921 535 906 540 q 945 522 935 530 q 955 500 955 513 q 950 477 955 489 q 932 456 946 466 q 893 441 919 447 q 825 435 867 435 l 707 435 l 683 370 l 840 370 z "},"":{"ha":695,"x_min":209,"x_max":548,"o":"m 390 1172 q 423 1236 401 1215 q 469 1257 445 1257 q 498 1249 484 1257 q 524 1225 513 1241 q 541 1185 534 1209 q 548 1131 548 1162 q 548 1116 548 1124 q 547 1100 548 1108 q 541 1065 544 1088 q 533 1010 537 1041 q 524 942 528 979 q 515 870 519 906 q 506 799 510 833 q 498 738 502 765 q 487 693 495 711 q 468 662 479 674 q 444 645 457 650 q 417 640 431 640 q 384 647 400 640 q 355 669 368 655 q 334 702 342 682 q 326 744 326 721 q 326 753 326 749 q 328 763 326 758 q 336 827 331 791 q 346 900 340 862 q 357 977 351 938 q 369 1053 363 1017 q 380 1119 374 1088 q 390 1172 385 1150 m 271 412 q 283 454 275 436 q 304 484 292 472 q 332 502 317 496 q 361 508 347 508 q 392 501 377 508 q 418 480 406 494 q 436 446 429 467 q 444 397 444 425 q 443 380 444 389 q 441 362 442 372 q 422 229 429 283 q 410 132 416 175 q 399 48 405 88 q 384 -43 393 7 q 373 -78 380 -65 q 355 -99 366 -92 q 334 -108 345 -106 q 311 -110 322 -110 q 296 -109 303 -110 q 281 -109 288 -109 q 252 -100 265 -109 q 229 -76 239 -91 q 214 -41 219 -61 q 209 1 209 -22 q 210 22 209 11 q 212 47 210 34 q 220 97 216 75 q 227 139 223 118 q 235 182 231 159 q 244 237 239 205 q 256 310 249 268 q 271 412 262 353 z "},"":{"ha":977,"x_min":152,"x_max":852,"o":"m 833 424 q 808 329 833 371 q 741 255 784 288 q 767 200 758 230 q 776 136 776 171 q 748 43 776 83 q 676 -24 721 3 q 576 -65 632 -52 q 462 -79 519 -79 q 347 -65 403 -79 q 248 -22 291 -51 q 178 50 205 7 q 152 151 152 93 q 162 205 152 182 q 186 245 172 229 q 219 269 201 260 q 251 277 236 277 q 291 268 275 277 q 307 242 307 260 q 301 204 307 226 q 295 152 295 183 q 309 103 295 123 q 347 68 323 82 q 402 48 371 55 q 466 42 433 42 q 515 48 490 42 q 560 67 540 55 q 592 99 580 80 q 605 142 605 118 q 589 198 605 174 q 546 243 572 222 q 485 282 519 264 q 415 319 450 300 q 345 358 379 338 q 284 404 311 378 q 241 459 258 429 q 225 530 225 490 q 250 613 225 573 q 326 686 275 654 q 284 743 300 712 q 269 812 269 774 q 288 884 269 848 q 347 948 308 920 q 446 994 387 976 q 583 1011 505 1011 q 679 995 631 1011 q 765 947 726 978 q 828 874 804 917 q 852 781 852 832 q 845 733 852 753 q 827 702 838 714 q 803 683 817 689 q 776 677 789 677 q 735 692 753 677 q 718 732 718 707 q 721 755 718 743 q 724 779 724 767 q 711 825 724 804 q 675 860 698 846 q 624 882 653 874 q 564 890 595 890 q 506 881 530 890 q 467 859 482 872 q 446 831 452 846 q 439 804 439 816 q 456 767 439 784 q 500 732 473 749 q 564 697 528 715 q 636 659 599 679 q 708 615 673 638 q 771 563 743 591 q 816 500 799 534 q 833 424 833 466 m 682 424 q 658 476 682 452 q 595 522 633 500 q 511 567 557 545 q 420 616 465 590 q 387 576 398 597 q 376 534 376 555 q 388 502 376 517 q 420 473 400 487 q 468 445 441 459 q 525 416 495 431 q 587 385 555 401 q 648 349 618 368 q 673 383 664 364 q 682 424 682 402 z "},"":{"ha":695,"x_min":87,"x_max":609,"o":"m 609 886 q 608 873 609 883 q 605 850 608 863 q 595 823 602 837 q 576 796 588 808 q 545 776 564 784 q 499 768 526 768 q 430 791 457 768 q 404 868 404 814 q 410 912 404 890 q 429 949 416 933 q 462 976 442 966 q 511 986 482 986 q 584 960 559 986 q 609 886 609 935 m 292 886 q 292 873 292 883 q 288 850 291 863 q 277 823 284 837 q 258 796 271 808 q 228 776 246 784 q 182 768 209 768 q 113 791 139 768 q 87 868 87 814 q 93 912 87 890 q 112 949 99 933 q 145 976 125 966 q 194 986 165 986 q 267 960 241 986 q 292 886 292 935 z "},"":{"ha":1215,"x_min":73,"x_max":1103,"o":"m 566 22 q 348 57 441 22 q 194 151 256 92 q 103 287 133 210 q 73 446 73 363 q 90 573 73 509 q 141 696 107 637 q 225 807 175 755 q 342 896 276 858 q 491 955 409 933 q 671 977 573 977 q 810 961 748 977 q 920 917 872 945 q 1003 850 968 888 q 1060 766 1038 812 q 1092 670 1082 721 q 1103 568 1103 620 q 1087 438 1103 504 q 1039 312 1071 373 q 962 198 1008 252 q 857 106 916 145 q 724 44 797 67 q 566 22 651 22 m 568 130 q 692 149 635 130 q 794 199 749 167 q 874 273 840 231 q 931 364 908 316 q 966 464 954 412 q 977 565 977 515 q 959 681 977 626 q 901 777 941 735 q 798 842 861 818 q 646 867 735 867 q 514 849 574 867 q 403 801 453 831 q 315 728 353 770 q 251 640 277 687 q 211 541 224 592 q 198 438 198 489 q 220 321 198 377 q 288 223 242 266 q 404 155 334 180 q 568 130 473 130 m 563 219 q 468 238 509 219 q 400 290 427 258 q 359 366 372 323 q 345 456 345 408 q 353 527 345 490 q 376 601 361 564 q 414 671 391 637 q 465 730 436 705 q 530 770 494 755 q 609 785 566 785 q 671 775 643 785 q 720 747 700 765 q 752 704 741 728 q 764 650 764 679 q 758 608 764 629 q 740 570 751 587 q 713 542 729 553 q 677 532 696 532 q 642 545 650 532 q 633 582 633 558 q 635 611 633 595 q 637 640 637 628 q 634 661 637 652 q 621 669 631 669 q 574 655 594 669 q 542 622 555 642 q 520 577 528 602 q 508 529 512 553 q 503 487 504 506 q 501 459 501 468 q 505 416 501 438 q 520 377 509 395 q 548 348 530 359 q 594 336 566 336 q 630 342 610 336 q 670 357 650 348 q 709 376 690 366 q 743 395 728 386 q 755 398 749 398 q 770 392 763 398 q 783 378 777 387 q 792 358 789 369 q 795 336 795 347 q 791 314 795 324 q 777 298 787 304 q 713 258 748 276 q 645 231 684 243 q 563 219 606 219 z "},"":{"ha":629,"x_min":43,"x_max":694,"o":"m 694 689 q 659 645 681 670 q 608 596 636 619 q 547 558 579 574 q 483 542 515 542 q 418 567 444 542 q 374 640 393 592 q 339 606 359 623 q 294 575 318 589 q 243 553 270 562 q 191 544 217 544 q 136 555 162 544 q 89 588 109 566 q 56 640 68 609 q 43 710 43 671 q 56 801 43 754 q 90 891 68 847 q 141 974 111 935 q 206 1043 171 1013 q 280 1089 241 1072 q 359 1107 319 1107 q 380 1102 372 1107 q 393 1090 388 1097 q 403 1076 398 1083 q 415 1067 408 1069 q 435 1063 425 1063 q 457 1063 446 1063 q 478 1063 468 1063 q 495 1058 488 1063 q 508 1041 503 1053 q 513 1008 513 1029 q 507 946 513 980 q 494 876 501 911 q 481 803 487 840 q 475 735 475 767 q 480 692 475 707 q 501 676 485 676 q 527 682 513 676 q 554 698 541 688 q 582 721 568 708 q 608 747 596 734 q 667 819 637 779 l 694 689 m 193 735 q 195 706 193 720 q 202 682 197 692 q 217 664 208 671 q 239 657 226 657 q 267 666 254 657 q 290 689 279 675 q 310 721 301 703 q 324 758 318 739 q 334 793 330 776 q 340 823 338 810 l 376 995 q 307 969 340 995 q 249 904 274 943 q 208 819 223 865 q 193 735 193 774 z "},"":{"ha":977,"x_min":130,"x_max":964,"o":"m 433 59 q 344 117 380 90 q 279 168 307 144 q 228 216 251 193 q 182 261 205 239 q 142 312 155 287 q 130 361 130 337 q 140 407 130 385 q 167 450 150 429 q 208 490 184 471 q 259 528 232 510 q 277 540 261 529 q 314 566 292 551 q 361 600 336 582 q 408 633 386 618 q 444 659 429 648 q 461 670 459 669 q 480 676 471 674 q 497 677 489 677 q 527 672 513 677 q 551 657 541 667 q 567 634 562 647 q 573 608 573 622 q 556 567 573 587 q 506 524 539 548 l 285 369 l 467 212 q 490 195 475 205 q 518 173 505 186 q 542 144 532 160 q 552 107 552 127 q 547 88 552 98 q 531 70 541 78 q 508 55 522 61 q 476 50 494 50 q 433 59 456 50 m 823 59 q 734 117 771 90 q 670 168 698 144 q 619 216 642 193 q 572 261 596 239 q 533 312 545 287 q 521 361 521 337 q 531 407 521 385 q 558 450 541 429 q 599 490 575 471 q 650 528 623 510 q 667 540 652 529 q 705 566 683 551 q 751 600 726 582 q 798 633 777 618 q 835 659 820 648 q 852 670 850 669 q 870 676 861 674 q 888 677 880 677 q 918 672 904 677 q 942 657 932 667 q 958 634 952 647 q 964 608 964 622 q 947 567 964 587 q 897 524 930 548 l 675 369 l 858 212 q 881 195 866 205 q 909 173 895 186 q 932 144 922 160 q 943 107 943 127 q 937 88 943 98 q 922 70 932 78 q 898 55 912 61 q 867 50 884 50 q 823 59 846 50 z "},"":{"ha":825,"x_min":115,"x_max":702,"o":"m 688 239 q 681 200 687 217 q 664 172 674 183 q 642 155 654 161 q 618 149 630 149 q 595 154 606 149 q 576 169 585 159 q 563 193 568 178 q 557 228 557 208 q 558 232 557 230 q 558 237 558 234 l 567 391 l 199 391 q 162 396 178 391 q 136 409 146 401 q 120 429 125 418 q 115 452 115 440 q 121 476 115 464 q 139 499 127 489 q 168 515 151 509 q 210 521 186 521 l 637 521 q 687 505 671 521 q 702 469 702 490 l 702 465 l 688 239 z "},"":{"ha":1194,"x_min":48,"x_max":1141,"o":"m 580 26 q 346 65 446 26 q 180 171 246 105 q 81 322 114 237 q 48 499 48 408 q 66 634 48 567 q 119 764 84 702 q 208 879 155 825 q 331 972 261 932 q 488 1034 401 1011 q 679 1056 575 1056 q 827 1039 761 1056 q 945 993 894 1023 q 1033 923 996 963 q 1094 834 1070 882 q 1129 733 1118 786 q 1141 625 1141 680 q 1124 481 1141 553 q 1074 343 1107 410 q 994 219 1042 277 q 883 118 945 161 q 745 51 821 75 q 580 26 669 26 m 576 137 q 708 158 648 137 q 816 215 768 178 q 900 299 864 251 q 961 402 937 347 q 998 515 985 457 q 1010 631 1010 574 q 992 751 1010 694 q 937 851 975 808 q 839 920 899 895 q 696 945 779 945 q 540 926 612 945 q 409 874 468 907 q 306 797 351 841 q 231 701 261 752 q 185 593 201 649 q 170 483 170 538 q 194 352 170 415 q 269 242 218 290 q 395 165 319 194 q 576 137 472 137 m 287 339 q 302 332 294 334 q 317 330 310 330 q 347 345 333 330 q 372 382 361 359 q 394 433 384 406 q 411 488 404 461 q 422 535 418 514 q 429 566 427 556 q 401 587 410 578 q 392 609 392 597 q 393 616 392 612 q 396 626 394 621 q 402 634 399 631 q 412 637 406 637 q 419 636 414 637 q 431 634 425 635 q 443 633 437 633 q 449 632 448 632 l 451 639 q 459 671 454 650 q 472 717 465 692 q 490 767 480 741 q 512 812 500 792 q 537 846 524 833 q 565 859 550 859 q 612 863 590 861 q 653 866 632 865 q 688 867 673 867 q 768 855 734 867 q 825 821 802 842 q 858 772 847 800 q 869 715 869 745 q 856 658 869 686 q 817 606 843 629 q 752 567 791 583 q 663 549 714 551 q 698 521 686 538 q 715 483 710 503 q 720 440 720 462 q 721 401 720 418 q 726 372 722 383 q 741 361 730 361 q 766 366 752 361 q 794 379 779 370 q 824 399 809 387 q 852 425 839 411 l 879 349 q 862 336 879 349 q 816 306 844 322 q 753 276 788 290 q 681 262 718 262 q 634 283 650 262 q 611 335 618 304 q 602 402 604 366 q 599 470 601 439 q 591 522 597 501 q 568 543 585 543 l 547 543 q 509 420 528 474 q 466 328 489 366 q 415 271 443 291 q 351 252 387 252 q 311 254 333 252 q 274 269 290 257 l 287 339 m 608 775 q 596 720 602 747 q 585 670 591 696 q 573 623 578 644 q 603 621 588 621 q 663 629 636 621 q 709 650 690 637 q 738 678 728 663 q 748 708 748 693 q 724 755 748 735 q 650 775 701 775 l 608 775 z "},"":{"ha":500,"x_min":43,"x_max":456,"o":"m 43 893 q 68 985 43 945 q 131 1052 93 1025 q 214 1093 169 1079 q 298 1107 258 1107 q 355 1097 327 1107 q 406 1068 383 1088 q 442 1020 428 1049 q 456 951 456 991 q 434 847 456 891 q 377 773 412 803 q 301 730 343 744 q 220 715 260 715 q 160 725 191 715 q 103 754 130 734 q 60 809 77 775 q 43 893 43 843 m 280 1010 q 221 999 246 1010 q 179 971 196 988 q 154 934 162 955 q 146 892 146 913 q 151 863 146 877 q 164 839 155 850 q 188 822 174 828 q 220 816 201 816 q 273 828 250 816 q 312 858 296 840 q 337 898 328 876 q 345 941 345 920 q 329 989 345 969 q 280 1010 313 1010 z "},"":{"ha":1019,"x_min":217,"x_max":824,"o":"m 456 415 l 304 415 q 266 420 283 415 q 239 435 250 426 q 222 456 228 444 q 217 479 217 467 q 223 504 217 492 q 240 525 229 515 q 268 539 251 534 q 307 545 285 545 l 456 545 l 456 700 q 463 734 456 719 q 480 759 469 749 q 504 775 491 770 q 530 781 517 781 q 569 764 552 781 q 587 713 587 748 l 587 545 l 756 545 q 808 528 791 545 q 824 489 824 511 q 819 463 824 475 q 803 439 813 450 q 777 421 792 428 q 743 415 762 415 l 587 415 l 587 264 q 581 224 587 241 q 566 196 575 208 q 545 179 557 185 q 521 174 533 174 q 497 179 509 174 q 476 195 486 184 q 462 223 467 206 q 456 261 456 239 l 456 415 m 678 132 q 699 130 687 132 q 720 122 710 127 q 736 106 729 116 q 743 80 743 96 q 740 53 743 66 q 727 27 736 39 q 701 9 718 16 q 656 1 684 1 l 374 1 q 340 9 353 1 q 320 28 327 17 q 311 52 313 39 q 309 75 309 65 q 311 94 309 84 q 319 112 313 104 q 339 126 326 121 q 374 132 353 132 l 678 132 z "},"":{"ha":673,"x_min":25,"x_max":642,"o":"m 519 413 q 438 432 479 413 q 358 476 397 451 q 278 433 321 450 q 187 413 235 416 q 123 423 153 413 q 72 450 94 433 q 38 489 50 467 q 25 535 25 511 q 32 578 25 555 q 54 619 39 600 q 93 650 69 637 q 149 662 116 662 q 240 651 201 662 q 313 624 279 640 q 365 713 344 665 q 387 808 387 761 q 379 867 387 844 q 358 903 371 890 q 331 921 346 916 q 302 925 316 925 q 270 920 286 925 q 244 907 255 916 q 226 886 233 899 q 219 860 219 874 q 233 839 219 850 q 277 815 246 828 q 279 813 278 814 q 279 810 279 812 q 263 795 279 804 q 223 781 248 787 q 171 769 199 774 q 119 764 143 764 q 110 770 115 770 q 102 771 105 771 q 65 813 77 791 q 53 862 53 836 q 73 926 53 895 q 129 984 94 958 q 212 1025 165 1009 q 315 1041 260 1041 q 353 1038 329 1041 q 405 1027 377 1036 q 461 1003 433 1019 q 513 963 490 988 q 551 903 536 939 q 566 818 566 867 q 557 764 566 795 q 534 698 549 732 q 496 627 519 663 q 446 557 474 590 q 490 544 467 549 q 540 540 513 540 q 558 549 548 540 q 577 569 568 558 q 595 588 587 579 q 607 597 603 597 q 634 594 627 597 q 642 579 642 591 q 638 552 642 570 q 629 507 634 535 q 619 475 626 492 q 599 445 612 458 q 566 422 586 431 q 519 413 547 413 m 178 525 q 240 551 204 525 q 213 564 226 559 q 189 568 200 568 q 152 564 163 568 q 140 551 140 559 q 152 533 140 542 q 178 525 164 525 z "},"":{"ha":521,"x_min":45,"x_max":453,"o":"m 150 635 q 164 594 150 606 q 199 581 179 581 q 228 587 213 581 q 254 602 242 592 q 273 626 266 612 q 281 656 281 640 q 273 709 281 688 q 250 743 266 730 q 211 763 235 756 q 156 774 188 770 q 131 781 138 775 q 123 796 123 787 q 125 813 123 804 q 131 830 127 823 q 142 843 136 838 q 159 848 149 848 q 196 856 180 848 q 223 874 212 863 q 240 900 234 886 q 246 926 246 913 q 236 963 246 947 q 204 978 226 978 q 171 969 184 978 q 158 947 158 960 q 162 937 158 942 q 171 928 166 932 q 180 919 176 923 q 184 913 184 916 q 176 905 184 909 q 158 898 168 901 q 138 892 148 895 q 126 890 129 890 q 113 893 120 890 q 101 903 106 896 q 93 922 96 910 q 90 953 90 935 q 103 1002 90 981 q 139 1036 117 1023 q 191 1056 162 1050 q 252 1063 220 1063 q 314 1055 283 1063 q 369 1030 345 1046 q 408 991 393 1015 q 423 939 423 968 q 419 909 423 926 q 402 877 414 893 q 367 847 389 861 q 308 822 345 832 q 374 797 347 814 q 419 756 401 779 q 445 706 437 733 q 453 650 453 679 q 437 593 453 622 q 392 542 420 565 q 323 505 363 519 q 235 491 283 491 q 148 502 184 491 q 89 533 112 513 q 56 581 66 553 q 45 643 45 609 q 51 677 45 663 q 67 700 57 691 q 92 712 78 708 q 120 715 105 715 q 149 712 133 715 q 178 705 164 709 q 200 694 191 700 q 210 682 210 688 q 200 675 210 678 q 179 668 191 672 q 159 656 168 663 q 150 635 150 648 z "},"":{"ha":413,"x_min":69,"x_max":369,"o":"m 76 816 q 87 843 80 825 q 105 883 95 861 q 126 932 115 906 q 149 985 137 959 q 206 1116 175 1046 q 233 1149 215 1139 q 271 1160 251 1160 q 306 1153 288 1160 q 337 1134 323 1146 q 360 1105 351 1122 q 369 1067 369 1088 q 344 1002 369 1036 q 314 963 331 984 q 280 918 298 941 q 243 871 262 895 q 208 828 224 848 q 177 790 191 807 q 155 763 163 773 q 132 744 143 749 q 109 738 120 738 q 81 750 92 738 q 69 783 69 763 q 71 799 69 791 q 76 816 73 807 z "},"":{"ha":652,"x_min":22,"x_max":825,"o":"m 594 607 q 590 557 594 589 q 579 488 586 526 q 566 410 573 450 q 552 336 558 370 q 541 275 545 301 q 537 239 537 249 q 538 204 537 220 q 542 176 538 188 q 552 158 545 164 q 573 151 559 151 q 609 159 588 151 q 655 179 631 166 q 704 207 679 191 q 752 241 729 223 q 793 276 774 258 q 823 308 812 293 q 824 267 823 286 q 824 232 824 249 q 824 198 824 216 q 825 159 825 180 q 788 127 810 144 q 739 93 766 110 q 682 60 712 76 q 621 33 652 45 q 561 14 591 21 q 505 7 531 7 q 461 17 479 7 q 430 45 443 27 q 407 89 416 64 q 391 146 398 115 q 318 69 358 97 q 237 41 277 41 q 199 49 217 41 q 188 -48 193 -7 q 172 -118 182 -90 q 141 -160 161 -146 q 87 -174 122 -174 q 36 -152 51 -174 q 22 -87 22 -131 q 27 -1 22 -54 q 42 116 33 53 q 62 248 51 180 q 84 379 73 317 q 106 492 96 441 q 123 571 116 543 q 133 608 128 593 q 148 632 138 623 q 177 646 158 642 q 228 650 195 650 q 278 642 261 649 q 295 624 295 635 l 295 622 q 282 542 289 586 q 267 453 275 498 q 253 366 260 408 q 241 290 246 323 q 232 237 235 257 q 229 216 229 216 q 232 192 229 203 q 239 172 234 181 q 251 158 243 163 q 269 153 258 153 q 299 160 283 153 q 329 183 315 168 q 353 219 342 197 q 370 267 364 240 l 437 612 q 464 639 440 628 q 519 650 488 650 q 574 638 553 650 q 594 607 594 626 z "},"":{"ha":887,"x_min":65,"x_max":957,"o":"m 620 86 q 644 235 633 161 q 665 380 655 310 q 685 514 675 450 q 705 631 694 578 q 649 626 680 629 q 590 620 618 624 q 551 410 570 514 q 534 316 543 365 q 516 219 526 268 q 499 124 507 171 q 483 37 490 78 q 471 19 479 26 q 451 5 463 11 q 427 -3 440 0 q 399 -5 413 -5 q 369 -2 384 -5 q 341 9 353 2 q 322 28 330 17 q 315 55 315 39 q 319 77 315 65 q 325 112 320 84 q 335 179 329 139 q 349 268 341 220 q 363 367 356 317 q 404 628 381 484 q 249 650 313 628 q 144 709 184 673 q 84 789 103 745 q 65 878 65 833 q 84 957 65 919 q 137 1029 103 996 q 219 1091 172 1063 q 325 1139 267 1119 q 448 1171 382 1160 q 583 1182 513 1182 q 718 1177 663 1182 q 805 1166 772 1172 q 866 1150 844 1158 q 911 1123 891 1140 q 943 1086 928 1109 q 957 1030 957 1063 q 953 998 957 1015 q 940 932 948 977 q 921 826 932 887 q 898 692 911 764 q 873 545 886 620 q 848 397 861 470 q 824 262 835 324 q 803 154 812 201 q 787 85 793 108 q 770 47 781 63 q 745 21 759 31 q 716 5 731 10 q 686 0 701 0 q 637 17 658 0 q 617 64 617 33 q 620 86 617 76 z "},"":{"ha":477,"x_min":217,"x_max":456,"o":"m 456 130 q 455 116 456 127 q 451 91 454 105 q 439 61 447 77 q 417 31 431 45 q 381 9 403 18 q 328 0 359 0 q 283 6 303 0 q 248 26 262 13 q 225 60 233 39 q 217 110 217 81 q 224 158 217 134 q 246 199 231 181 q 285 229 261 218 q 341 239 309 239 q 427 211 397 239 q 456 130 456 182 z "},"":{"ha":803,"x_min":245,"x_max":465,"o":"m 464 31 q 453 -81 457 -39 q 446 -148 449 -123 q 442 -182 444 -172 q 439 -200 440 -193 q 436 -216 437 -208 q 431 -244 434 -224 q 417 -288 428 -269 q 390 -320 406 -307 q 357 -340 375 -333 q 321 -347 338 -347 q 292 -342 306 -347 q 268 -327 279 -337 q 252 -301 258 -317 q 245 -266 245 -286 q 257 -207 245 -237 q 288 -140 269 -176 q 334 -62 308 -104 q 391 31 361 -20 q 408 55 396 45 q 434 65 420 65 q 456 60 447 65 q 465 41 465 54 q 464 31 465 38 z "},"":{"ha":477,"x_min":37,"x_max":412,"o":"m 104 916 l 102 915 l 105 916 q 92 913 98 913 q 72 919 81 913 q 54 933 62 924 q 42 954 46 943 q 37 977 37 965 q 46 1005 37 996 q 82 1024 56 1015 q 156 1044 109 1033 q 279 1078 203 1056 q 304 1083 291 1082 q 330 1085 317 1085 q 359 1081 345 1085 q 386 1067 374 1076 q 405 1045 398 1059 q 412 1015 412 1032 q 410 995 412 1015 q 398 928 407 976 q 374 797 390 880 q 334 587 359 714 l 332 581 l 332 583 q 326 555 330 573 q 312 520 321 538 q 286 490 302 503 q 245 477 270 477 q 186 493 209 477 q 164 543 164 508 q 165 554 164 548 q 168 568 166 560 l 167 568 q 195 702 180 633 q 220 826 209 770 q 248 954 234 892 l 104 916 z "},"":{"ha":542,"x_min":47,"x_max":490,"o":"m 328 1106 q 400 1088 369 1106 q 451 1039 431 1069 q 480 967 471 1008 q 490 882 490 927 q 474 763 490 823 q 426 654 457 703 q 347 574 394 605 q 241 543 300 543 q 153 566 189 543 q 93 625 116 588 q 58 707 69 661 q 47 800 47 753 q 70 920 47 864 q 132 1017 93 976 q 221 1082 170 1059 q 328 1106 272 1106 m 260 656 q 299 676 280 656 q 331 727 317 696 q 354 795 345 758 q 362 866 362 832 q 358 916 362 893 q 346 957 354 939 q 325 984 338 974 q 294 994 312 994 q 248 973 269 994 q 210 920 227 952 q 184 850 194 888 q 175 775 175 811 q 179 729 175 751 q 194 691 184 707 q 220 665 204 675 q 260 656 237 656 z "},"":{"ha":977,"x_min":130,"x_max":964,"o":"m 661 59 q 618 50 638 50 q 586 55 600 50 q 563 70 572 61 q 547 88 553 78 q 542 107 542 98 q 552 144 542 127 q 576 173 562 160 q 604 195 589 186 q 627 212 618 205 l 809 369 l 588 524 q 538 567 555 548 q 521 608 521 587 q 527 634 521 622 q 543 657 532 647 q 567 672 553 667 q 597 677 581 677 q 614 676 605 677 q 633 670 623 674 q 650 659 635 669 q 686 633 665 648 q 733 600 708 618 q 780 566 758 582 q 817 540 802 551 q 835 528 832 529 q 886 490 862 510 q 927 450 909 471 q 954 407 944 429 q 964 361 964 385 q 951 312 964 337 q 912 261 939 287 q 866 216 888 239 q 815 168 843 193 q 750 117 787 144 q 661 59 713 90 m 271 59 q 227 50 248 50 q 196 55 210 50 q 172 70 182 61 q 157 88 162 78 q 151 107 151 98 q 161 144 151 127 q 185 173 172 160 q 213 195 199 186 q 236 212 228 205 l 418 369 l 197 524 q 147 567 164 548 q 130 608 130 587 q 136 634 130 622 q 152 657 142 647 q 176 672 162 667 q 206 677 190 677 q 223 676 214 677 q 242 670 233 674 q 259 659 244 669 q 296 633 274 648 q 342 600 317 618 q 389 566 368 582 q 426 540 411 551 q 444 528 441 529 q 495 490 471 510 q 536 450 519 471 q 563 407 553 429 q 573 361 573 385 q 561 312 573 337 q 522 261 549 287 q 475 216 498 239 q 424 168 452 193 q 359 117 396 144 q 271 59 322 90 z "},"":{"ha":1193,"x_min":37,"x_max":1161,"o":"m 673 955 q 688 972 678 964 q 710 986 698 980 q 736 995 722 991 q 762 998 749 998 q 799 987 783 998 q 815 951 815 977 q 809 917 815 937 q 789 873 804 897 q 721 753 760 823 q 635 598 683 684 q 528 412 587 513 q 400 199 470 312 q 368 167 387 177 q 331 157 349 157 q 289 173 307 157 q 271 219 271 189 q 276 249 271 233 q 292 285 281 266 q 317 328 300 298 q 357 399 334 358 q 407 489 380 439 q 464 590 435 538 q 523 695 493 642 q 580 796 553 748 q 631 885 608 844 q 673 955 655 926 m 1054 -26 q 999 -28 1027 -26 q 945 -31 971 -31 q 910 -28 926 -31 q 885 -17 895 -25 q 869 4 874 -9 q 863 39 863 18 q 869 95 863 63 q 885 161 876 126 q 813 153 846 161 q 752 136 781 145 q 697 119 723 127 q 646 112 671 112 q 629 120 634 112 q 625 139 625 127 q 635 176 625 155 q 661 220 645 197 q 685 282 674 254 q 705 337 696 311 q 721 391 713 364 q 736 449 729 418 q 751 515 743 479 q 767 593 758 550 q 782 610 770 603 q 810 621 793 616 q 845 627 826 625 q 884 629 865 629 q 913 628 899 629 q 938 624 928 627 q 955 618 949 621 q 961 610 961 614 q 941 518 954 564 q 911 425 928 472 q 873 331 894 378 q 829 233 852 283 q 868 232 852 233 q 898 232 884 232 l 906 232 q 931 308 919 271 q 955 377 944 345 q 969 404 959 393 q 992 422 979 415 q 1020 432 1006 429 q 1045 435 1034 435 q 1085 427 1075 435 q 1095 402 1095 418 q 1091 376 1095 393 q 1080 339 1087 360 q 1065 295 1074 319 q 1047 245 1056 271 q 1103 255 1078 251 q 1146 260 1128 260 q 1158 253 1154 260 q 1161 235 1161 246 q 1156 194 1161 210 q 1145 170 1152 178 q 1133 158 1139 161 q 1124 155 1126 155 q 1074 156 1100 155 q 1019 159 1048 157 q 1006 86 1008 117 l 1006 75 q 1015 50 1006 64 q 1035 23 1024 36 q 1054 -2 1045 9 q 1063 -20 1063 -14 q 1062 -25 1063 -24 q 1054 -26 1060 -26 m 104 916 l 102 915 l 105 916 q 92 913 98 913 q 72 919 81 913 q 54 933 62 924 q 42 954 46 943 q 37 977 37 965 q 46 1005 37 996 q 82 1024 56 1015 q 156 1044 109 1033 q 279 1078 203 1056 q 304 1083 291 1082 q 330 1085 317 1085 q 359 1081 345 1085 q 386 1067 374 1076 q 405 1045 398 1059 q 412 1015 412 1032 q 410 995 412 1015 q 398 928 407 976 q 374 797 390 880 q 334 587 359 714 l 332 581 l 332 583 q 326 555 330 573 q 312 520 321 538 q 286 490 302 503 q 245 477 270 477 q 186 493 209 477 q 164 543 164 508 q 165 554 164 548 q 168 568 166 560 l 167 568 q 195 702 180 633 q 220 826 209 770 q 248 954 234 892 l 104 916 z "},"":{"ha":1173,"x_min":37,"x_max":1182,"o":"m 1059 1 q 978 20 1019 1 q 898 64 937 39 q 818 21 861 37 q 727 1 775 4 q 663 11 692 1 q 612 38 633 21 q 577 77 590 55 q 565 123 565 99 q 572 165 565 143 q 594 207 579 188 q 632 237 609 225 q 689 250 656 250 q 780 238 741 250 q 852 212 819 227 q 905 300 884 252 q 926 395 926 349 q 919 455 926 432 q 898 491 911 478 q 871 508 886 504 q 842 513 856 513 q 810 508 825 513 q 784 495 795 503 q 766 474 772 486 q 759 448 759 462 q 772 427 759 437 q 817 403 786 416 q 819 400 818 401 q 819 398 819 399 q 803 383 819 391 q 763 368 787 375 q 711 357 739 361 q 659 352 683 352 q 650 358 654 357 q 642 359 645 359 q 605 401 616 378 q 593 450 593 424 q 613 514 593 482 q 669 571 633 546 q 752 613 705 597 q 854 629 800 629 q 893 626 869 629 q 945 615 917 623 q 1001 591 972 606 q 1053 551 1029 576 q 1091 490 1076 526 q 1105 406 1105 454 q 1097 351 1105 382 q 1074 286 1089 320 q 1036 214 1059 251 q 985 144 1014 178 q 1029 132 1006 136 q 1080 127 1053 127 q 1098 137 1088 127 q 1117 156 1107 146 q 1135 176 1126 167 q 1147 185 1143 185 q 1174 182 1166 185 q 1182 167 1182 178 q 1178 140 1182 157 q 1168 95 1174 123 q 1159 63 1166 79 q 1139 33 1152 46 q 1106 10 1126 19 q 1059 1 1086 1 m 638 955 q 653 972 644 964 q 675 986 663 980 q 701 995 688 991 q 727 998 715 998 q 765 987 749 998 q 781 951 781 977 q 775 917 781 937 q 755 873 769 897 q 687 753 725 823 q 600 598 648 684 q 494 412 552 513 q 366 199 435 312 q 333 167 352 177 q 296 157 314 157 q 255 173 273 157 q 237 219 237 189 q 241 249 237 233 q 258 285 246 266 q 282 328 266 298 q 322 399 299 358 q 373 489 345 439 q 429 590 400 538 q 488 695 458 642 q 546 796 518 748 q 597 885 573 844 q 638 955 621 926 m 104 960 l 102 960 l 105 960 q 92 958 98 958 q 72 964 81 958 q 54 978 62 969 q 42 999 46 987 q 37 1021 37 1010 q 46 1050 37 1040 q 82 1069 56 1060 q 156 1089 109 1078 q 279 1123 203 1101 q 304 1128 291 1126 q 330 1130 317 1130 q 359 1125 345 1130 q 386 1112 374 1121 q 405 1090 398 1103 q 412 1060 412 1077 q 410 1040 412 1059 q 398 972 407 1021 q 374 842 390 924 q 334 631 359 759 l 332 626 l 332 627 q 326 600 330 618 q 312 565 321 583 q 286 535 302 548 q 245 522 270 522 q 186 537 209 522 q 164 587 164 553 q 165 599 164 593 q 168 612 166 605 l 167 612 q 195 746 180 678 q 220 871 209 814 q 248 998 234 937 l 104 960 m 718 113 q 780 139 744 113 q 753 151 766 146 q 729 156 740 156 q 692 151 703 156 q 680 139 680 146 q 692 121 680 130 q 718 113 704 113 z "},"":{"ha":1216,"x_min":24,"x_max":1180,"o":"m 672 955 q 687 972 677 964 q 709 986 697 980 q 735 995 722 991 q 761 998 749 998 q 799 987 783 998 q 814 951 814 977 q 809 917 814 937 q 789 873 803 897 q 721 753 759 823 q 634 598 682 684 q 528 412 586 513 q 399 199 469 312 q 367 167 386 177 q 330 157 348 157 q 289 173 307 157 q 271 219 271 189 q 275 249 271 233 q 292 285 280 266 q 316 328 300 298 q 356 399 333 358 q 407 489 379 439 q 463 590 434 538 q 522 695 492 642 q 579 796 552 748 q 631 885 607 844 q 672 955 654 926 m 129 721 q 143 679 129 692 q 178 667 158 667 q 207 672 192 667 q 233 688 221 677 q 252 712 245 698 q 260 742 260 726 q 252 794 260 773 q 229 828 245 815 q 190 849 214 842 q 135 859 167 856 q 110 867 117 861 q 102 882 102 873 q 104 899 102 890 q 110 916 106 908 q 121 929 115 924 q 138 934 128 934 q 175 941 159 934 q 202 960 191 949 q 219 985 213 971 q 225 1012 225 999 q 215 1048 225 1033 q 183 1063 205 1063 q 150 1054 163 1063 q 137 1032 137 1045 q 141 1023 137 1027 q 150 1013 145 1018 q 159 1005 155 1008 q 163 998 163 1001 q 155 990 163 994 q 137 983 147 986 q 117 978 127 980 q 105 976 108 976 q 92 979 99 976 q 80 988 85 981 q 72 1008 75 996 q 68 1038 68 1020 q 82 1087 68 1067 q 118 1122 96 1108 q 170 1142 141 1135 q 231 1148 199 1148 q 293 1140 262 1148 q 348 1116 324 1132 q 387 1077 372 1100 q 402 1025 402 1054 q 398 995 402 1011 q 381 963 393 979 q 346 932 368 947 q 287 907 323 918 q 353 882 326 899 q 398 842 380 865 q 424 791 416 819 q 432 736 432 764 q 416 679 432 707 q 371 628 399 650 q 302 591 342 605 q 214 576 262 576 q 127 588 163 576 q 68 619 91 599 q 35 667 45 639 q 24 728 24 694 q 30 763 24 749 q 46 785 36 777 q 71 797 57 793 q 99 801 84 801 q 127 798 112 801 q 157 790 143 795 q 179 779 170 785 q 189 768 189 773 q 179 761 189 764 q 158 753 170 758 q 138 741 147 749 q 129 721 129 734 m 1064 -26 q 1005 -28 1035 -26 q 947 -31 975 -31 q 909 -27 925 -31 q 881 -16 892 -24 q 864 8 869 -7 q 858 48 858 24 q 865 111 858 75 q 882 185 871 146 q 804 177 840 185 q 738 158 769 168 q 679 139 707 147 q 623 130 650 130 q 606 139 611 130 q 600 161 600 148 q 611 202 600 178 q 640 252 622 226 q 666 322 654 290 q 687 384 677 354 q 705 445 696 414 q 721 510 713 475 q 736 584 728 544 q 754 673 745 623 q 771 691 758 684 q 801 704 783 699 q 839 711 819 709 q 880 713 860 713 q 912 712 897 713 q 939 707 928 710 q 957 700 950 705 q 964 691 964 696 q 942 587 956 639 q 910 484 928 536 q 868 377 891 431 q 821 267 846 323 q 864 266 846 266 q 896 265 882 265 l 905 265 q 932 351 918 309 q 957 429 945 393 q 972 459 961 447 q 998 480 983 472 q 1027 491 1012 488 q 1055 495 1042 495 q 1098 485 1086 495 q 1109 457 1109 475 q 1104 428 1109 446 q 1093 387 1100 410 q 1076 336 1085 363 q 1057 281 1066 309 q 1118 291 1090 286 q 1164 296 1145 296 q 1176 289 1173 296 q 1180 269 1180 281 q 1175 222 1180 240 q 1163 195 1170 205 q 1149 182 1156 185 q 1139 179 1143 179 q 1085 180 1114 179 q 1027 182 1057 181 q 1017 140 1021 161 q 1012 101 1013 119 l 1012 88 q 1022 60 1012 76 q 1043 30 1031 45 q 1064 1 1055 14 q 1074 -19 1074 -12 q 1073 -24 1074 -22 q 1064 -26 1071 -26 z "},"":{"ha":876,"x_min":267,"x_max":787,"o":"m 572 690 q 601 740 583 723 q 642 757 620 757 q 684 747 666 757 q 702 713 702 736 q 690 631 702 667 q 660 565 679 595 q 617 509 641 534 q 567 461 593 484 q 518 415 542 438 q 475 366 494 392 q 444 310 456 340 q 433 242 433 280 q 439 188 433 210 q 458 154 446 167 q 487 136 471 141 q 523 130 503 130 q 562 137 542 130 q 602 156 583 144 q 637 182 621 168 q 665 212 654 197 q 687 230 675 224 q 711 235 699 235 q 736 229 724 235 q 757 212 748 223 q 772 188 766 201 q 777 157 777 174 q 775 142 777 150 q 767 126 772 134 q 719 72 747 96 q 659 32 691 48 q 592 8 627 16 q 524 0 557 0 q 437 13 482 0 q 354 55 391 26 q 292 126 316 83 q 267 229 267 169 q 284 352 267 301 q 329 441 301 403 q 390 508 356 479 q 458 564 424 536 q 522 621 492 591 q 572 690 552 650 m 549 957 q 549 970 549 960 q 554 996 550 981 q 565 1026 557 1010 q 587 1055 573 1042 q 623 1078 602 1069 q 676 1086 645 1086 q 722 1080 701 1086 q 756 1060 742 1074 q 779 1026 771 1047 q 787 977 787 1006 q 780 929 787 952 q 758 887 773 905 q 720 858 743 869 q 663 847 696 847 q 578 876 607 847 q 549 957 549 904 z "},"":{"ha":1107,"x_min":87,"x_max":1270,"o":"m 1270 152 q 1233 118 1255 137 q 1184 80 1211 99 q 1124 42 1156 60 q 1059 9 1093 24 q 992 -13 1026 -5 q 928 -22 959 -22 q 884 -14 906 -22 q 844 13 862 -7 q 814 68 826 33 q 803 160 803 104 q 806 211 803 184 q 815 271 810 239 q 729 135 777 194 q 628 37 682 77 q 516 -23 574 -3 q 401 -43 458 -43 q 281 -21 338 -43 q 181 44 224 1 q 112 153 138 88 q 87 305 87 218 q 102 443 87 371 q 146 588 117 515 q 217 733 176 661 q 311 870 258 805 q 427 990 364 935 q 561 1085 490 1045 q 711 1149 632 1126 q 874 1172 789 1172 q 911 1168 897 1172 q 932 1159 925 1164 q 941 1147 939 1153 q 943 1136 943 1141 q 943 1130 943 1133 q 943 1126 943 1127 l 943 1122 q 980 1109 961 1112 q 1017 1105 999 1107 q 1052 1098 1036 1103 q 1080 1077 1068 1093 q 1100 1030 1093 1061 q 1107 947 1107 1000 q 1099 856 1107 907 q 1078 749 1091 805 q 1049 637 1065 694 q 1018 526 1034 580 q 987 425 1002 473 q 962 342 972 378 q 958 287 960 313 q 957 233 957 261 q 958 198 957 212 q 962 176 959 184 q 969 164 964 168 q 981 161 974 161 q 1016 169 995 161 q 1060 187 1036 176 q 1108 212 1083 198 q 1157 240 1134 226 q 1201 265 1181 254 q 1235 284 1221 277 l 1270 152 m 949 1029 q 900 1039 925 1036 q 850 1042 874 1042 q 742 1021 795 1042 q 638 963 688 1000 q 542 878 587 927 q 456 772 496 829 q 385 654 416 715 q 330 533 353 593 q 294 415 307 472 q 282 309 282 357 q 320 161 282 214 q 439 109 359 109 q 535 130 490 109 q 618 185 580 151 q 689 262 657 219 q 746 349 722 305 q 785 434 770 393 q 808 505 801 475 l 949 1029 m 873 1400 q 878 1383 876 1392 q 880 1368 880 1375 q 868 1335 880 1348 q 840 1322 857 1322 q 817 1328 829 1322 q 794 1348 805 1334 q 772 1375 785 1358 q 741 1412 758 1392 q 706 1456 724 1433 q 669 1502 687 1479 q 634 1547 651 1526 q 605 1586 618 1569 q 580 1652 580 1622 q 589 1689 580 1672 q 611 1718 597 1706 q 643 1737 625 1731 q 678 1744 661 1744 q 716 1734 698 1744 q 743 1701 734 1724 q 800 1569 774 1630 q 823 1517 811 1544 q 844 1468 834 1491 q 861 1427 854 1445 q 873 1400 869 1409 z "},"":{"ha":1107,"x_min":87,"x_max":1270,"o":"m 1270 152 q 1233 118 1255 137 q 1184 80 1211 99 q 1124 42 1156 60 q 1059 9 1093 24 q 992 -13 1026 -5 q 928 -22 959 -22 q 884 -14 906 -22 q 844 13 862 -7 q 814 68 826 33 q 803 160 803 104 q 806 211 803 184 q 815 271 810 239 q 729 135 777 194 q 628 37 682 77 q 516 -23 574 -3 q 401 -43 458 -43 q 281 -21 338 -43 q 181 44 224 1 q 112 153 138 88 q 87 305 87 218 q 102 443 87 371 q 146 588 117 515 q 217 733 176 661 q 311 870 258 805 q 427 990 364 935 q 561 1085 490 1045 q 711 1149 632 1126 q 874 1172 789 1172 q 911 1168 897 1172 q 932 1159 925 1164 q 941 1147 939 1153 q 943 1136 943 1141 q 943 1130 943 1133 q 943 1126 943 1127 l 943 1122 q 980 1109 961 1112 q 1017 1105 999 1107 q 1052 1098 1036 1103 q 1080 1077 1068 1093 q 1100 1030 1093 1061 q 1107 947 1107 1000 q 1099 856 1107 907 q 1078 749 1091 805 q 1049 637 1065 694 q 1018 526 1034 580 q 987 425 1002 473 q 962 342 972 378 q 958 287 960 313 q 957 233 957 261 q 958 198 957 212 q 962 176 959 184 q 969 164 964 168 q 981 161 974 161 q 1016 169 995 161 q 1060 187 1036 176 q 1108 212 1083 198 q 1157 240 1134 226 q 1201 265 1181 254 q 1235 284 1221 277 l 1270 152 m 949 1029 q 900 1039 925 1036 q 850 1042 874 1042 q 742 1021 795 1042 q 638 963 688 1000 q 542 878 587 927 q 456 772 496 829 q 385 654 416 715 q 330 533 353 593 q 294 415 307 472 q 282 309 282 357 q 320 161 282 214 q 439 109 359 109 q 535 130 490 109 q 618 185 580 151 q 689 262 657 219 q 746 349 722 305 q 785 434 770 393 q 808 505 801 475 l 949 1029 m 854 1400 q 866 1427 859 1409 q 883 1468 873 1445 q 904 1517 893 1491 q 927 1569 916 1544 q 985 1701 954 1630 q 1011 1734 994 1724 q 1049 1744 1029 1744 q 1084 1737 1067 1744 q 1116 1718 1102 1731 q 1139 1689 1130 1706 q 1147 1652 1147 1672 q 1122 1586 1147 1620 q 1093 1547 1109 1569 q 1058 1502 1076 1526 q 1022 1456 1040 1479 q 986 1412 1003 1433 q 955 1375 969 1392 q 933 1348 941 1358 q 910 1328 922 1334 q 887 1322 899 1322 q 859 1335 871 1322 q 848 1368 848 1348 q 849 1383 848 1375 q 854 1400 851 1392 z "},"":{"ha":1107,"x_min":87,"x_max":1270,"o":"m 1270 152 q 1233 118 1255 137 q 1184 80 1211 99 q 1124 42 1156 60 q 1059 9 1093 24 q 992 -13 1026 -5 q 928 -22 959 -22 q 884 -14 906 -22 q 844 13 862 -7 q 814 68 826 33 q 803 160 803 104 q 806 211 803 184 q 815 271 810 239 q 729 135 777 194 q 628 37 682 77 q 516 -23 574 -3 q 401 -43 458 -43 q 281 -21 338 -43 q 181 44 224 1 q 112 153 138 88 q 87 305 87 218 q 102 443 87 371 q 146 588 117 515 q 217 733 176 661 q 311 870 258 805 q 427 990 364 935 q 561 1085 490 1045 q 711 1149 632 1126 q 874 1172 789 1172 q 911 1168 897 1172 q 932 1159 925 1164 q 941 1147 939 1153 q 943 1136 943 1141 q 943 1130 943 1133 q 943 1126 943 1127 l 943 1122 q 980 1109 961 1112 q 1017 1105 999 1107 q 1052 1098 1036 1103 q 1080 1077 1068 1093 q 1100 1030 1093 1061 q 1107 947 1107 1000 q 1099 856 1107 907 q 1078 749 1091 805 q 1049 637 1065 694 q 1018 526 1034 580 q 987 425 1002 473 q 962 342 972 378 q 958 287 960 313 q 957 233 957 261 q 958 198 957 212 q 962 176 959 184 q 969 164 964 168 q 981 161 974 161 q 1016 169 995 161 q 1060 187 1036 176 q 1108 212 1083 198 q 1157 240 1134 226 q 1201 265 1181 254 q 1235 284 1221 277 l 1270 152 m 949 1029 q 900 1039 925 1036 q 850 1042 874 1042 q 742 1021 795 1042 q 638 963 688 1000 q 542 878 587 927 q 456 772 496 829 q 385 654 416 715 q 330 533 353 593 q 294 415 307 472 q 282 309 282 357 q 320 161 282 214 q 439 109 359 109 q 535 130 490 109 q 618 185 580 151 q 689 262 657 219 q 746 349 722 305 q 785 434 770 393 q 808 505 801 475 l 949 1029 m 937 1640 q 897 1536 916 1586 q 881 1493 889 1515 q 864 1451 872 1471 q 849 1413 857 1430 q 838 1383 842 1395 q 812 1333 825 1351 q 785 1308 799 1316 q 757 1298 771 1299 q 728 1296 743 1296 q 713 1300 721 1296 q 698 1313 705 1305 q 686 1332 691 1321 q 682 1358 682 1343 q 687 1383 682 1371 l 798 1607 q 831 1669 817 1642 q 861 1714 846 1696 q 897 1742 877 1733 q 948 1752 918 1752 q 998 1741 978 1752 q 1033 1708 1019 1729 q 1058 1654 1047 1686 q 1078 1582 1068 1623 q 1090 1545 1086 1559 q 1099 1520 1095 1531 q 1105 1499 1102 1509 q 1112 1476 1108 1490 q 1122 1443 1116 1463 q 1138 1394 1128 1424 q 1141 1370 1141 1381 q 1122 1316 1141 1338 q 1063 1293 1102 1293 q 1039 1297 1050 1293 q 1017 1312 1027 1301 q 999 1339 1006 1322 q 987 1383 991 1356 q 966 1501 975 1453 q 950 1581 956 1550 q 937 1640 943 1618 z "},"":{"ha":1107,"x_min":87,"x_max":1270,"o":"m 1270 152 q 1233 118 1255 137 q 1184 80 1211 99 q 1124 42 1156 60 q 1059 9 1093 24 q 992 -13 1026 -5 q 928 -22 959 -22 q 884 -14 906 -22 q 844 13 862 -7 q 814 68 826 33 q 803 160 803 104 q 806 211 803 184 q 815 271 810 239 q 729 135 777 194 q 628 37 682 77 q 516 -23 574 -3 q 401 -43 458 -43 q 281 -21 338 -43 q 181 44 224 1 q 112 153 138 88 q 87 305 87 218 q 102 443 87 371 q 146 588 117 515 q 217 733 176 661 q 311 870 258 805 q 427 990 364 935 q 561 1085 490 1045 q 711 1149 632 1126 q 874 1172 789 1172 q 911 1168 897 1172 q 932 1159 925 1164 q 941 1147 939 1153 q 943 1136 943 1141 q 943 1130 943 1133 q 943 1126 943 1127 l 943 1122 q 980 1109 961 1112 q 1017 1105 999 1107 q 1052 1098 1036 1103 q 1080 1077 1068 1093 q 1100 1030 1093 1061 q 1107 947 1107 1000 q 1099 856 1107 907 q 1078 749 1091 805 q 1049 637 1065 694 q 1018 526 1034 580 q 987 425 1002 473 q 962 342 972 378 q 958 287 960 313 q 957 233 957 261 q 958 198 957 212 q 962 176 959 184 q 969 164 964 168 q 981 161 974 161 q 1016 169 995 161 q 1060 187 1036 176 q 1108 212 1083 198 q 1157 240 1134 226 q 1201 265 1181 254 q 1235 284 1221 277 l 1270 152 m 949 1029 q 900 1039 925 1036 q 850 1042 874 1042 q 742 1021 795 1042 q 638 963 688 1000 q 542 878 587 927 q 456 772 496 829 q 385 654 416 715 q 330 533 353 593 q 294 415 307 472 q 282 309 282 357 q 320 161 282 214 q 439 109 359 109 q 535 130 490 109 q 618 185 580 151 q 689 262 657 219 q 746 349 722 305 q 785 434 770 393 q 808 505 801 475 l 949 1029 m 1045 1455 q 1061 1475 1053 1463 q 1077 1497 1069 1485 q 1095 1522 1086 1509 q 1128 1555 1108 1544 q 1168 1565 1148 1565 q 1207 1552 1191 1565 q 1224 1516 1224 1539 q 1215 1480 1224 1499 q 1194 1440 1206 1464 q 1161 1393 1181 1416 q 1116 1354 1142 1371 q 1057 1338 1090 1338 q 1019 1344 1036 1338 q 979 1364 1002 1350 q 925 1405 957 1379 q 842 1471 892 1431 q 825 1450 833 1461 q 809 1429 818 1440 q 792 1403 800 1417 q 759 1371 779 1381 q 719 1360 739 1360 q 679 1373 696 1360 q 663 1410 663 1386 q 672 1446 663 1427 q 693 1486 680 1461 q 725 1532 706 1510 q 770 1571 745 1555 q 829 1588 796 1588 q 868 1582 850 1588 q 907 1561 885 1576 q 962 1520 930 1546 q 1045 1455 994 1495 z "},"":{"ha":1107,"x_min":87,"x_max":1270,"o":"m 1270 152 q 1233 118 1255 137 q 1184 80 1211 99 q 1124 42 1156 60 q 1059 9 1093 24 q 992 -13 1026 -5 q 928 -22 959 -22 q 884 -14 906 -22 q 844 13 862 -7 q 814 68 826 33 q 803 160 803 104 q 806 211 803 184 q 815 271 810 239 q 729 135 777 194 q 628 37 682 77 q 516 -23 574 -3 q 401 -43 458 -43 q 281 -21 338 -43 q 181 44 224 1 q 112 153 138 88 q 87 305 87 218 q 102 443 87 371 q 146 588 117 515 q 217 733 176 661 q 311 870 258 805 q 427 990 364 935 q 561 1085 490 1045 q 711 1149 632 1126 q 874 1172 789 1172 q 911 1168 897 1172 q 932 1159 925 1164 q 941 1147 939 1153 q 943 1136 943 1141 q 943 1130 943 1133 q 943 1126 943 1127 l 943 1122 q 980 1109 961 1112 q 1017 1105 999 1107 q 1052 1098 1036 1103 q 1080 1077 1068 1093 q 1100 1030 1093 1061 q 1107 947 1107 1000 q 1099 856 1107 907 q 1078 749 1091 805 q 1049 637 1065 694 q 1018 526 1034 580 q 987 425 1002 473 q 962 342 972 378 q 958 287 960 313 q 957 233 957 261 q 958 198 957 212 q 962 176 959 184 q 969 164 964 168 q 981 161 974 161 q 1016 169 995 161 q 1060 187 1036 176 q 1108 212 1083 198 q 1157 240 1134 226 q 1201 265 1181 254 q 1235 284 1221 277 l 1270 152 m 949 1029 q 900 1039 925 1036 q 850 1042 874 1042 q 742 1021 795 1042 q 638 963 688 1000 q 542 878 587 927 q 456 772 496 829 q 385 654 416 715 q 330 533 353 593 q 294 415 307 472 q 282 309 282 357 q 320 161 282 214 q 439 109 359 109 q 535 130 490 109 q 618 185 580 151 q 689 262 657 219 q 746 349 722 305 q 785 434 770 393 q 808 505 801 475 l 949 1029 m 1183 1458 q 1183 1446 1183 1455 q 1179 1422 1182 1436 q 1169 1395 1176 1409 q 1150 1369 1162 1381 q 1119 1348 1138 1356 q 1074 1340 1101 1340 q 1005 1363 1031 1340 q 978 1440 978 1387 q 984 1484 978 1463 q 1003 1522 990 1506 q 1037 1548 1017 1538 q 1085 1558 1057 1558 q 1158 1533 1133 1558 q 1183 1458 1183 1507 m 867 1458 q 866 1446 867 1455 q 862 1422 865 1436 q 852 1395 859 1409 q 833 1369 845 1381 q 802 1348 821 1356 q 757 1340 783 1340 q 687 1363 713 1340 q 661 1440 661 1387 q 667 1484 661 1463 q 686 1522 673 1506 q 720 1548 699 1538 q 768 1558 740 1558 q 841 1533 816 1558 q 867 1458 867 1507 z "},"":{"ha":1107,"x_min":87,"x_max":1270,"o":"m 1270 152 q 1233 118 1255 137 q 1184 80 1211 99 q 1124 42 1156 60 q 1059 9 1093 24 q 992 -13 1026 -5 q 928 -22 959 -22 q 884 -14 906 -22 q 844 13 862 -7 q 814 68 826 33 q 803 160 803 104 q 806 211 803 184 q 815 271 810 239 q 729 135 777 194 q 628 37 682 77 q 516 -23 574 -3 q 401 -43 458 -43 q 281 -21 338 -43 q 181 44 224 1 q 112 153 138 88 q 87 305 87 218 q 102 443 87 371 q 146 588 117 515 q 217 733 176 661 q 311 870 258 805 q 427 990 364 935 q 561 1085 490 1045 q 711 1149 632 1126 q 874 1172 789 1172 q 911 1168 897 1172 q 932 1159 925 1164 q 941 1147 939 1153 q 943 1136 943 1141 q 943 1130 943 1133 q 943 1126 943 1127 l 943 1122 q 980 1109 961 1112 q 1017 1105 999 1107 q 1052 1098 1036 1103 q 1080 1077 1068 1093 q 1100 1030 1093 1061 q 1107 947 1107 1000 q 1099 856 1107 907 q 1078 749 1091 805 q 1049 637 1065 694 q 1018 526 1034 580 q 987 425 1002 473 q 962 342 972 378 q 958 287 960 313 q 957 233 957 261 q 958 198 957 212 q 962 176 959 184 q 969 164 964 168 q 981 161 974 161 q 1016 169 995 161 q 1060 187 1036 176 q 1108 212 1083 198 q 1157 240 1134 226 q 1201 265 1181 254 q 1235 284 1221 277 l 1270 152 m 949 1029 q 900 1039 925 1036 q 850 1042 874 1042 q 742 1021 795 1042 q 638 963 688 1000 q 542 878 587 927 q 456 772 496 829 q 385 654 416 715 q 330 533 353 593 q 294 415 307 472 q 282 309 282 357 q 320 161 282 214 q 439 109 359 109 q 535 130 490 109 q 618 185 580 151 q 689 262 657 219 q 746 349 722 305 q 785 434 770 393 q 808 505 801 475 l 949 1029 m 775 1512 q 785 1570 775 1544 q 813 1618 795 1596 q 853 1655 831 1639 q 902 1683 876 1672 q 953 1699 927 1694 q 1003 1705 979 1705 q 1054 1696 1028 1705 q 1099 1670 1079 1688 q 1131 1626 1118 1653 q 1143 1565 1143 1600 q 1124 1470 1143 1510 q 1074 1404 1104 1430 q 1005 1364 1043 1377 q 932 1352 968 1352 q 880 1360 907 1352 q 829 1387 852 1368 q 790 1436 806 1405 q 775 1512 775 1467 m 986 1617 q 933 1608 956 1617 q 896 1583 911 1598 q 874 1549 882 1567 q 867 1512 867 1530 q 871 1486 867 1498 q 883 1463 875 1473 q 904 1448 892 1454 q 932 1442 916 1442 q 980 1453 959 1442 q 1015 1480 1001 1463 q 1037 1517 1029 1497 q 1045 1556 1045 1537 q 1031 1599 1045 1581 q 986 1617 1017 1617 z "},"":{"ha":1563,"x_min":87,"x_max":1742,"o":"m 1742 170 q 1618 67 1687 111 q 1474 -6 1549 24 q 1322 -50 1399 -35 q 1172 -65 1244 -65 q 1037 -47 1101 -65 q 926 7 973 -29 q 850 97 878 43 q 823 223 823 151 q 825 260 823 241 q 735 142 787 197 q 627 45 684 87 q 511 -20 570 4 q 401 -43 452 -43 q 281 -21 338 -43 q 181 44 224 1 q 112 153 138 88 q 87 305 87 218 q 116 488 87 394 q 199 669 145 581 q 327 835 252 757 q 493 971 402 913 q 688 1063 584 1029 q 906 1097 793 1097 q 951 1093 928 1097 q 994 1077 975 1088 q 1026 1049 1013 1066 q 1038 1008 1038 1032 q 1036 989 1038 999 q 1093 1065 1063 1034 q 1155 1115 1122 1097 q 1223 1142 1188 1134 q 1295 1150 1258 1150 q 1396 1138 1344 1150 q 1500 1109 1448 1126 q 1602 1073 1552 1092 q 1700 1040 1653 1054 q 1715 1022 1711 1034 q 1720 996 1720 1010 q 1715 964 1720 981 q 1702 934 1710 947 q 1684 911 1694 920 q 1662 903 1673 903 q 1649 906 1654 903 q 1587 943 1626 923 q 1500 980 1548 963 q 1402 1008 1453 997 q 1305 1020 1352 1020 q 1214 997 1254 1020 q 1145 939 1175 975 q 1096 860 1116 903 q 1064 775 1076 817 q 1047 701 1052 734 q 1042 651 1042 667 q 1172 662 1109 657 q 1226 666 1198 664 q 1280 669 1254 668 q 1328 672 1305 671 q 1367 673 1351 673 q 1413 655 1398 673 q 1428 614 1428 637 q 1423 589 1428 602 q 1408 566 1418 576 q 1382 549 1398 555 q 1345 543 1367 543 q 1315 541 1339 543 q 1258 537 1291 539 q 1186 532 1224 534 q 1113 527 1147 529 q 1053 523 1079 524 q 1020 521 1027 521 q 999 446 1008 487 q 985 365 991 412 q 979 264 979 318 q 993 180 979 214 q 1033 125 1008 146 q 1093 96 1059 104 q 1168 87 1128 87 q 1269 96 1216 87 q 1374 122 1322 106 q 1477 162 1427 139 q 1569 211 1527 184 q 1645 266 1612 237 q 1695 323 1677 294 l 1742 170 m 949 967 q 802 943 879 967 q 651 874 725 918 q 510 768 576 829 q 392 634 443 707 q 312 479 342 562 q 282 309 282 396 q 320 161 282 214 q 439 109 359 109 q 537 137 490 109 q 627 212 585 166 q 705 314 669 258 q 770 427 741 371 q 818 530 798 482 q 846 608 838 578 l 949 967 z "},"":{"ha":977,"x_min":65,"x_max":1198,"o":"m 1198 229 q 1133 192 1164 215 q 1070 140 1102 168 q 1004 82 1038 113 q 930 21 970 51 q 844 -37 890 -9 q 740 -85 797 -64 q 615 -118 684 -106 q 465 -130 547 -130 q 299 -93 373 -130 q 174 6 226 -56 q 93 152 121 69 q 65 327 65 235 q 79 461 65 389 q 118 607 92 532 q 180 755 143 681 q 263 897 216 829 q 365 1022 309 964 q 484 1123 420 1080 q 616 1191 547 1166 q 762 1215 686 1215 q 861 1198 810 1215 q 951 1145 911 1181 q 1016 1054 991 1109 q 1042 924 1042 999 q 1026 823 1042 874 q 982 725 1010 772 q 917 636 954 677 q 836 565 879 595 q 745 517 792 534 q 652 499 699 499 q 559 516 590 499 q 529 564 529 532 q 529 576 529 569 q 528 592 528 584 q 530 617 528 604 q 535 642 531 631 q 547 659 539 652 q 568 666 555 666 q 583 664 576 666 q 596 659 589 661 q 614 653 604 656 q 641 651 625 651 q 729 670 684 651 q 809 724 773 689 q 867 806 844 758 q 890 911 890 854 q 882 969 890 942 q 855 1018 873 997 q 808 1051 837 1038 q 738 1063 779 1063 q 643 1042 689 1063 q 553 984 596 1021 q 472 897 511 947 q 401 790 434 847 q 343 670 369 732 q 298 547 317 608 q 270 427 280 485 q 260 320 260 369 q 278 198 260 250 q 327 112 295 146 q 405 60 359 77 q 509 43 451 43 q 643 61 581 43 q 761 109 705 79 q 870 174 817 138 q 975 248 922 211 q 1082 318 1027 285 q 1198 375 1137 352 l 1198 229 m 530 -134 q 519 -247 524 -204 q 513 -313 515 -289 q 508 -348 510 -337 q 505 -366 507 -359 q 502 -381 504 -373 q 498 -410 500 -390 q 483 -454 494 -435 q 457 -486 472 -473 q 423 -505 441 -498 q 387 -512 405 -512 q 359 -507 372 -512 q 335 -492 345 -503 q 318 -467 324 -482 q 312 -431 312 -452 q 323 -372 312 -403 q 355 -305 335 -341 q 401 -227 374 -269 q 457 -134 427 -185 q 475 -111 463 -121 q 500 -100 487 -100 q 523 -106 513 -100 q 532 -124 532 -111 q 530 -134 532 -127 z "},"":{"ha":846,"x_min":43,"x_max":1040,"o":"m 1002 170 q 878 67 947 111 q 734 -6 809 24 q 582 -50 659 -35 q 432 -65 505 -65 q 281 -46 352 -65 q 158 11 211 -28 q 74 107 105 49 q 43 247 43 166 q 68 378 43 315 q 145 490 93 441 q 278 569 197 539 q 472 602 359 599 q 342 623 397 602 q 250 681 286 644 q 195 765 213 717 q 176 868 176 814 q 194 961 176 919 q 242 1037 212 1003 q 315 1095 273 1070 q 407 1137 357 1120 q 510 1162 456 1154 q 618 1171 564 1171 q 774 1153 698 1171 q 909 1101 850 1136 q 1004 1015 968 1067 q 1040 894 1040 963 q 1023 846 1040 869 q 983 803 1006 822 q 935 773 960 785 q 892 762 909 762 q 878 787 878 762 q 885 845 878 810 q 909 933 892 880 q 856 963 891 948 q 776 990 821 978 q 682 1010 732 1002 q 583 1018 631 1018 q 496 1010 537 1018 q 423 983 454 1002 q 373 934 391 964 q 354 859 354 903 q 367 797 354 822 q 402 754 380 772 q 453 725 425 736 q 512 705 481 714 q 572 688 543 696 q 626 670 602 680 q 668 644 651 659 q 690 607 685 629 q 693 578 692 593 q 694 550 694 564 q 680 495 694 512 q 625 477 666 477 q 581 479 607 477 q 531 481 555 481 q 425 468 477 481 q 331 426 372 454 q 264 358 290 399 q 239 264 239 318 q 253 180 239 214 q 293 125 268 146 q 353 96 319 104 q 428 87 388 87 q 529 96 476 87 q 634 122 582 106 q 737 162 687 139 q 829 211 787 184 q 905 266 872 237 q 955 323 937 294 l 1002 170 m 755 1390 q 760 1373 758 1381 q 762 1358 762 1365 q 750 1325 762 1337 q 722 1312 739 1312 q 699 1318 711 1312 q 676 1337 687 1324 q 654 1364 667 1348 q 623 1402 640 1381 q 588 1446 606 1423 q 551 1492 569 1469 q 516 1537 533 1516 q 487 1576 500 1558 q 462 1642 462 1611 q 471 1679 462 1662 q 493 1708 479 1696 q 525 1727 507 1721 q 560 1734 543 1734 q 598 1724 580 1734 q 625 1691 616 1714 q 682 1559 656 1620 q 705 1507 693 1533 q 726 1458 716 1480 q 743 1417 736 1435 q 755 1390 751 1399 z "},"":{"ha":846,"x_min":43,"x_max":1040,"o":"m 1002 170 q 878 67 947 111 q 734 -6 809 24 q 582 -50 659 -35 q 432 -65 505 -65 q 281 -46 352 -65 q 158 11 211 -28 q 74 107 105 49 q 43 247 43 166 q 68 378 43 315 q 145 490 93 441 q 278 569 197 539 q 472 602 359 599 q 342 623 397 602 q 250 681 286 644 q 195 765 213 717 q 176 868 176 814 q 194 961 176 919 q 242 1037 212 1003 q 315 1095 273 1070 q 407 1137 357 1120 q 510 1162 456 1154 q 618 1171 564 1171 q 774 1153 698 1171 q 909 1101 850 1136 q 1004 1015 968 1067 q 1040 894 1040 963 q 1023 846 1040 869 q 983 803 1006 822 q 935 773 960 785 q 892 762 909 762 q 878 787 878 762 q 885 845 878 810 q 909 933 892 880 q 856 963 891 948 q 776 990 821 978 q 682 1010 732 1002 q 583 1018 631 1018 q 496 1010 537 1018 q 423 983 454 1002 q 373 934 391 964 q 354 859 354 903 q 367 797 354 822 q 402 754 380 772 q 453 725 425 736 q 512 705 481 714 q 572 688 543 696 q 626 670 602 680 q 668 644 651 659 q 690 607 685 629 q 693 578 692 593 q 694 550 694 564 q 680 495 694 512 q 625 477 666 477 q 581 479 607 477 q 531 481 555 481 q 425 468 477 481 q 331 426 372 454 q 264 358 290 399 q 239 264 239 318 q 253 180 239 214 q 293 125 268 146 q 353 96 319 104 q 428 87 388 87 q 529 96 476 87 q 634 122 582 106 q 737 162 687 139 q 829 211 787 184 q 905 266 872 237 q 955 323 937 294 l 1002 170 m 642 1383 q 653 1410 646 1392 q 670 1451 661 1428 q 691 1500 680 1474 q 714 1552 703 1527 q 772 1684 741 1613 q 799 1717 781 1707 q 836 1727 817 1727 q 871 1721 854 1727 q 903 1702 889 1714 q 926 1672 917 1689 q 935 1635 935 1655 q 909 1569 935 1603 q 880 1530 897 1552 q 845 1486 863 1509 q 809 1439 827 1462 q 773 1395 790 1416 q 742 1358 756 1375 q 720 1331 728 1341 q 697 1311 709 1317 q 674 1305 686 1305 q 646 1318 658 1305 q 635 1351 635 1331 q 636 1367 635 1358 q 642 1383 638 1375 z "},"":{"ha":846,"x_min":43,"x_max":1040,"o":"m 1002 170 q 878 67 947 111 q 734 -6 809 24 q 582 -50 659 -35 q 432 -65 505 -65 q 281 -46 352 -65 q 158 11 211 -28 q 74 107 105 49 q 43 247 43 166 q 68 378 43 315 q 145 490 93 441 q 278 569 197 539 q 472 602 359 599 q 342 623 397 602 q 250 681 286 644 q 195 765 213 717 q 176 868 176 814 q 194 961 176 919 q 242 1037 212 1003 q 315 1095 273 1070 q 407 1137 357 1120 q 510 1162 456 1154 q 618 1171 564 1171 q 774 1153 698 1171 q 909 1101 850 1136 q 1004 1015 968 1067 q 1040 894 1040 963 q 1023 846 1040 869 q 983 803 1006 822 q 935 773 960 785 q 892 762 909 762 q 878 787 878 762 q 885 845 878 810 q 909 933 892 880 q 856 963 891 948 q 776 990 821 978 q 682 1010 732 1002 q 583 1018 631 1018 q 496 1010 537 1018 q 423 983 454 1002 q 373 934 391 964 q 354 859 354 903 q 367 797 354 822 q 402 754 380 772 q 453 725 425 736 q 512 705 481 714 q 572 688 543 696 q 626 670 602 680 q 668 644 651 659 q 690 607 685 629 q 693 578 692 593 q 694 550 694 564 q 680 495 694 512 q 625 477 666 477 q 581 479 607 477 q 531 481 555 481 q 425 468 477 481 q 331 426 372 454 q 264 358 290 399 q 239 264 239 318 q 253 180 239 214 q 293 125 268 146 q 353 96 319 104 q 428 87 388 87 q 529 96 476 87 q 634 122 582 106 q 737 162 687 139 q 829 211 787 184 q 905 266 872 237 q 955 323 937 294 l 1002 170 m 707 1647 q 667 1543 686 1592 q 651 1500 659 1522 q 634 1457 642 1478 q 620 1419 627 1437 q 608 1390 612 1402 q 582 1340 595 1358 q 555 1314 569 1322 q 527 1304 541 1306 q 498 1303 513 1303 q 483 1307 491 1303 q 468 1320 475 1312 q 456 1339 461 1328 q 452 1364 452 1350 q 457 1390 452 1377 l 568 1613 q 601 1676 587 1649 q 631 1721 616 1703 q 667 1749 647 1740 q 718 1758 688 1758 q 768 1747 748 1758 q 803 1714 789 1736 q 828 1661 817 1693 q 848 1589 838 1630 q 861 1552 856 1566 q 869 1527 865 1537 q 875 1506 872 1516 q 882 1483 878 1497 q 892 1450 886 1470 q 908 1400 899 1431 q 911 1377 911 1388 q 892 1322 911 1345 q 833 1300 872 1300 q 809 1304 821 1300 q 787 1318 797 1308 q 769 1346 777 1329 q 757 1390 761 1363 q 736 1508 745 1459 q 720 1588 726 1557 q 707 1647 713 1625 z "},"":{"ha":846,"x_min":43,"x_max":1040,"o":"m 1002 170 q 878 67 947 111 q 734 -6 809 24 q 582 -50 659 -35 q 432 -65 505 -65 q 281 -46 352 -65 q 158 11 211 -28 q 74 107 105 49 q 43 247 43 166 q 68 378 43 315 q 145 490 93 441 q 278 569 197 539 q 472 602 359 599 q 342 623 397 602 q 250 681 286 644 q 195 765 213 717 q 176 868 176 814 q 194 961 176 919 q 242 1037 212 1003 q 315 1095 273 1070 q 407 1137 357 1120 q 510 1162 456 1154 q 618 1171 564 1171 q 774 1153 698 1171 q 909 1101 850 1136 q 1004 1015 968 1067 q 1040 894 1040 963 q 1023 846 1040 869 q 983 803 1006 822 q 935 773 960 785 q 892 762 909 762 q 878 787 878 762 q 885 845 878 810 q 909 933 892 880 q 856 963 891 948 q 776 990 821 978 q 682 1010 732 1002 q 583 1018 631 1018 q 496 1010 537 1018 q 423 983 454 1002 q 373 934 391 964 q 354 859 354 903 q 367 797 354 822 q 402 754 380 772 q 453 725 425 736 q 512 705 481 714 q 572 688 543 696 q 626 670 602 680 q 668 644 651 659 q 690 607 685 629 q 693 578 692 593 q 694 550 694 564 q 680 495 694 512 q 625 477 666 477 q 581 479 607 477 q 531 481 555 481 q 425 468 477 481 q 331 426 372 454 q 264 358 290 399 q 239 264 239 318 q 253 180 239 214 q 293 125 268 146 q 353 96 319 104 q 428 87 388 87 q 529 96 476 87 q 634 122 582 106 q 737 162 687 139 q 829 211 787 184 q 905 266 872 237 q 955 323 937 294 l 1002 170 m 936 1438 q 935 1426 936 1436 q 931 1403 935 1416 q 922 1375 928 1390 q 903 1349 915 1361 q 872 1329 890 1337 q 826 1320 853 1320 q 757 1344 784 1320 q 730 1421 730 1367 q 736 1465 730 1443 q 756 1502 743 1486 q 789 1529 769 1518 q 838 1539 809 1539 q 911 1513 886 1539 q 936 1438 936 1487 m 619 1438 q 618 1426 619 1436 q 614 1403 618 1416 q 604 1375 611 1390 q 585 1349 597 1361 q 554 1329 573 1337 q 509 1320 536 1320 q 440 1344 466 1320 q 414 1421 414 1367 q 420 1465 414 1443 q 439 1502 426 1486 q 472 1529 452 1518 q 521 1539 492 1539 q 594 1513 568 1539 q 619 1438 619 1487 z "},"":{"ha":846,"x_min":170,"x_max":1021,"o":"m 448 952 q 445 951 445 951 q 441 975 443 951 q 439 1040 439 999 q 447 1061 439 1048 q 472 1089 454 1074 q 518 1119 490 1104 q 591 1146 547 1134 q 694 1166 635 1158 q 831 1173 753 1173 q 936 1167 899 1173 q 993 1150 974 1160 q 1016 1125 1012 1139 q 1021 1097 1021 1112 q 1017 1068 1021 1082 q 1000 1043 1014 1054 q 957 1025 985 1031 q 879 1018 928 1018 q 834 1020 857 1018 q 801 888 815 946 q 775 780 787 829 q 754 688 764 731 q 735 600 745 644 q 714 508 725 556 q 689 401 703 460 q 657 271 675 343 q 614 106 638 199 q 632 105 618 106 q 666 100 647 104 q 706 92 685 97 q 745 78 728 86 q 774 59 763 70 q 786 34 786 48 q 737 -22 786 5 q 691 -22 723 -22 q 617 -22 660 -22 q 525 -22 574 -22 q 426 -22 475 -22 q 330 -22 376 -22 q 248 -21 283 -22 q 192 -20 213 -21 q 170 -18 170 -20 q 177 -12 170 -16 q 191 0 183 -7 q 207 20 199 8 q 216 48 214 31 q 239 70 218 60 q 292 89 261 81 q 356 103 322 98 q 417 111 391 109 q 459 288 438 199 q 502 462 481 377 q 542 627 522 547 q 581 777 562 707 q 618 905 600 846 q 651 1006 635 963 q 607 1001 626 1004 q 573 995 588 998 q 545 987 558 991 q 517 978 532 983 q 487 967 503 973 q 448 952 470 960 m 857 1362 q 862 1345 861 1354 q 864 1330 864 1337 q 852 1297 864 1310 q 825 1284 841 1284 q 801 1290 813 1284 q 779 1310 789 1296 q 756 1337 770 1320 q 726 1374 743 1354 q 690 1418 709 1395 q 653 1465 671 1441 q 619 1509 635 1488 q 589 1548 602 1531 q 564 1614 564 1584 q 573 1651 564 1634 q 596 1681 582 1668 q 627 1699 610 1693 q 663 1706 645 1706 q 700 1696 682 1706 q 727 1663 718 1686 q 785 1531 758 1592 q 807 1479 795 1506 q 828 1430 819 1453 q 846 1389 838 1407 q 857 1362 853 1371 z "},"":{"ha":846,"x_min":170,"x_max":1021,"o":"m 448 952 q 445 951 445 951 q 441 975 443 951 q 439 1040 439 999 q 447 1061 439 1048 q 472 1089 454 1074 q 518 1119 490 1104 q 591 1146 547 1134 q 694 1166 635 1158 q 831 1173 753 1173 q 936 1167 899 1173 q 993 1150 974 1160 q 1016 1125 1012 1139 q 1021 1097 1021 1112 q 1017 1068 1021 1082 q 1000 1043 1014 1054 q 957 1025 985 1031 q 879 1018 928 1018 q 834 1020 857 1018 q 801 888 815 946 q 775 780 787 829 q 754 688 764 731 q 735 600 745 644 q 714 508 725 556 q 689 401 703 460 q 657 271 675 343 q 614 106 638 199 q 632 105 618 106 q 666 100 647 104 q 706 92 685 97 q 745 78 728 86 q 774 59 763 70 q 786 34 786 48 q 737 -22 786 5 q 691 -22 723 -22 q 617 -22 660 -22 q 525 -22 574 -22 q 426 -22 475 -22 q 330 -22 376 -22 q 248 -21 283 -22 q 192 -20 213 -21 q 170 -18 170 -20 q 177 -12 170 -16 q 191 0 183 -7 q 207 20 199 8 q 216 48 214 31 q 239 70 218 60 q 292 89 261 81 q 356 103 322 98 q 417 111 391 109 q 459 288 438 199 q 502 462 481 377 q 542 627 522 547 q 581 777 562 707 q 618 905 600 846 q 651 1006 635 963 q 607 1001 626 1004 q 573 995 588 998 q 545 987 558 991 q 517 978 532 983 q 487 967 503 973 q 448 952 470 960 m 711 1377 q 722 1404 715 1386 q 740 1445 730 1422 q 761 1494 749 1468 q 783 1546 772 1520 q 841 1678 810 1607 q 868 1711 850 1701 q 905 1721 886 1721 q 941 1714 923 1721 q 972 1695 958 1708 q 995 1666 986 1683 q 1004 1629 1004 1649 q 979 1563 1004 1597 q 949 1524 966 1546 q 915 1479 932 1503 q 878 1433 897 1456 q 842 1389 859 1410 q 811 1352 825 1369 q 789 1324 798 1335 q 766 1305 778 1311 q 743 1299 755 1299 q 715 1312 727 1299 q 704 1345 704 1324 q 706 1360 704 1352 q 711 1377 707 1369 z "},"":{"ha":846,"x_min":170,"x_max":1021,"o":"m 448 952 q 445 951 445 951 q 441 975 443 951 q 439 1040 439 999 q 447 1061 439 1048 q 472 1089 454 1074 q 518 1119 490 1104 q 591 1146 547 1134 q 694 1166 635 1158 q 831 1173 753 1173 q 936 1167 899 1173 q 993 1150 974 1160 q 1016 1125 1012 1139 q 1021 1097 1021 1112 q 1017 1068 1021 1082 q 1000 1043 1014 1054 q 957 1025 985 1031 q 879 1018 928 1018 q 834 1020 857 1018 q 801 888 815 946 q 775 780 787 829 q 754 688 764 731 q 735 600 745 644 q 714 508 725 556 q 689 401 703 460 q 657 271 675 343 q 614 106 638 199 q 632 105 618 106 q 666 100 647 104 q 706 92 685 97 q 745 78 728 86 q 774 59 763 70 q 786 34 786 48 q 737 -22 786 5 q 691 -22 723 -22 q 617 -22 660 -22 q 525 -22 574 -22 q 426 -22 475 -22 q 330 -22 376 -22 q 248 -21 283 -22 q 192 -20 213 -21 q 170 -18 170 -20 q 177 -12 170 -16 q 191 0 183 -7 q 207 20 199 8 q 216 48 214 31 q 239 70 218 60 q 292 89 261 81 q 356 103 322 98 q 417 111 391 109 q 459 288 438 199 q 502 462 481 377 q 542 627 522 547 q 581 777 562 707 q 618 905 600 846 q 651 1006 635 963 q 607 1001 626 1004 q 573 995 588 998 q 545 987 558 991 q 517 978 532 983 q 487 967 503 973 q 448 952 470 960 m 779 1641 q 739 1537 758 1586 q 723 1494 731 1516 q 706 1451 714 1472 q 691 1413 699 1431 q 680 1383 684 1396 q 654 1334 667 1352 q 627 1308 641 1316 q 599 1298 613 1300 q 570 1297 585 1297 q 555 1301 563 1297 q 540 1314 547 1305 q 528 1333 533 1322 q 524 1358 524 1344 q 529 1384 524 1371 l 640 1607 q 673 1670 659 1643 q 703 1715 688 1697 q 739 1743 719 1733 q 790 1752 760 1752 q 840 1741 820 1752 q 875 1708 861 1730 q 900 1655 889 1687 q 920 1583 910 1624 q 932 1546 928 1560 q 941 1520 937 1531 q 947 1500 944 1510 q 954 1477 950 1491 q 964 1444 958 1463 q 980 1394 970 1425 q 983 1371 983 1382 q 964 1316 983 1339 q 905 1294 944 1294 q 881 1298 892 1294 q 859 1312 869 1302 q 841 1340 848 1322 q 829 1383 833 1357 q 808 1502 817 1453 q 792 1582 798 1551 q 779 1641 785 1619 z "},"":{"ha":846,"x_min":170,"x_max":1021,"o":"m 448 952 q 445 951 445 951 q 441 975 443 951 q 439 1040 439 999 q 447 1061 439 1048 q 472 1089 454 1074 q 518 1119 490 1104 q 591 1146 547 1134 q 694 1166 635 1158 q 831 1173 753 1173 q 936 1167 899 1173 q 993 1150 974 1160 q 1016 1125 1012 1139 q 1021 1097 1021 1112 q 1017 1068 1021 1082 q 1000 1043 1014 1054 q 957 1025 985 1031 q 879 1018 928 1018 q 834 1020 857 1018 q 801 888 815 946 q 775 780 787 829 q 754 688 764 731 q 735 600 745 644 q 714 508 725 556 q 689 401 703 460 q 657 271 675 343 q 614 106 638 199 q 632 105 618 106 q 666 100 647 104 q 706 92 685 97 q 745 78 728 86 q 774 59 763 70 q 786 34 786 48 q 737 -22 786 5 q 691 -22 723 -22 q 617 -22 660 -22 q 525 -22 574 -22 q 426 -22 475 -22 q 330 -22 376 -22 q 248 -21 283 -22 q 192 -20 213 -21 q 170 -18 170 -20 q 177 -12 170 -16 q 191 0 183 -7 q 207 20 199 8 q 216 48 214 31 q 239 70 218 60 q 292 89 261 81 q 356 103 322 98 q 417 111 391 109 q 459 288 438 199 q 502 462 481 377 q 542 627 522 547 q 581 777 562 707 q 618 905 600 846 q 651 1006 635 963 q 607 1001 626 1004 q 573 995 588 998 q 545 987 558 991 q 517 978 532 983 q 487 967 503 973 q 448 952 470 960 m 1021 1428 q 1020 1416 1021 1426 q 1016 1393 1019 1406 q 1006 1365 1013 1379 q 987 1339 1000 1351 q 957 1318 975 1326 q 911 1310 938 1310 q 842 1334 869 1310 q 815 1411 815 1357 q 821 1454 815 1433 q 841 1492 827 1476 q 874 1518 854 1508 q 922 1529 894 1529 q 996 1503 970 1529 q 1021 1428 1021 1477 m 704 1428 q 703 1416 704 1426 q 699 1393 703 1406 q 689 1365 696 1379 q 670 1339 682 1351 q 639 1318 658 1326 q 594 1310 621 1310 q 525 1334 551 1310 q 498 1411 498 1357 q 505 1454 498 1433 q 524 1492 511 1476 q 557 1518 536 1508 q 606 1529 577 1529 q 679 1503 653 1529 q 704 1428 704 1477 z "},"":{"ha":863,"x_min":22,"x_max":955,"o":"m 149 673 q 205 849 174 766 q 275 999 237 933 q 358 1107 313 1065 q 452 1162 402 1150 q 481 1166 465 1164 q 512 1170 494 1168 q 550 1172 530 1172 q 678 1154 621 1172 q 780 1104 735 1136 q 858 1028 825 1072 q 912 931 891 983 q 944 819 934 878 q 955 697 955 760 q 936 524 955 612 q 881 354 917 436 q 792 200 845 272 q 672 75 740 128 q 523 -10 604 21 q 347 -41 441 -41 q 282 -36 315 -41 q 218 -23 249 -31 q 159 -5 186 -15 q 110 16 131 5 q 93 23 101 19 q 79 32 85 26 q 69 44 73 37 q 65 63 65 52 q 68 173 65 115 q 79 292 72 231 q 95 416 85 353 q 118 543 105 479 l 81 543 q 51 548 62 543 q 33 563 39 554 q 24 583 26 572 q 22 604 22 593 q 23 623 22 612 q 32 646 24 635 q 53 665 39 657 q 94 673 67 673 l 149 673 m 326 87 q 458 115 395 87 q 574 192 521 144 q 669 305 627 241 q 741 440 711 369 q 787 584 771 511 q 803 725 803 657 q 783 849 803 794 q 731 942 764 904 q 656 1000 699 980 q 569 1020 614 1020 q 493 991 528 1020 q 429 915 458 963 q 377 805 400 867 q 335 673 353 742 l 506 673 q 525 671 515 673 q 544 664 535 669 q 559 650 553 659 q 565 628 565 642 q 561 599 565 614 q 547 571 557 584 q 519 551 537 559 q 471 543 500 543 l 305 543 q 285 427 294 484 q 271 322 277 371 q 263 236 266 274 q 260 175 260 197 q 262 133 260 150 q 270 106 264 116 q 290 91 277 96 q 326 87 303 87 z "},"":{"ha":1101,"x_min":-28,"x_max":1318,"o":"m 311 516 q 403 757 357 654 q 492 933 448 860 q 577 1052 536 1006 q 657 1125 618 1099 q 732 1162 696 1152 q 802 1172 768 1172 q 869 1153 842 1172 q 915 1104 897 1134 q 941 1038 933 1074 q 949 968 949 1002 q 943 877 949 927 q 927 772 937 827 q 906 657 918 716 q 885 539 895 597 q 869 424 876 480 q 863 317 863 367 q 864 280 863 300 q 868 240 865 260 q 878 199 871 219 q 896 164 884 180 q 923 139 907 149 q 963 130 940 130 q 1032 146 996 130 q 1103 187 1068 162 q 1170 240 1138 212 q 1225 294 1201 269 q 1263 335 1249 319 q 1277 353 1277 352 l 1318 205 q 1268 148 1296 176 q 1208 93 1240 119 q 1141 45 1177 67 q 1068 7 1105 23 q 993 -19 1031 -9 q 919 -28 956 -28 q 836 -12 871 -28 q 773 33 800 5 q 730 97 747 60 q 702 176 712 134 q 687 260 691 217 q 682 342 682 302 q 691 446 682 395 q 711 546 699 497 q 739 642 724 595 q 766 733 753 689 q 786 820 778 778 q 795 900 795 861 q 793 927 795 910 q 788 960 792 944 q 774 987 783 975 q 748 998 764 998 q 692 973 721 998 q 633 903 663 947 q 572 797 603 858 q 512 664 542 735 q 452 515 481 593 q 395 358 422 437 q 342 202 368 279 q 294 58 316 125 q 250 6 275 21 q 195 -9 225 -9 q 160 -2 177 -9 q 131 20 144 5 q 111 56 118 35 q 103 104 103 77 q 106 156 103 133 q 114 203 109 179 q 145 346 131 280 q 172 471 160 412 q 194 587 184 531 q 212 700 204 643 q 227 816 220 756 q 237 943 233 876 q 237 959 237 949 q 235 977 237 968 q 228 991 233 985 q 213 998 223 998 q 180 985 199 998 q 140 949 161 972 q 98 896 119 926 q 59 830 77 865 q 46 815 55 820 q 26 811 37 811 q 8 817 18 811 q -9 831 -1 823 q -23 848 -18 839 q -28 865 -28 857 q -26 871 -28 869 q 25 1001 -3 948 q 86 1087 54 1055 q 152 1135 119 1120 q 217 1150 185 1150 q 298 1136 265 1150 q 351 1095 331 1121 q 380 1032 372 1069 q 389 951 389 996 q 382 854 389 906 q 361 748 374 803 q 332 635 349 692 q 299 520 316 577 l 311 516 m 699 1409 q 715 1430 707 1418 q 731 1451 723 1439 q 749 1477 740 1463 q 782 1509 762 1499 q 822 1520 802 1520 q 862 1507 845 1520 q 878 1470 878 1494 q 869 1434 878 1453 q 848 1395 861 1419 q 815 1348 835 1371 q 770 1309 796 1325 q 711 1293 745 1293 q 673 1298 690 1293 q 633 1319 656 1304 q 579 1360 611 1334 q 496 1426 547 1385 q 479 1404 488 1415 q 463 1383 472 1395 q 446 1358 454 1371 q 413 1325 433 1336 q 373 1315 393 1315 q 333 1328 350 1315 q 317 1364 317 1341 q 326 1400 317 1381 q 347 1440 334 1416 q 379 1487 360 1464 q 425 1526 399 1510 q 484 1542 450 1542 q 522 1536 505 1542 q 562 1516 539 1531 q 616 1475 584 1501 q 699 1409 648 1449 z "},"":{"ha":1107,"x_min":65,"x_max":1107,"o":"m 503 -130 q 321 -89 402 -130 q 183 27 240 -47 q 96 204 126 101 q 65 429 65 307 q 75 563 65 494 q 103 700 84 631 q 152 833 123 768 q 219 957 180 899 q 304 1064 257 1015 q 409 1149 352 1114 q 533 1205 467 1185 q 675 1225 599 1225 q 857 1188 777 1225 q 992 1086 937 1152 q 1077 929 1048 1020 q 1107 728 1107 838 q 1089 538 1107 637 q 1036 344 1071 439 q 950 163 1002 249 q 831 12 899 77 q 682 -92 764 -54 q 503 -130 600 -130 m 519 35 q 621 56 574 35 q 706 114 667 77 q 778 200 745 151 q 835 305 810 249 q 879 422 860 361 q 909 541 897 482 q 927 655 922 600 q 933 754 933 709 q 919 877 933 819 q 876 976 905 934 q 803 1043 847 1019 q 701 1067 760 1067 q 581 1037 639 1067 q 471 956 522 1007 q 376 837 419 905 q 303 695 334 770 q 256 543 273 621 q 239 395 239 466 q 258 253 239 319 q 314 138 277 186 q 402 63 350 90 q 519 35 454 35 m 794 1421 q 799 1404 798 1412 q 801 1388 801 1396 q 789 1355 801 1368 q 762 1343 778 1343 q 738 1349 750 1343 q 715 1368 726 1354 q 693 1395 707 1378 q 663 1433 680 1412 q 627 1476 646 1453 q 590 1523 608 1499 q 556 1568 572 1546 q 526 1607 539 1589 q 501 1672 501 1642 q 510 1710 501 1693 q 533 1739 519 1727 q 564 1758 547 1751 q 600 1765 582 1765 q 637 1754 619 1765 q 664 1721 655 1744 q 722 1590 695 1651 q 744 1537 732 1564 q 765 1488 755 1511 q 783 1448 775 1466 q 794 1421 790 1430 z "},"":{"ha":1025,"x_min":65,"x_max":1107,"o":"m 503 -130 q 321 -89 402 -130 q 183 27 240 -47 q 96 204 126 101 q 65 429 65 307 q 75 563 65 494 q 103 700 84 631 q 152 833 123 768 q 219 957 180 899 q 304 1064 257 1015 q 409 1149 352 1114 q 533 1205 467 1185 q 675 1225 599 1225 q 857 1188 777 1225 q 992 1086 937 1152 q 1077 929 1048 1020 q 1107 728 1107 838 q 1089 538 1107 637 q 1036 344 1071 439 q 950 163 1002 249 q 831 12 899 77 q 682 -92 764 -54 q 503 -130 600 -130 m 519 35 q 621 56 574 35 q 706 114 667 77 q 778 200 745 151 q 835 305 810 249 q 879 422 860 361 q 909 541 897 482 q 927 655 922 600 q 933 754 933 709 q 919 877 933 819 q 876 976 905 934 q 803 1043 847 1019 q 701 1067 760 1067 q 581 1037 639 1067 q 471 956 522 1007 q 376 837 419 905 q 303 695 334 770 q 256 543 273 621 q 239 395 239 466 q 258 253 239 319 q 314 138 277 186 q 402 63 350 90 q 519 35 454 35 m 725 1421 q 736 1448 729 1430 q 754 1489 744 1466 q 775 1538 764 1512 q 798 1590 786 1565 q 855 1722 824 1651 q 882 1755 864 1745 q 920 1765 900 1765 q 955 1758 937 1765 q 986 1740 972 1752 q 1009 1710 1000 1727 q 1018 1673 1018 1693 q 993 1607 1018 1641 q 963 1568 980 1590 q 929 1524 947 1547 q 892 1477 911 1500 q 857 1433 873 1454 q 826 1396 840 1413 q 804 1369 812 1379 q 781 1349 792 1355 q 758 1343 769 1343 q 730 1356 741 1343 q 718 1389 718 1369 q 720 1404 718 1396 q 725 1421 722 1413 z "},"":{"ha":1025,"x_min":65,"x_max":1107,"o":"m 503 -130 q 321 -89 402 -130 q 183 27 240 -47 q 96 204 126 101 q 65 429 65 307 q 75 563 65 494 q 103 700 84 631 q 152 833 123 768 q 219 957 180 899 q 304 1064 257 1015 q 409 1149 352 1114 q 533 1205 467 1185 q 675 1225 599 1225 q 857 1188 777 1225 q 992 1086 937 1152 q 1077 929 1048 1020 q 1107 728 1107 838 q 1089 538 1107 637 q 1036 344 1071 439 q 950 163 1002 249 q 831 12 899 77 q 682 -92 764 -54 q 503 -130 600 -130 m 519 35 q 621 56 574 35 q 706 114 667 77 q 778 200 745 151 q 835 305 810 249 q 879 422 860 361 q 909 541 897 482 q 927 655 922 600 q 933 754 933 709 q 919 877 933 819 q 876 976 905 934 q 803 1043 847 1019 q 701 1067 760 1067 q 581 1037 639 1067 q 471 956 522 1007 q 376 837 419 905 q 303 695 334 770 q 256 543 273 621 q 239 395 239 466 q 258 253 239 319 q 314 138 277 186 q 402 63 350 90 q 519 35 454 35 m 762 1698 q 722 1594 741 1643 q 705 1551 713 1573 q 689 1508 696 1529 q 674 1470 681 1488 q 662 1440 667 1453 q 636 1391 650 1409 q 609 1365 623 1373 q 581 1355 595 1357 q 553 1354 567 1354 q 537 1358 545 1354 q 522 1371 529 1362 q 511 1390 515 1379 q 506 1415 506 1401 q 511 1441 506 1428 l 623 1664 q 655 1727 641 1699 q 686 1772 670 1754 q 722 1800 701 1790 q 772 1809 742 1809 q 823 1798 802 1809 q 857 1765 843 1787 q 882 1712 871 1744 q 903 1640 892 1681 q 915 1603 910 1617 q 923 1577 920 1588 q 929 1557 926 1567 q 937 1534 932 1548 q 947 1501 941 1520 q 962 1451 953 1482 q 966 1428 966 1439 q 946 1373 966 1396 q 888 1351 926 1351 q 863 1355 875 1351 q 841 1369 851 1359 q 823 1397 831 1379 q 811 1440 815 1414 q 790 1559 800 1510 q 774 1639 781 1608 q 762 1698 767 1676 z "},"":{"ha":1025,"x_min":65,"x_max":1107,"o":"m 503 -130 q 321 -89 402 -130 q 183 27 240 -47 q 96 204 126 101 q 65 429 65 307 q 75 563 65 494 q 103 700 84 631 q 152 833 123 768 q 219 957 180 899 q 304 1064 257 1015 q 409 1149 352 1114 q 533 1205 467 1185 q 675 1225 599 1225 q 857 1188 777 1225 q 992 1086 937 1152 q 1077 929 1048 1020 q 1107 728 1107 838 q 1089 538 1107 637 q 1036 344 1071 439 q 950 163 1002 249 q 831 12 899 77 q 682 -92 764 -54 q 503 -130 600 -130 m 519 35 q 621 56 574 35 q 706 114 667 77 q 778 200 745 151 q 835 305 810 249 q 879 422 860 361 q 909 541 897 482 q 927 655 922 600 q 933 754 933 709 q 919 877 933 819 q 876 976 905 934 q 803 1043 847 1019 q 701 1067 760 1067 q 581 1037 639 1067 q 471 956 522 1007 q 376 837 419 905 q 303 695 334 770 q 256 543 273 621 q 239 395 239 466 q 258 253 239 319 q 314 138 277 186 q 402 63 350 90 q 519 35 454 35 m 897 1466 q 913 1487 905 1475 q 929 1508 921 1496 q 947 1534 938 1520 q 980 1566 960 1556 q 1020 1577 1000 1577 q 1060 1564 1043 1577 q 1076 1527 1076 1551 q 1067 1491 1076 1510 q 1046 1452 1059 1476 q 1014 1405 1033 1428 q 968 1366 994 1382 q 909 1350 943 1350 q 871 1355 888 1350 q 831 1376 854 1361 q 777 1417 809 1391 q 694 1482 745 1442 q 677 1461 686 1472 q 661 1440 670 1452 q 644 1415 652 1428 q 611 1382 631 1393 q 571 1372 591 1372 q 531 1385 548 1372 q 515 1421 515 1398 q 524 1457 515 1438 q 545 1497 532 1473 q 577 1544 558 1521 q 623 1583 597 1567 q 682 1599 648 1599 q 720 1593 703 1599 q 760 1573 737 1588 q 814 1532 782 1558 q 897 1466 846 1506 z "},"":{"ha":1025,"x_min":65,"x_max":1107,"o":"m 503 -130 q 321 -89 402 -130 q 183 27 240 -47 q 96 204 126 101 q 65 429 65 307 q 75 563 65 494 q 103 700 84 631 q 152 833 123 768 q 219 957 180 899 q 304 1064 257 1015 q 409 1149 352 1114 q 533 1205 467 1185 q 675 1225 599 1225 q 857 1188 777 1225 q 992 1086 937 1152 q 1077 929 1048 1020 q 1107 728 1107 838 q 1089 538 1107 637 q 1036 344 1071 439 q 950 163 1002 249 q 831 12 899 77 q 682 -92 764 -54 q 503 -130 600 -130 m 519 35 q 621 56 574 35 q 706 114 667 77 q 778 200 745 151 q 835 305 810 249 q 879 422 860 361 q 909 541 897 482 q 927 655 922 600 q 933 754 933 709 q 919 877 933 819 q 876 976 905 934 q 803 1043 847 1019 q 701 1067 760 1067 q 581 1037 639 1067 q 471 956 522 1007 q 376 837 419 905 q 303 695 334 770 q 256 543 273 621 q 239 395 239 466 q 258 253 239 319 q 314 138 277 186 q 402 63 350 90 q 519 35 454 35 m 1044 1497 q 1043 1485 1044 1495 q 1039 1462 1042 1475 q 1029 1434 1036 1449 q 1010 1408 1023 1420 q 980 1388 998 1396 q 934 1379 961 1379 q 865 1403 892 1379 q 838 1480 838 1426 q 844 1524 838 1502 q 864 1561 850 1545 q 897 1588 877 1577 q 945 1598 917 1598 q 1019 1572 994 1598 q 1044 1497 1044 1546 m 727 1497 q 726 1485 727 1495 q 722 1462 726 1475 q 712 1434 719 1449 q 693 1408 705 1420 q 662 1388 681 1396 q 617 1379 644 1379 q 548 1403 574 1379 q 522 1480 522 1426 q 528 1524 522 1502 q 547 1561 534 1545 q 580 1588 559 1577 q 629 1598 600 1598 q 702 1572 676 1598 q 727 1497 727 1546 z "},"":{"ha":868,"x_min":239,"x_max":694,"o":"m 469 262 l 362 148 q 328 123 345 130 q 296 115 311 115 q 255 132 271 115 q 239 172 239 148 q 247 206 239 188 q 273 241 255 224 l 378 347 l 269 456 q 249 485 255 470 q 243 515 243 500 q 248 541 243 528 q 260 562 252 553 q 278 576 268 571 q 301 582 289 582 q 351 557 326 582 l 469 433 l 582 559 q 608 577 595 572 q 632 583 621 583 q 655 578 645 583 q 673 563 666 572 q 685 541 681 553 q 690 516 690 529 q 684 486 690 500 q 665 458 678 471 l 561 347 l 661 240 q 686 204 678 222 q 694 171 694 186 q 678 130 694 146 q 637 114 662 114 q 605 121 622 114 q 570 146 588 129 l 469 262 z "},"":{"ha":1025,"x_min":65,"x_max":1107,"o":"m 503 -130 q 480 -130 492 -130 q 458 -127 469 -129 l 431 -222 q 413 -262 422 -248 q 395 -286 404 -277 q 377 -296 386 -294 q 361 -299 369 -299 q 342 -297 351 -299 q 327 -289 334 -296 q 317 -270 321 -283 q 313 -233 313 -256 q 319 -176 313 -211 q 338 -96 324 -142 q 223 -18 273 -68 q 137 100 172 32 q 84 251 102 168 q 65 429 65 334 q 82 616 65 519 q 134 804 100 712 q 219 979 168 897 q 337 1123 270 1061 q 489 1222 405 1185 q 675 1259 574 1259 q 719 1257 697 1259 l 736 1319 q 752 1361 743 1341 q 775 1397 762 1381 q 805 1422 789 1413 q 840 1431 821 1431 q 862 1418 857 1431 q 867 1386 867 1406 q 867 1376 867 1381 q 867 1366 867 1371 q 862 1335 866 1356 q 852 1294 857 1315 q 841 1254 846 1272 q 834 1230 836 1236 q 950 1156 899 1203 q 1036 1044 1001 1109 q 1088 899 1070 979 q 1107 728 1107 819 q 1089 538 1107 637 q 1036 344 1071 439 q 950 163 1002 249 q 831 12 899 77 q 682 -92 764 -54 q 503 -130 600 -130 m 519 22 q 621 44 574 22 q 706 105 667 66 q 778 196 745 144 q 835 308 810 248 q 879 431 860 367 q 909 557 897 495 q 927 677 922 619 q 933 781 933 734 q 925 886 933 836 q 900 978 917 937 q 859 1052 884 1020 q 800 1103 833 1084 q 762 960 783 1038 q 717 795 741 882 q 667 613 693 708 q 614 420 641 519 q 558 221 587 321 q 502 22 530 121 q 510 22 506 22 q 519 22 515 22 m 382 62 q 424 212 401 129 q 474 389 448 296 q 528 580 500 481 q 583 774 556 678 q 636 961 610 871 q 683 1128 661 1051 q 566 1087 623 1123 q 461 996 510 1052 q 371 866 412 939 q 300 714 330 793 q 255 552 271 634 q 239 395 239 470 q 248 289 239 339 q 276 195 258 238 q 321 119 294 153 q 382 62 348 85 z "},"":{"ha":937,"x_min":65,"x_max":1042,"o":"m 846 1063 q 859 1119 848 1098 q 887 1152 870 1140 q 924 1168 903 1164 q 965 1172 945 1172 q 998 1168 983 1172 q 1022 1153 1012 1164 q 1037 1125 1031 1143 q 1042 1080 1042 1107 q 1019 731 1042 892 q 956 438 997 570 q 859 204 916 306 q 733 33 802 102 q 585 -73 664 -37 q 420 -109 505 -109 q 250 -67 319 -109 q 141 43 182 -26 q 82 205 100 113 q 65 399 65 297 q 76 562 65 479 q 102 723 86 645 q 139 872 119 802 q 180 998 160 942 q 207 1059 193 1038 q 233 1092 220 1081 q 258 1104 245 1102 q 285 1107 271 1107 q 331 1104 311 1107 q 364 1095 351 1102 q 385 1076 378 1088 q 391 1042 391 1063 l 391 1037 q 389 1019 390 1029 q 385 998 389 1010 q 363 931 377 973 q 333 834 349 888 q 300 716 317 779 q 269 587 283 653 q 247 455 256 521 q 239 331 239 390 q 249 217 239 270 q 283 126 259 165 q 346 65 307 87 q 441 43 385 43 q 525 67 486 43 q 600 135 565 92 q 666 240 635 179 q 722 374 696 301 q 769 531 748 448 q 805 702 789 614 q 831 882 821 791 q 846 1063 842 974 m 692 1327 q 697 1310 695 1318 q 699 1295 699 1302 q 687 1262 699 1274 q 659 1249 675 1249 q 636 1255 648 1249 q 613 1274 624 1261 q 591 1301 604 1284 q 560 1339 577 1318 q 525 1383 543 1360 q 488 1429 506 1406 q 453 1474 470 1453 q 424 1513 437 1495 q 399 1579 399 1548 q 408 1616 399 1599 q 430 1645 416 1633 q 462 1664 444 1657 q 497 1671 479 1671 q 535 1661 517 1671 q 562 1628 553 1651 q 619 1496 593 1557 q 642 1444 630 1470 q 663 1395 653 1417 q 680 1354 673 1372 q 692 1327 688 1336 z "},"":{"ha":937,"x_min":65,"x_max":1042,"o":"m 846 1063 q 859 1119 848 1098 q 887 1152 870 1140 q 924 1168 903 1164 q 965 1172 945 1172 q 998 1168 983 1172 q 1022 1153 1012 1164 q 1037 1125 1031 1143 q 1042 1080 1042 1107 q 1019 731 1042 892 q 956 438 997 570 q 859 204 916 306 q 733 33 802 102 q 585 -73 664 -37 q 420 -109 505 -109 q 250 -67 319 -109 q 141 43 182 -26 q 82 205 100 113 q 65 399 65 297 q 76 562 65 479 q 102 723 86 645 q 139 872 119 802 q 180 998 160 942 q 207 1059 193 1038 q 233 1092 220 1081 q 258 1104 245 1102 q 285 1107 271 1107 q 331 1104 311 1107 q 364 1095 351 1102 q 385 1076 378 1088 q 391 1042 391 1063 l 391 1037 q 389 1019 390 1029 q 385 998 389 1010 q 363 931 377 973 q 333 834 349 888 q 300 716 317 779 q 269 587 283 653 q 247 455 256 521 q 239 331 239 390 q 249 217 239 270 q 283 126 259 165 q 346 65 307 87 q 441 43 385 43 q 525 67 486 43 q 600 135 565 92 q 666 240 635 179 q 722 374 696 301 q 769 531 748 448 q 805 702 789 614 q 831 882 821 791 q 846 1063 842 974 m 631 1327 q 643 1354 635 1336 q 660 1395 650 1372 q 681 1444 670 1417 q 704 1496 692 1470 q 762 1628 730 1557 q 788 1661 770 1651 q 826 1671 806 1671 q 861 1664 844 1671 q 893 1645 879 1657 q 916 1616 907 1633 q 924 1579 924 1599 q 899 1513 924 1547 q 870 1474 886 1495 q 835 1429 853 1453 q 799 1383 817 1406 q 763 1339 780 1360 q 732 1301 746 1318 q 710 1274 718 1284 q 687 1255 699 1261 q 664 1249 675 1249 q 636 1262 648 1249 q 625 1295 625 1274 q 626 1310 625 1302 q 631 1327 628 1318 z "}}}
